<?xml version="1.0" encoding="UTF-8" standalone="no"?>
<!-- Created with Inkscape (http://www.inkscape.org/) -->

<svg
   xmlns:dc="http://purl.org/dc/elements/1.1/"
   xmlns:cc="http://creativecommons.org/ns#"
   xmlns:rdf="http://www.w3.org/1999/02/22-rdf-syntax-ns#"
   xmlns:svg="http://www.w3.org/2000/svg"
   xmlns="http://www.w3.org/2000/svg"
   xmlns:sodipodi="http://sodipodi.sourceforge.net/DTD/sodipodi-0.dtd"
   xmlns:inkscape="http://www.inkscape.org/namespaces/inkscape"
   width="210mm"
   height="297mm"
   viewBox="0 0 210 297"
   version="1.1"
   id="svg8"
   inkscape:version="0.92.3 (2405546, 2018-03-11)"
   sodipodi:docname="CAD finished with all gears  - Erkhme.svg">
  <defs
     id="defs2" />
  <sodipodi:namedview
     id="base"
     pagecolor="#ffffff"
     bordercolor="#666666"
     borderopacity="1.0"
     inkscape:pageopacity="0.0"
     inkscape:pageshadow="2"
     inkscape:zoom="2"
     inkscape:cx="416.80542"
     inkscape:cy="985.74285"
     inkscape:document-units="mm"
     inkscape:current-layer="layer1"
     showgrid="true"
     inkscape:measure-start="390,1160"
     inkscape:measure-end="180,1015"
     showguides="false"
     inkscape:window-width="1920"
     inkscape:window-height="1001"
     inkscape:window-x="-9"
     inkscape:window-y="-9"
     inkscape:window-maximized="1">
    <inkscape:grid
       type="xygrid"
       id="grid47" />
  </sodipodi:namedview>
  <metadata
     id="metadata5">
    <rdf:RDF>
      <cc:Work
         rdf:about="">
        <dc:format>image/svg+xml</dc:format>
        <dc:type
           rdf:resource="http://purl.org/dc/dcmitype/StillImage" />
        <dc:title></dc:title>
      </cc:Work>
    </rdf:RDF>
  </metadata>
  <g
     inkscape:groupmode="layer"
     id="layer2"
     inkscape:label="Layer 2">
    <path
       style="fill:none;stroke:#000000;stroke-width:0.26458332px;stroke-linecap:butt;stroke-linejoin:miter;stroke-opacity:1"
       d="m 23.01875,6.7520822 h 3.96875 l 0.264583,0.2645834 1.852083,6.3499994 3.96875,1.322917 5.820834,-3.175 3.439583,3.175 -3.175,5.55625 2.116666,4.233333 6.35,2.116667 v 3.968751 L 41.539583,32.416667 39.6875,37.44375 42.862499,43 39.6875,46.175 l -5.291667,-2.910417 -5.291667,2.38125 -1.5875,6.085417 h -4.233333 l -1.5875,-6.085417 -5.291667,-2.116667 -5.556249,3.175 -3.1750004,-3.175 L 11.1125,37.972917 8.9958332,32.945833 2.6458333,31.09375 v -4.233335 l 6.6145833,-1.5875 1.8520834,-4.7625 -3.1750001,-5.820833 2.9104171,-2.910416 6.085416,3.174999 4.233333,-1.852083 z"
       id="path880"
       inkscape:connector-curvature="0" />
    <path
       inkscape:connector-curvature="0"
       id="path882"
       d="m 23.01875,6.7520822 h 3.96875 l 0.264583,0.2645834 1.852083,6.3499994 3.96875,1.322917 5.820834,-3.175 3.439583,3.175 -3.175,5.55625 2.116666,4.233333 6.35,2.116667 v 3.968751 L 41.539583,32.416667 39.6875,37.44375 42.862499,43 39.6875,46.175 l -5.291667,-2.910417 -5.291667,2.38125 -1.5875,6.085417 h -4.233333 l -1.5875,-6.085417 -5.291667,-2.116667 -5.556249,3.175 -3.1750004,-3.175 L 11.1125,37.972917 8.9958332,32.945833 2.6458333,31.09375 v -4.233335 l 6.6145833,-1.5875 1.8520834,-4.7625 -3.1750001,-5.820833 2.9104171,-2.910416 6.085416,3.174999 4.233333,-1.852083 z"
       style="fill:none;stroke:#000000;stroke-width:0.26458332px;stroke-linecap:butt;stroke-linejoin:miter;stroke-opacity:1" />
  </g>
  <g
     inkscape:label="Layer 1"
     inkscape:groupmode="layer"
     id="layer1">
    <g
       id="layer1-2"
       inkscape:label="Layer 1" />
    <g
       id="layer1-4"
       inkscape:label="Layer 1" />
    <path
       id="path51"
       d="m 6.2052077,98.891528 c -0.1286174,0.0309 -0.2374379,0.06188 -0.3477469,-0.02778 -0.024408,-0.02982 -0.062584,-0.135479 -0.015968,-0.164851 0.5937887,-0.374129 0.3907901,-0.342955 0.6765112,-0.377875 0.117764,-0.01109 0.236087,-0.01244 0.3542726,-0.01291 0.073369,0.0114 0.038159,0.0021 0.1057894,0.02726 0,0 -0.5787858,0.39561 -0.5787858,0.39561 v 0 c -0.058566,-0.01199 -0.027656,-0.0079 -0.092888,-0.01109 -0.1149935,0.0013 -0.2322147,1.27e-4 -0.3442136,0.0293 -0.2406068,0.118179 0.016523,-0.0068 0.5295368,-0.319402 0.038195,-0.02328 -0.054931,0.01138 -0.051555,0.03878 8.202e-4,0.0067 0.00645,0.01196 0.00967,0.01794 0.09532,0.05155 0.212167,0.0029 0.3060176,-0.03017 0,0 -0.5506415,0.435181 -0.5506415,0.435181 z"
       inkscape:connector-curvature="0"
       style="stroke-width:0.26458332" />
    <path
       inkscape:connector-curvature="0"
       d="m 11.112501,20.510404 -1.5875035,-7.14375 7.4083365,1.852083 m -7.6729195,10.054167 -6.3500002,3.96875 6.3500002,3.704168 m 1.8520865,5.291666 -1.5875035,6.879167 6.8791695,-1.852083 m 5.291667,2.381249 3.704167,5.820834 3.704166,-5.820834 m 10.583334,-8.202083 1.587499,7.14375 -6.879166,-1.5875 M 41.275,24.743737 47.360417,28.712487 41.275,32.416654 m -7.937499,-17.4625 7.143749,-1.5875 -1.587499,6.614583 m -17.727083,-6.614582 3.96875,-6.3500007 3.96875,6.3500007 m -13.229167,9.260416 v 2.645834"
       style="fill:none;stroke:#00f600;stroke-width:0.26458332px;stroke-linecap:butt;stroke-linejoin:miter;stroke-opacity:1"
       id="path4692" />
    <path
       id="path5882"
       style="fill:none;stroke:#00f600;stroke-width:0.26458332px;stroke-linecap:butt;stroke-linejoin:miter;stroke-opacity:1"
       d="m 11.112501,68.664571 -1.5875035,-7.14375 7.4083365,1.852083 m -7.6729195,10.054167 -6.3499999,3.96875 6.3499999,3.704168 m 1.8520865,5.291666 -1.5875035,6.879167 6.8791695,-1.852083 m 5.291667,2.381249 3.704167,5.820838 3.704166,-5.820838 m 10.583334,-8.202083 1.587499,7.14375 -6.879166,-1.5875 M 41.275,72.897904 47.360417,76.866654 41.275,80.570821 m -7.937499,-17.4625 7.143749,-1.5875 -1.587499,6.614583 m -17.727083,-6.614582 3.96875,-6.35 3.96875,6.35 m -13.229167,9.260416 v 2.645834"
       inkscape:connector-curvature="0" />
    <path
       inkscape:connector-curvature="0"
       d="m 11.112501,116.28958 -1.5875045,-7.14375 7.4083375,1.85208 m -7.6729205,10.05417 -6.3499999,3.96875 6.3499999,3.70417 m 1.8520875,5.29166 -1.5875045,6.87917 6.8791705,-1.85208 m 5.291667,2.38125 3.704167,5.82083 3.704166,-5.82083 m 10.583334,-8.20209 1.587499,7.14375 -6.879166,-1.5875 m 6.879166,-18.25625 6.085417,3.96875 -6.085417,3.70417 m -7.937499,-17.4625 7.143749,-1.5875 -1.587499,6.61458 m -17.727083,-6.61458 3.96875,-6.35 3.96875,6.35 m -13.229167,9.26042 v 2.64583"
       style="fill:none;stroke:#00f600;stroke-width:0.26458332px;stroke-linecap:butt;stroke-linejoin:miter;stroke-opacity:1"
       id="path5888" />
    <path
       inkscape:connector-curvature="0"
       d="m 11.112501,163.91458 -1.5875045,-7.14375 7.4083375,1.85208 m -7.6729205,10.05417 -6.3499996,3.96875 6.3499996,3.70417 m 1.8520875,5.29166 -1.5875045,6.87917 6.8791705,-1.85208 m 5.291667,2.38125 3.704167,5.82083 3.704166,-5.82083 m 10.583334,-8.20209 1.587499,7.14375 -6.879166,-1.5875 m 6.879166,-18.25625 6.085417,3.96875 -6.085417,3.70417 m -7.937499,-17.4625 7.143749,-1.5875 -1.587499,6.61458 m -17.727083,-6.61458 3.96875,-6.35 3.96875,6.35 m -13.229167,9.26042 v 2.64583"
       style="fill:none;stroke:#00f600;stroke-width:0.26458332px;stroke-linecap:butt;stroke-linejoin:miter;stroke-opacity:1"
       id="path5901" />
    <path
       style="stroke-width:0.26458332"
       inkscape:connector-curvature="0"
       d="m 53.830207,98.891528 c -0.128617,0.0309 -0.237438,0.06188 -0.347747,-0.02778 -0.02441,-0.02982 -0.06258,-0.135479 -0.01597,-0.164851 0.593789,-0.374129 0.390791,-0.342955 0.676512,-0.377875 0.117764,-0.01109 0.236087,-0.01244 0.354272,-0.01291 0.07337,0.0114 0.03816,0.0021 0.10579,0.02726 0,0 -0.578786,0.39561 -0.578786,0.39561 v 0 c -0.05857,-0.01199 -0.02766,-0.0079 -0.09289,-0.01109 -0.114994,0.0013 -0.232215,1.27e-4 -0.344214,0.0293 -0.240607,0.118179 0.01652,-0.0068 0.529537,-0.319402 0.0382,-0.02328 -0.05493,0.01138 -0.05156,0.03878 8.2e-4,0.0067 0.0065,0.01196 0.0097,0.01794 0.09532,0.05155 0.212167,0.0029 0.306018,-0.03017 0,0 -0.550642,0.435181 -0.550642,0.435181 z"
       id="path5903" />
    <path
       id="path5907"
       style="fill:none;stroke:#00f600;stroke-width:0.26458332px;stroke-linecap:butt;stroke-linejoin:miter;stroke-opacity:1"
       d="m 58.737499,20.774989 -1.587503,-7.14375 7.408336,1.852083 m -7.672919,10.054167 -6.35,3.96875 6.35,3.704168 m 1.852086,5.291666 -1.587503,6.879167 6.879169,-1.852083 m 5.291667,2.381249 3.704167,5.820834 3.704166,-5.820834 m 10.583334,-8.202083 1.587499,7.14375 -6.879166,-1.5875 m 6.879166,-18.256251 6.085417,3.96875 -6.085417,3.704167 m -7.937499,-17.4625 7.143749,-1.5875 -1.587499,6.614583 m -17.727083,-6.614582 3.96875,-6.3500013 3.96875,6.3500013 m -13.229167,9.260416 v 2.645834"
       inkscape:connector-curvature="0" />
    <path
       inkscape:connector-curvature="0"
       d="m 58.7375,68.664571 -1.587503,-7.14375 7.408336,1.852083 m -7.672919,10.054167 -6.35,3.96875 6.35,3.704168 m 1.852086,5.291666 -1.587503,6.879167 6.879169,-1.852083 m 5.291667,2.381249 3.704167,5.820838 3.704166,-5.820838 m 10.583334,-8.202083 1.587499,7.14375 -6.879166,-1.5875 m 6.879166,-18.256251 6.085417,3.96875 -6.085417,3.704167 m -7.937499,-17.4625 7.143749,-1.5875 -1.587499,6.614583 m -17.727083,-6.614582 3.96875,-6.35 3.96875,6.35 M 63.5,70.781238 v 2.645834"
       style="fill:none;stroke:#00f600;stroke-width:0.26458332px;stroke-linecap:butt;stroke-linejoin:miter;stroke-opacity:1"
       id="path5911" />
    <path
       id="path5917"
       style="fill:none;stroke:#00f600;stroke-width:0.26458332px;stroke-linecap:butt;stroke-linejoin:miter;stroke-opacity:1"
       d="m 58.7375,116.28958 -1.587504,-7.14375 7.408337,1.85208 m -7.67292,10.05417 -6.35,3.96875 6.35,3.70417 m 1.852087,5.29166 -1.587504,6.87917 6.87917,-1.85208 m 5.291667,2.38125 3.704167,5.82083 3.704166,-5.82083 m 10.583334,-8.20209 1.587499,7.14375 -6.879166,-1.5875 m 6.879166,-18.25625 6.085417,3.96875 -6.085417,3.70417 m -7.937499,-17.4625 7.143749,-1.5875 -1.587499,6.61458 m -17.727083,-6.61458 3.96875,-6.35 3.96875,6.35 M 63.5,118.40625 v 2.64583"
       inkscape:connector-curvature="0" />
    <path
       id="path5919"
       style="fill:none;stroke:#00f600;stroke-width:0.26458332px;stroke-linecap:butt;stroke-linejoin:miter;stroke-opacity:1"
       d="m 58.7375,163.91458 -1.587503,-7.14375 7.408336,1.85208 m -7.672919,10.05417 -6.35,3.96875 6.35,3.70417 m 1.852086,5.29166 -1.587503,6.87917 6.879169,-1.85208 M 69.320833,189.05 73.025,194.87083 76.729166,189.05 m 10.583334,-8.20209 1.587499,7.14375 -6.879166,-1.5875 m 6.879166,-18.25625 6.085417,3.96875 -6.085417,3.70417 m -7.937499,-17.4625 7.143749,-1.5875 -1.587499,6.61458 m -17.727083,-6.61458 3.96875,-6.35 3.96875,6.35 M 63.5,166.03125 v 2.64583"
       inkscape:connector-curvature="0" />
    <path
       style="stroke-width:0.26458332"
       inkscape:connector-curvature="0"
       d="m 101.45522,98.891529 c -0.12862,0.0309 -0.23744,0.06188 -0.34775,-0.02778 -0.0244,-0.02982 -0.0626,-0.135479 -0.016,-0.164851 0.59379,-0.374129 0.39079,-0.342955 0.67651,-0.377875 0.11777,-0.01109 0.23609,-0.01244 0.35428,-0.01291 0.0734,0.0114 0.0382,0.0021 0.10579,0.02726 0,0 -0.57879,0.39561 -0.57879,0.39561 v 0 c -0.0586,-0.01199 -0.0277,-0.0079 -0.0929,-0.01109 -0.11499,0.0013 -0.23221,1.27e-4 -0.34421,0.0293 -0.24061,0.118179 0.0165,-0.0068 0.52954,-0.319402 0.0382,-0.02328 -0.0549,0.01138 -0.0516,0.03878 8.2e-4,0.0067 0.006,0.01196 0.01,0.01794 0.0953,0.05155 0.21217,0.0029 0.30602,-0.03017 0,0 -0.55064,0.435181 -0.55064,0.435181 z"
       id="path5921" />
    <path
       id="path5925"
       style="fill:none;stroke:#00f600;stroke-width:0.26458332px;stroke-linecap:butt;stroke-linejoin:miter;stroke-opacity:1"
       d="m 106.36251,19.716656 -1.5875,-7.14375 7.40833,1.852083 m -7.67292,10.054167 -6.349998,3.96875 6.349998,3.704168 m 1.85209,5.291666 -1.5875,6.879167 6.87917,-1.852083 m 5.29166,2.381249 3.70417,5.820834 3.70417,-5.820834 m 10.58333,-8.202083 1.5875,7.14375 -6.87917,-1.5875 m 6.87917,-18.256251 6.08542,3.96875 -6.08542,3.704167 m -7.9375,-17.4625 7.14375,-1.5875 -1.5875,6.614583 m -17.72708,-6.614582 3.96875,-6.3500003 3.96875,6.3500003 m -13.22917,9.260416 v 2.645834"
       inkscape:connector-curvature="0" />
    <path
       inkscape:connector-curvature="0"
       d="m 106.36251,68.664572 -1.5875,-7.14375 7.40833,1.852083 m -7.67292,10.054167 -6.349998,3.96875 6.349998,3.704168 m 1.85209,5.291666 -1.5875,6.879167 6.87917,-1.852083 m 5.29166,2.381249 3.70417,5.820837 3.70417,-5.820837 m 10.58333,-8.202083 1.5875,7.14375 -6.87917,-1.5875 m 6.87917,-18.256251 6.08542,3.96875 -6.08542,3.704167 m -7.9375,-17.4625 7.14375,-1.5875 -1.5875,6.614583 m -17.72708,-6.614582 3.96875,-6.35 3.96875,6.35 m -13.22917,9.260416 v 2.645834"
       style="fill:none;stroke:#00f600;stroke-width:0.26458332px;stroke-linecap:butt;stroke-linejoin:miter;stroke-opacity:1"
       id="path5929" />
    <path
       id="path5935"
       style="fill:none;stroke:#00f600;stroke-width:0.26458332px;stroke-linecap:butt;stroke-linejoin:miter;stroke-opacity:1"
       d="m 106.36251,116.28959 -1.5875,-7.14376 7.40833,1.85209 m -7.67292,10.05417 -6.349999,3.96875 6.349999,3.70417 m 1.85209,5.29166 -1.5875,6.87917 6.87917,-1.85208 m 5.29166,2.38125 3.70417,5.82083 3.70417,-5.82083 m 10.58333,-8.20209 1.5875,7.14375 -6.87917,-1.5875 m 6.87917,-18.25625 6.08542,3.96875 -6.08542,3.70417 m -7.9375,-17.4625 7.14375,-1.58751 -1.5875,6.61459 m -17.72708,-6.61459 3.96875,-6.35 3.96875,6.35 m -13.22917,9.26043 v 2.64583"
       inkscape:connector-curvature="0" />
    <path
       id="path5937"
       style="fill:none;stroke:#00f600;stroke-width:0.26458332px;stroke-linecap:butt;stroke-linejoin:miter;stroke-opacity:1"
       d="m 106.36251,163.91459 -1.5875,-7.14375 7.40833,1.85208 m -7.67292,10.05417 -6.349998,3.96875 6.349998,3.70417 m 1.85209,5.29166 -1.5875,6.87917 6.87917,-1.85208 m 5.29166,2.38125 3.70417,5.82083 3.70417,-5.82083 m 10.58333,-8.20209 1.5875,7.14375 -6.87917,-1.5875 m 6.87917,-18.25625 6.08542,3.96875 -6.08542,3.70417 m -7.9375,-17.4625 7.14375,-1.5875 -1.5875,6.61458 m -17.72708,-6.61458 3.96875,-6.35 3.96875,6.35 m -13.22917,9.26042 v 2.64583"
       inkscape:connector-curvature="0" />
    <path
       id="path5939"
       d="m 149.08022,98.891529 c -0.12862,0.0309 -0.23744,0.06188 -0.34775,-0.02778 -0.0244,-0.02982 -0.0626,-0.135479 -0.016,-0.164851 0.59379,-0.374129 0.39079,-0.342955 0.67651,-0.377875 0.11776,-0.01109 0.23609,-0.01244 0.35427,-0.01291 0.0734,0.0114 0.0382,0.0021 0.10579,0.02726 0,0 -0.57878,0.39561 -0.57878,0.39561 v 0 c -0.0586,-0.01199 -0.0277,-0.0079 -0.0929,-0.01109 -0.115,0.0013 -0.23222,1.27e-4 -0.34422,0.0293 -0.2406,0.118179 0.0165,-0.0068 0.52954,-0.319402 0.0382,-0.02328 -0.0549,0.01138 -0.0516,0.03878 8.2e-4,0.0067 0.007,0.01196 0.01,0.01794 0.0953,0.05155 0.21217,0.0029 0.30602,-0.03017 0,0 -0.55064,0.435181 -0.55064,0.435181 z"
       inkscape:connector-curvature="0"
       style="stroke-width:0.26458332" />
    <path
       inkscape:connector-curvature="0"
       d="m 153.98751,19.716656 -1.5875,-7.14375 7.40833,1.852083 m -7.67292,10.054167 -6.35,3.96875 6.35,3.704168 m 1.85209,5.291666 -1.5875,6.879167 6.87916,-1.852083 m 5.29167,2.381249 3.70417,5.820834 3.70416,-5.820834 m 10.58334,-8.202083 1.5875,7.14375 -6.87917,-1.5875 m 6.87917,-18.256251 6.08541,3.96875 -6.08541,3.704167 m -7.9375,-17.4625 7.14375,-1.5875 -1.5875,6.614583 m -17.72708,-6.614582 3.96875,-6.3500003 3.96875,6.3500003 m -13.22917,9.260416 v 2.645834"
       style="fill:none;stroke:#00f600;stroke-width:0.26458332px;stroke-linecap:butt;stroke-linejoin:miter;stroke-opacity:1"
       id="path5943" />
    <path
       id="path5947"
       style="fill:none;stroke:#00f600;stroke-width:0.26458332px;stroke-linecap:butt;stroke-linejoin:miter;stroke-opacity:1"
       d="m 153.98751,68.664572 -1.5875,-7.14375 7.40833,1.852083 m -7.67292,10.054167 -6.35,3.96875 6.35,3.704168 m 1.85209,5.291666 -1.5875,6.879167 6.87916,-1.852083 m 5.29167,2.381249 3.70417,5.820837 3.70416,-5.820837 m 10.58334,-8.202083 1.5875,7.14375 -6.87917,-1.5875 m 6.87917,-18.256251 6.08541,3.96875 -6.08541,3.704167 m -7.9375,-17.4625 7.14375,-1.5875 -1.5875,6.614583 m -17.72708,-6.614582 3.96875,-6.35 3.96875,6.35 m -13.22917,9.260416 v 2.645834"
       inkscape:connector-curvature="0" />
    <path
       inkscape:connector-curvature="0"
       d="m 153.98751,116.28959 -1.58751,-7.14376 7.40834,1.85209 m -7.67292,10.05417 -6.35,3.96875 6.35,3.70417 m 1.85209,5.29166 -1.58751,6.87917 6.87917,-1.85208 m 5.29167,2.38125 3.70417,5.82083 3.70416,-5.82083 m 10.58334,-8.20209 1.5875,7.14375 -6.87917,-1.5875 m 6.87917,-18.25625 6.08541,3.96875 -6.08541,3.70417 m -7.9375,-17.4625 7.14375,-1.58751 -1.5875,6.61459 m -17.72708,-6.61459 3.96875,-6.35 3.96875,6.35 m -13.22917,9.26043 v 2.64583"
       style="fill:none;stroke:#00f600;stroke-width:0.26458332px;stroke-linecap:butt;stroke-linejoin:miter;stroke-opacity:1"
       id="path5953" />
    <path
       inkscape:connector-curvature="0"
       d="m 153.98751,163.91459 -1.5875,-7.14375 7.40833,1.85208 m -7.67292,10.05417 -6.35,3.96875 6.35,3.70417 m 1.85209,5.29166 -1.5875,6.87917 6.87916,-1.85208 m 5.29167,2.38125 3.70417,5.82083 3.70416,-5.82083 m 10.58334,-8.20209 1.5875,7.14375 -6.87917,-1.5875 m 6.87917,-18.25625 6.08541,3.96875 -6.08541,3.70417 m -7.9375,-17.4625 7.14375,-1.5875 -1.5875,6.61458 m -17.72708,-6.61458 3.96875,-6.35 3.96875,6.35 m -13.22917,9.26042 v 2.64583"
       style="fill:none;stroke:#00f600;stroke-width:0.26458332px;stroke-linecap:butt;stroke-linejoin:miter;stroke-opacity:1"
       id="path5955" />
    <path
       id="path5959"
       style="fill:none;stroke:#00f600;stroke-width:0.26458332px;stroke-linecap:butt;stroke-linejoin:miter;stroke-opacity:1"
       d="m 11.112502,214.18541 -1.5875035,-7.14375 7.4083365,1.85208 m -7.6729195,10.05417 -6.3500003,3.96875 6.3500003,3.70417 m 1.8520865,5.29166 -1.5875035,6.87917 6.8791695,-1.85208 m 5.291667,2.38125 3.704167,5.82083 3.704166,-5.82083 m 10.583334,-8.20209 1.587499,7.14375 -6.879166,-1.5875 m 6.879166,-18.25625 6.085417,3.96875 -6.085417,3.70417 m -7.937499,-17.4625 7.143749,-1.5875 -1.587499,6.61458 m -17.727083,-6.61458 3.96875,-6.35 3.96875,6.35 m -13.229167,9.26042 v 2.64583"
       inkscape:connector-curvature="0" />
    <path
       inkscape:connector-curvature="0"
       d="m 58.737501,214.18541 -1.587503,-7.14375 7.408336,1.85208 m -7.672919,10.05417 -6.35,3.96875 6.35,3.70417 m 1.852086,5.29166 -1.587503,6.87917 6.879169,-1.85208 m 5.291667,2.38125 3.704167,5.82083 3.704166,-5.82083 m 10.583334,-8.20209 1.587499,7.14375 -6.879166,-1.5875 M 88.9,218.41874 94.985417,222.38749 88.9,226.09166 m -7.937499,-17.4625 7.143749,-1.5875 -1.587499,6.61458 m -17.727083,-6.61458 3.96875,-6.35 3.96875,6.35 m -13.229167,9.26042 v 2.64583"
       style="fill:none;stroke:#00f600;stroke-width:0.26458332px;stroke-linecap:butt;stroke-linejoin:miter;stroke-opacity:1"
       id="path5963" />
    <path
       inkscape:connector-curvature="0"
       d="m 106.36251,214.18542 -1.5875,-7.14375 7.40833,1.85208 m -7.67292,10.05417 -6.349997,3.96875 6.349997,3.70417 m 1.85209,5.29166 -1.5875,6.87917 6.87917,-1.85208 m 5.29166,2.38125 3.70417,5.82083 3.70417,-5.82083 m 10.58333,-8.20209 1.5875,7.14375 -6.87917,-1.5875 m 6.87917,-18.25625 6.08542,3.96875 -6.08542,3.70417 m -7.9375,-17.4625 7.14375,-1.5875 -1.5875,6.61458 m -17.72708,-6.61458 3.96875,-6.35 3.96875,6.35 m -13.22917,9.26042 v 2.64583"
       style="fill:none;stroke:#00f600;stroke-width:0.26458332px;stroke-linecap:butt;stroke-linejoin:miter;stroke-opacity:1"
       id="path5967" />
    <path
       id="path5971"
       style="fill:none;stroke:#00f600;stroke-width:0.26458332px;stroke-linecap:butt;stroke-linejoin:miter;stroke-opacity:1"
       d="m 153.98751,214.18542 -1.5875,-7.14375 7.40833,1.85208 m -7.67292,10.05417 -6.35,3.96875 6.35,3.70417 m 1.85209,5.29166 -1.5875,6.87917 6.87916,-1.85208 m 5.29167,2.38125 3.70417,5.82083 3.70416,-5.82083 m 10.58334,-8.20209 1.5875,7.14375 -6.87917,-1.5875 m 6.87917,-18.25625 6.08541,3.96875 -6.08541,3.70417 m -7.9375,-17.4625 7.14375,-1.5875 -1.5875,6.61458 m -17.72708,-6.61458 3.96875,-6.35 3.96875,6.35 m -13.22917,9.26042 v 2.64583"
       inkscape:connector-curvature="0" />
    <path
       style="fill:none;stroke:#00ff00;stroke-width:0.26458332px;stroke-linecap:butt;stroke-linejoin:miter;stroke-opacity:1"
       d="m 15.875001,118.40624 1.322916,1.32292 -1.322916,1.32292"
       id="path5973"
       inkscape:connector-curvature="0" />
    <path
       style="fill:none;stroke:#00ff00;stroke-width:0.26458332px;stroke-linecap:butt;stroke-linejoin:miter;stroke-opacity:1"
       d="M 63.5,121.05208 64.822917,119.72916 63.5,118.40624"
       id="path5975"
       inkscape:connector-curvature="0" />
    <path
       style="fill:none;stroke:#00ff00;stroke-width:0.26458332px;stroke-linecap:butt;stroke-linejoin:miter;stroke-opacity:1"
       d="m 112.44792,119.72916 h -2.64584"
       id="path5977"
       inkscape:connector-curvature="0" />
    <path
       style="fill:none;stroke:#00ff00;stroke-width:0.26458332px;stroke-linecap:butt;stroke-linejoin:miter;stroke-opacity:1"
       d="m 157.42708,119.72916 h 2.64583"
       id="path5979"
       inkscape:connector-curvature="0" />
    <path
       style="fill:none;stroke:#00ff00;stroke-width:0.26458332px;stroke-linecap:butt;stroke-linejoin:miter;stroke-opacity:1"
       d="m 14.552084,167.35416 h 2.645833"
       id="path5981"
       inkscape:connector-curvature="0" />
    <path
       style="fill:none;stroke:#00ff00;stroke-width:0.26458332px;stroke-linecap:butt;stroke-linejoin:miter;stroke-opacity:1"
       d="M 64.822917,167.35416 H 62.177084"
       id="path5983"
       inkscape:connector-curvature="0" />
    <path
       style="fill:none;stroke:#00ff00;stroke-width:0.26458332px;stroke-linecap:butt;stroke-linejoin:miter;stroke-opacity:1"
       d="m 109.80208,166.03124 2.64584,2.64584"
       id="path5985"
       inkscape:connector-curvature="0" />
    <path
       style="fill:none;stroke:#00e100;stroke-width:0.26458332px;stroke-linecap:butt;stroke-linejoin:miter;stroke-opacity:1"
       d="m 112.44792,166.03124 -2.64584,2.64584"
       id="path5987"
       inkscape:connector-curvature="0" />
    <path
       style="fill:none;stroke:#00fc00;stroke-width:0.26458332px;stroke-linecap:butt;stroke-linejoin:miter;stroke-opacity:1"
       d="m 160.07291,166.03124 -2.64583,2.64584"
       id="path5989"
       inkscape:connector-curvature="0" />
    <path
       style="fill:none;stroke:#00ff00;stroke-width:0.26458332px;stroke-linecap:butt;stroke-linejoin:miter;stroke-opacity:1"
       d="m 157.42708,166.03124 2.64583,2.64584"
       id="path5991"
       inkscape:connector-curvature="0" />
    <path
       style="fill:none;stroke:#00f500;stroke-width:0.26458332px;stroke-linecap:butt;stroke-linejoin:miter;stroke-opacity:1"
       d="m 14.552084,216.30208 2.645833,2.64583"
       id="path5993"
       inkscape:connector-curvature="0" />
    <path
       style="fill:none;stroke:#00ff00;stroke-width:0.26458332px;stroke-linecap:butt;stroke-linejoin:miter;stroke-opacity:1"
       d="m 17.197917,216.30208 -2.645833,2.64583"
       id="path5995"
       inkscape:connector-curvature="0" />
    <path
       style="fill:none;stroke:#00ff00;stroke-width:0.26458332px;stroke-linecap:butt;stroke-linejoin:miter;stroke-opacity:1"
       d="m 62.177084,216.30208 2.645833,2.64583"
       id="path5997"
       inkscape:connector-curvature="0" />
    <path
       style="fill:none;stroke:#00ce00;stroke-width:0.26458332px;stroke-linecap:butt;stroke-linejoin:miter;stroke-opacity:1"
       d="m 64.822917,216.30208 -2.645833,2.64583"
       id="path5999"
       inkscape:connector-curvature="0" />
    <path
       style="fill:none;stroke:#00ff00;stroke-width:0.26458332px;stroke-linecap:butt;stroke-linejoin:miter;stroke-opacity:1"
       d="m 111.125,216.30208 -1.32292,1.32291 1.32292,1.32292 1.32292,-1.32292 -1.32292,-1.32291"
       id="path6001"
       inkscape:connector-curvature="0" />
    <path
       style="fill:none;stroke:#00ff00;stroke-width:0.26458332px;stroke-linecap:butt;stroke-linejoin:miter;stroke-opacity:1"
       d="m 158.75,216.30208 -1.32292,1.32291 1.32292,1.32292 1.32291,-1.32292 z"
       id="path6003"
       inkscape:connector-curvature="0" />
    <path
       style="fill:none;stroke:#000000;stroke-width:0.26458332px;stroke-linecap:butt;stroke-linejoin:miter;stroke-opacity:1"
       d="m 27.252083,7.0166656 1.852083,6.3499994 3.96875,1.322917 5.820834,-3.175 3.439583,3.175 -3.175,5.55625 2.116666,4.233333 6.35,2.116667 v 3.968751 L 41.539583,32.416667 39.6875,37.44375 42.862499,43 39.6875,46.175 l -5.291667,-2.910417 -5.291667,2.38125 -1.5875,6.085417 h -4.233333 l -1.5875,-6.085417 -5.291667,-2.116667 -5.556249,3.175 -3.1750004,-3.175 L 11.1125,37.972917 8.9958332,32.945833 2.6458333,31.09375 v -4.233335 l 6.6145833,-1.5875 1.8520834,-4.7625 -3.1750001,-5.820833 2.9104171,-2.910416 6.085416,3.174999 4.233333,-1.852083 1.852084,-6.3499998 h 3.96875 z"
       id="path876"
       inkscape:connector-curvature="0" />
    <path
       inkscape:connector-curvature="0"
       id="path878"
       d="m 27.252083,7.0166656 1.852083,6.3499994 3.96875,1.322917 5.820834,-3.175 3.439583,3.175 -3.175,5.55625 2.116666,4.233333 6.35,2.116667 v 3.968751 L 41.539583,32.416667 39.6875,37.44375 42.862499,43 39.6875,46.175 l -5.291667,-2.910417 -5.291667,2.38125 -1.5875,6.085417 h -4.233333 l -1.5875,-6.085417 -5.291667,-2.116667 -5.556249,3.175 -3.1750004,-3.175 L 11.1125,37.972917 8.9958332,32.945833 2.6458333,31.09375 v -4.233335 l 6.6145833,-1.5875 1.8520834,-4.7625 -3.1750001,-5.820833 2.9104171,-2.910416 6.085416,3.174999 4.233333,-1.852083 1.852084,-6.3499998 h 3.96875 z"
       style="fill:none;stroke:#000000;stroke-width:0.26458332px;stroke-linecap:butt;stroke-linejoin:miter;stroke-opacity:1" />
    <path
       id="path884"
       style="fill:none;stroke:#00f600;stroke-width:0.26458332px;stroke-linecap:butt;stroke-linejoin:miter;stroke-opacity:1"
       d="m 11.112501,20.510404 -1.5875035,-7.14375 7.4083365,1.852083 m -7.6729195,10.054167 -6.3500002,3.96875 6.3500002,3.704168 m 1.8520865,5.291666 -1.5875035,6.879167 6.8791695,-1.852083 m 5.291667,2.381249 3.704167,5.820834 3.704166,-5.820834 m 10.583334,-8.202083 1.587499,7.14375 -6.879166,-1.5875 M 41.275,24.743737 47.360417,28.712487 41.275,32.416654 m -7.937499,-17.4625 7.143749,-1.5875 -1.587499,6.614583 m -17.727083,-6.614582 3.96875,-6.3500007 3.96875,6.3500007 m -13.229167,9.260416 v 2.645834"
       inkscape:connector-curvature="0" />
    <path
       inkscape:connector-curvature="0"
       id="path886"
       d="m 27.252083,7.0166656 1.852083,6.3499994 3.96875,1.322917 5.820834,-3.175 3.439583,3.175 -3.175,5.55625 2.116666,4.233333 6.35,2.116667 v 3.968751 L 41.539583,32.416667 39.6875,37.44375 42.862499,43 39.6875,46.175 l -5.291667,-2.910417 -5.291667,2.38125 -1.5875,6.085417 h -4.233333 l -1.5875,-6.085417 -5.291667,-2.116667 -5.556249,3.175 -3.1750004,-3.175 L 11.1125,37.972917 8.9958332,32.945833 2.6458333,31.09375 v -4.233335 l 6.6145833,-1.5875 1.8520834,-4.7625 -3.1750001,-5.820833 2.9104171,-2.910416 6.085416,3.174999 4.233333,-1.852083 1.852084,-6.3499998 h 3.96875 z"
       style="fill:none;stroke:#000000;stroke-width:0.26458332px;stroke-linecap:butt;stroke-linejoin:miter;stroke-opacity:1" />
    <path
       style="fill:none;stroke:#000000;stroke-width:0.26458332px;stroke-linecap:butt;stroke-linejoin:miter;stroke-opacity:1"
       d="m 74.877082,7.2812515 1.852083,6.3499985 3.96875,1.322917 5.820834,-3.175 3.439583,3.175 -3.175,5.55625 2.116666,4.233333 6.35,2.116667 v 3.968751 l -6.085416,1.852084 -1.852083,5.027083 3.174999,5.55625 -3.174999,3.175 -5.291667,-2.910417 -5.291667,2.38125 -1.5875,6.085417 h -4.233333 l -1.5875,-6.085417 -5.291667,-2.116667 -5.556249,3.175 -3.175,-3.175 3.439583,-5.556249 -2.116666,-5.027084 -6.35,-1.852083 V 27.125 l 6.614583,-1.5875 1.852083,-4.7625 -3.175,-5.820833 2.910417,-2.910416 6.085416,3.174999 4.233333,-1.852083 1.852084,-6.3499989 h 3.96875 z"
       id="path888"
       inkscape:connector-curvature="0" />
    <path
       inkscape:connector-curvature="0"
       id="path890"
       d="m 170.12708,6.2229178 1.85209,6.3499982 3.96875,1.322917 5.82083,-3.175 3.43958,3.175 -3.175,5.55625 2.11667,4.233333 6.35,2.116667 v 3.968751 l -6.08542,1.852084 -1.85208,5.027083 3.175,5.55625 -3.175,3.175 -5.29167,-2.910417 -5.29166,2.38125 -1.5875,6.085417 h -4.23334 l -1.5875,-6.085417 -5.29166,-2.116667 -5.55625,3.175 -3.175,-3.175 3.43958,-5.556249 -2.11667,-5.027084 -6.35,-1.852083 v -4.233335 l 6.61459,-1.5875 1.85208,-4.7625 -3.175,-5.820833 2.91042,-2.910416 6.08541,3.174999 4.23334,-1.852083 1.85208,-6.3499986 h 3.96875 z"
       style="fill:none;stroke:#000000;stroke-width:0.26458332px;stroke-linecap:butt;stroke-linejoin:miter;stroke-opacity:1" />
    <path
       style="fill:none;stroke:#000000;stroke-width:0.26458332px;stroke-linecap:butt;stroke-linejoin:miter;stroke-opacity:1"
       d="m 163.77709,61.25625 1.85208,-5.027083 0.79375,-1.322917 h 2.64583 l 1.05834,1.322917 1.5875,5.027083 4.23333,1.5875 5.02708,-2.645833 h 1.05833 l 2.38125,2.116666 v 1.5875 L 181.76875,68.4 l 2.11667,4.497917 5.02708,1.5875 1.05833,0.79375 0.26459,2.910418 -1.32292,0.79375 -4.7625,1.5875 -1.85208,5.027083 2.64583,4.497916 v 1.5875 l -1.85208,2.116667 h -1.5875 l -4.49792,-2.38125 -5.29166,2.38125 -1.32292,5.027083 -1.05833,1.058334 h -2.64584 l -1.05833,-0.79375 -1.32292,-5.027084 -5.29166,-2.38125 -4.49792,2.645834 -1.85208,-0.264584 -1.5875,-1.5875 v -1.852083 l 2.64583,-4.497916 -2.11667,-5.027084 -4.7625,-1.322916 -1.5875,-1.5875 v -2.38125 l 1.5875,-1.058335 5.02709,-1.322917 1.85208,-4.7625 -2.38125,-4.497916 V 62.05 l 1.5875,-1.5875 1.85208,0.264584 4.49792,2.381249 z"
       id="path894"
       inkscape:connector-curvature="0" />
    <path
       style="fill:none;stroke:#000000;stroke-width:0.26458332px;stroke-linecap:butt;stroke-linejoin:miter;stroke-opacity:1"
       d="m 122.50208,6.2229185 1.85209,6.3499985 3.96875,1.322917 5.82083,-3.175 3.43958,3.175 -3.175,5.55625 2.11667,4.233333 6.35,2.116667 v 3.968751 l -6.08542,1.852084 -1.85208,5.027083 3.175,5.55625 -3.175,3.175 -5.29167,-2.910417 -5.29166,2.38125 -1.5875,6.085417 h -4.23334 l -1.5875,-6.085417 -5.29166,-2.116667 -5.55625,3.175 -3.175,-3.175 3.43958,-5.556249 -2.11667,-5.027084 -6.350003,-1.852083 v -4.233335 l 6.614593,-1.5875 1.85208,-4.7625 -3.175,-5.820833 2.91042,-2.910416 6.08541,3.174999 4.23334,-1.852083 1.85208,-6.3499989 h 3.96875 z"
       id="path896"
       inkscape:connector-curvature="0" />
    <path
       inkscape:connector-curvature="0"
       id="path900"
       d="m 116.68125,61.25625 1.85208,-5.027083 0.79375,-1.322917 h 2.64583 l 1.05834,1.322917 1.5875,5.027083 4.23333,1.5875 5.02708,-2.645833 h 1.05833 l 2.38125,2.116666 v 1.5875 L 134.67291,68.4 l 2.11667,4.497917 5.02708,1.5875 1.05833,0.79375 0.26459,2.910418 -1.32292,0.79375 -4.7625,1.5875 -1.85208,5.027083 2.64583,4.497916 v 1.5875 l -1.85208,2.116667 h -1.5875 l -4.49792,-2.38125 -5.29166,2.38125 -1.32292,5.027083 -1.05833,1.058337 h -2.64584 l -1.05833,-0.793753 -1.32292,-5.027084 -5.29166,-2.38125 -4.49792,2.645834 -1.85208,-0.264584 -1.5875,-1.5875 v -1.852083 l 2.64583,-4.497916 -2.11667,-5.027084 -4.7625,-1.322916 -1.5875,-1.5875 v -2.38125 l 1.5875,-1.058335 5.02709,-1.322917 1.85208,-4.7625 -2.38125,-4.497916 V 62.05 l 1.5875,-1.5875 1.85208,0.264584 4.49792,2.381249 z"
       style="fill:none;stroke:#000000;stroke-width:0.26458332px;stroke-linecap:butt;stroke-linejoin:miter;stroke-opacity:1" />
    <path
       style="fill:none;stroke:#000000;stroke-width:0.26458332px;stroke-linecap:butt;stroke-linejoin:miter;stroke-opacity:1"
       d="m 68.791673,61.25625 1.85208,-5.027083 0.79375,-1.322917 h 2.64583 l 1.05834,1.322917 1.5875,5.027083 4.23333,1.5875 5.02708,-2.645833 h 1.05833 l 2.38125,2.116666 v 1.5875 L 86.783333,68.4 l 2.11667,4.497917 5.02708,1.5875 1.05833,0.79375 0.26459,2.910418 -1.32292,0.79375 -4.7625,1.5875 -1.85208,5.027083 2.64583,4.497916 v 1.5875 l -1.85208,2.116667 h -1.5875 l -4.49792,-2.38125 -5.29166,2.38125 -1.32292,5.027083 -1.05833,1.058334 h -2.64584 l -1.05833,-0.79375 -1.32292,-5.027084 -5.29166,-2.38125 -4.49792,2.645834 -1.85208,-0.264584 -1.5875,-1.5875 v -1.852083 l 2.64583,-4.497916 -2.11667,-5.027084 -4.7625,-1.322916 -1.5875,-1.5875 v -2.38125 l 1.5875,-1.058335 5.02709,-1.322917 1.85208,-4.7625 -2.38125,-4.497916 V 62.05 l 1.5875,-1.5875 1.85208,0.264584 4.49792,2.381249 z"
       id="path902"
       inkscape:connector-curvature="0" />
    <path
       inkscape:connector-curvature="0"
       id="path906"
       d="m 21.16667,61.25625 1.85208,-5.027083 0.79375,-1.322917 h 2.64583 l 1.05834,1.322917 1.5875,5.027083 4.23333,1.5875 5.02708,-2.645833 h 1.05833 l 2.38125,2.116666 v 1.5875 L 39.15833,68.4 l 2.11667,4.497917 5.02708,1.5875 1.05833,0.79375 0.26459,2.910418 -1.32292,0.79375 -4.7625,1.5875 -1.85208,5.027083 2.64583,4.497916 v 1.5875 l -1.85208,2.116667 h -1.5875 l -4.49792,-2.38125 -5.29166,2.38125 -1.32292,5.027083 -1.05833,1.058334 h -2.64584 l -1.05833,-0.79375 -1.32292,-5.027084 -5.29166,-2.38125 -4.49792,2.645834 -1.85208,-0.264584 -1.5874997,-1.5875 V 90.625001 L 11.1125,86.127085 8.9958303,81.100001 l -4.7625,-1.322916 -1.5875,-1.5875 v -2.38125 L 4.2333303,74.75 9.2604203,73.427083 11.1125,68.664583 8.7312503,64.166667 V 62.05 l 1.5874997,-1.5875 1.85208,0.264584 4.49792,2.381249 z"
       style="fill:none;stroke:#000000;stroke-width:0.26458332px;stroke-linecap:butt;stroke-linejoin:miter;stroke-opacity:1" />
    <path
       style="fill:none;stroke:#000000;stroke-width:0.26458332px;stroke-linecap:butt;stroke-linejoin:miter;stroke-opacity:1"
       d="m 21.16667,108.88125 1.85208,-5.02709 0.79375,-1.32291 h 2.64583 l 1.05834,1.32291 1.5875,5.02709 4.23333,1.5875 5.02708,-2.64584 h 1.05833 l 2.38125,2.11667 v 1.5875 l -2.64583,4.49792 2.11667,4.49791 5.02708,1.5875 1.05833,0.79375 0.26459,2.91042 -1.32292,0.79375 -4.7625,1.5875 -1.85208,5.02708 2.64583,4.49792 v 1.5875 l -1.85208,2.11667 h -1.5875 l -4.49792,-2.38125 -5.29166,2.38125 -1.32292,5.02708 -1.05833,1.05833 h -2.64584 l -1.05833,-0.79375 -1.32292,-5.02708 -5.29166,-2.38125 -4.49792,2.64583 -1.85208,-0.26458 -1.5874994,-1.5875 V 138.25 L 11.1125,133.75208 8.9958306,128.725 l -4.7625,-1.32292 -1.5875,-1.5875 v -2.38125 l 1.5875,-1.05833 5.02709,-1.32292 1.8520794,-4.7625 -2.3812494,-4.49792 V 109.675 l 1.5874994,-1.5875 1.85208,0.26458 4.49792,2.38125 z"
       id="path908"
       inkscape:connector-curvature="0" />
    <path
       inkscape:connector-curvature="0"
       id="path910"
       d="m 68.79167,108.88125 1.85208,-5.02709 0.79375,-1.32291 h 2.64583 l 1.05834,1.32291 1.5875,5.02709 4.23333,1.5875 5.02708,-2.64584 h 1.05833 l 2.38125,2.11667 v 1.5875 l -2.64583,4.49792 2.11667,4.49791 5.02708,1.5875 1.05833,0.79375 0.26459,2.91042 -1.32292,0.79375 -4.7625,1.5875 -1.85208,5.02708 2.64583,4.49792 v 1.5875 l -1.85208,2.11667 h -1.5875 l -4.49792,-2.38125 -5.29166,2.38125 -1.32292,5.02708 -1.05833,1.05833 h -2.64584 l -1.05833,-0.79375 -1.32292,-5.02708 -5.29166,-2.38125 -4.49792,2.64583 -1.85208,-0.26458 -1.587499,-1.5875 V 138.25 l 2.645829,-4.49792 -2.116669,-5.02708 -4.7625,-1.32292 -1.5875,-1.5875 v -2.38125 l 1.5875,-1.05833 5.02709,-1.32292 1.852079,-4.7625 -2.381249,-4.49792 V 109.675 l 1.587499,-1.5875 1.85208,0.26458 4.49792,2.38125 z"
       style="fill:none;stroke:#000000;stroke-width:0.26458332px;stroke-linecap:butt;stroke-linejoin:miter;stroke-opacity:1" />
    <path
       style="fill:none;stroke:#000000;stroke-width:0.26458332px;stroke-linecap:butt;stroke-linejoin:miter;stroke-opacity:1"
       d="m 116.41667,108.88125 1.85208,-5.02709 0.79375,-1.32291 h 2.64583 l 1.05834,1.32291 1.5875,5.02709 4.23333,1.5875 5.02708,-2.64584 h 1.05833 l 2.38125,2.11667 v 1.5875 l -2.64583,4.49792 2.11667,4.49791 5.02708,1.5875 1.05833,0.79375 0.26459,2.91042 -1.32292,0.79375 -4.7625,1.5875 -1.85208,5.02708 2.64583,4.49792 v 1.5875 l -1.85208,2.11667 h -1.5875 l -4.49792,-2.38125 -5.29166,2.38125 -1.32292,5.02708 -1.05833,1.05833 h -2.64584 l -1.05833,-0.79375 -1.32292,-5.02708 -5.29166,-2.38125 -4.49792,2.64583 -1.85208,-0.26458 -1.5875,-1.5875 V 138.25 l 2.64583,-4.49792 -2.11667,-5.02708 -4.762499,-1.32292 -1.5875,-1.5875 v -2.38125 l 1.5875,-1.05833 5.027089,-1.32292 1.85208,-4.7625 -2.38125,-4.49792 V 109.675 l 1.5875,-1.5875 1.85208,0.26458 4.49792,2.38125 z"
       id="path912"
       inkscape:connector-curvature="0" />
    <path
       inkscape:connector-curvature="0"
       id="path914"
       d="m 164.04167,108.88125 1.85208,-5.02709 0.79375,-1.32291 h 2.64583 l 1.05834,1.32291 1.5875,5.02709 4.23333,1.5875 5.02708,-2.64584 h 1.05833 l 2.38125,2.11667 v 1.5875 l -2.64583,4.49792 2.11667,4.49791 5.02708,1.5875 1.05833,0.79375 0.26459,2.91042 -1.32292,0.79375 -4.7625,1.5875 -1.85208,5.02708 2.64583,4.49792 v 1.5875 l -1.85208,2.11667 h -1.5875 l -4.49792,-2.38125 -5.29166,2.38125 -1.32292,5.02708 -1.05833,1.05833 h -2.64584 l -1.05833,-0.79375 -1.32292,-5.02708 -5.29166,-2.38125 -4.49792,2.64583 -1.85208,-0.26458 -1.5875,-1.5875 V 138.25 l 2.64583,-4.49792 -2.11667,-5.02708 -4.7625,-1.32292 -1.5875,-1.5875 v -2.38125 l 1.5875,-1.05833 5.02709,-1.32292 1.85208,-4.7625 -2.38125,-4.49792 V 109.675 l 1.5875,-1.5875 1.85208,0.26458 4.49792,2.38125 z"
       style="fill:none;stroke:#000000;stroke-width:0.26458332px;stroke-linecap:butt;stroke-linejoin:miter;stroke-opacity:1" />
    <path
       style="fill:none;stroke:#000000;stroke-width:0.26458332px;stroke-linecap:butt;stroke-linejoin:miter;stroke-opacity:1"
       d="m 164.04167,156.50625 1.85208,-5.02709 0.79375,-1.32291 h 2.64583 l 1.05834,1.32291 1.5875,5.02709 4.23333,1.5875 5.02708,-2.64584 h 1.05833 l 2.38125,2.11667 v 1.5875 l -2.64583,4.49792 2.11667,4.49791 5.02708,1.5875 1.05833,0.79375 0.26459,2.91042 -1.32292,0.79375 -4.7625,1.5875 -1.85208,5.02708 2.64583,4.49792 v 1.5875 l -1.85208,2.11667 h -1.5875 l -4.49792,-2.38125 -5.29166,2.38125 -1.32292,5.02708 -1.05833,1.05833 h -2.64584 l -1.05833,-0.79375 -1.32292,-5.02708 -5.29166,-2.38125 -4.49792,2.64583 -1.85208,-0.26458 -1.5875,-1.5875 V 185.875 l 2.64583,-4.49792 -2.11667,-5.02708 -4.7625,-1.32292 -1.5875,-1.5875 v -2.38125 l 1.5875,-1.05833 5.02709,-1.32292 1.85208,-4.7625 -2.38125,-4.49792 V 157.3 l 1.5875,-1.5875 1.85208,0.26458 4.49792,2.38125 z"
       id="path916"
       inkscape:connector-curvature="0" />
    <path
       inkscape:connector-curvature="0"
       id="path918"
       d="m 116.41667,156.50625 1.85208,-5.02709 0.79375,-1.32291 h 2.64583 l 1.05834,1.32291 1.5875,5.02709 4.23333,1.5875 5.02708,-2.64584 h 1.05833 l 2.38125,2.11667 v 1.5875 l -2.64583,4.49792 2.11667,4.49791 5.02708,1.5875 1.05833,0.79375 0.26459,2.91042 -1.32292,0.79375 -4.7625,1.5875 -1.85208,5.02708 2.64583,4.49792 v 1.5875 l -1.85208,2.11667 h -1.5875 l -4.49792,-2.38125 -5.29166,2.38125 -1.32292,5.02708 -1.05833,1.05833 h -2.64584 l -1.05833,-0.79375 -1.32292,-5.02708 -5.29166,-2.38125 -4.49792,2.64583 -1.85208,-0.26458 -1.5875,-1.5875 V 185.875 l 2.64583,-4.49792 -2.11667,-5.02708 -4.7625,-1.32292 -1.5875,-1.5875 v -2.38125 L 99.48333,170 l 5.02709,-1.32292 1.85208,-4.7625 -2.38125,-4.49792 V 157.3 l 1.5875,-1.5875 1.85208,0.26458 4.49792,2.38125 z"
       style="fill:none;stroke:#000000;stroke-width:0.26458332px;stroke-linecap:butt;stroke-linejoin:miter;stroke-opacity:1" />
    <path
       style="fill:none;stroke:#000000;stroke-width:0.26458332px;stroke-linecap:butt;stroke-linejoin:miter;stroke-opacity:1"
       d="m 68.791667,156.50626 1.85208,-5.02709 0.79375,-1.32291 h 2.64583 l 1.05834,1.32291 1.5875,5.02709 4.23333,1.5875 5.02708,-2.64584 h 1.05833 l 2.38125,2.11667 v 1.5875 l -2.64583,4.49792 2.11667,4.49791 5.02708,1.5875 1.05833,0.79375 0.26459,2.91042 -1.32292,0.79375 -4.7625,1.5875 -1.85208,5.02708 2.64583,4.49792 v 1.5875 l -1.85208,2.11667 h -1.5875 l -4.49792,-2.38125 -5.29166,2.38125 -1.32292,5.02708 -1.05833,1.05833 h -2.64584 l -1.05833,-0.79375 -1.32292,-5.02708 -5.29166,-2.38125 -4.49792,2.64583 -1.85208,-0.26458 -1.5875,-1.5875 v -1.85208 l 2.64583,-4.49792 -2.11667,-5.02708 -4.7625,-1.32292 -1.5875,-1.5875 v -2.38125 l 1.5875,-1.05833 5.02709,-1.32292 1.85208,-4.7625 -2.38125,-4.49792 v -2.11666 l 1.5875,-1.5875 1.85208,0.26458 4.49792,2.38125 z"
       id="path920"
       inkscape:connector-curvature="0" />
    <path
       inkscape:connector-curvature="0"
       id="path922"
       d="m 21.166673,156.50625 1.85208,-5.02709 0.79375,-1.32291 h 2.64583 l 1.05834,1.32291 1.5875,5.02709 4.23333,1.5875 5.02708,-2.64584 h 1.05833 l 2.38125,2.11667 v 1.5875 l -2.64583,4.49792 2.11667,4.49791 5.02708,1.5875 1.05833,0.79375 0.26459,2.91042 -1.32292,0.79375 -4.7625,1.5875 -1.85208,5.02708 2.64583,4.49792 v 1.5875 l -1.85208,2.11667 h -1.5875 l -4.49792,-2.38125 -5.29166,2.38125 -1.32292,5.02708 -1.05833,1.05833 h -2.64584 l -1.05833,-0.79375 -1.32292,-5.02708 -5.29166,-2.38125 -4.49792,2.64583 -1.85208,-0.26458 -1.5874994,-1.5875 V 185.875 l 2.6458294,-4.49792 -2.1166694,-5.02708 -4.7625,-1.32292 -1.5875,-1.5875 v -2.38125 l 1.5875,-1.05833 5.02709,-1.32292 1.8520794,-4.7625 -2.3812494,-4.49792 V 157.3 l 1.5874994,-1.5875 1.85208,0.26458 4.49792,2.38125 z"
       style="fill:none;stroke:#000000;stroke-width:0.26458332px;stroke-linecap:butt;stroke-linejoin:miter;stroke-opacity:1" />
    <path
       style="fill:none;stroke:#000000;stroke-width:0.26458332px;stroke-linecap:butt;stroke-linejoin:miter;stroke-opacity:1"
       d="m 21.16667,206.77708 1.85208,-5.02709 0.79375,-1.32291 h 2.64583 l 1.05834,1.32291 1.5875,5.02709 4.23333,1.5875 5.02708,-2.64584 h 1.05833 l 2.38125,2.11667 v 1.5875 l -2.64583,4.49792 2.11667,4.49791 5.02708,1.5875 1.05833,0.79375 0.26459,2.91042 -1.32292,0.79375 -4.7625,1.5875 -1.85208,5.02708 2.64583,4.49792 v 1.5875 l -1.85208,2.11667 h -1.5875 l -4.49792,-2.38125 -5.29166,2.38125 -1.32292,5.02708 -1.05833,1.05833 h -2.64584 l -1.05833,-0.79375 -1.32292,-5.02708 -5.29166,-2.38125 -4.49792,2.64583 -1.85208,-0.26458 -1.5874994,-1.5875 v -1.85208 l 2.6458294,-4.49792 -2.1166694,-5.02708 -4.7625,-1.32292 -1.5875,-1.5875 v -2.38125 l 1.5875,-1.05833 5.02709,-1.32292 1.8520794,-4.7625 -2.3812494,-4.49792 v -2.11666 l 1.5874994,-1.5875 1.85208,0.26458 4.49792,2.38125 z"
       id="path924"
       inkscape:connector-curvature="0" />
    <path
       inkscape:connector-curvature="0"
       id="path926"
       d="m 68.79167,206.77709 1.85208,-5.02709 0.79375,-1.32291 h 2.64583 l 1.05834,1.32291 1.5875,5.02709 4.23333,1.5875 5.02708,-2.64584 h 1.05833 l 2.38125,2.11667 v 1.5875 l -2.64583,4.49792 2.11667,4.49791 5.02708,1.5875 1.05833,0.79375 0.26459,2.91042 -1.32292,0.79375 -4.7625,1.5875 -1.85208,5.02708 2.64583,4.49792 v 1.5875 l -1.85208,2.11667 h -1.5875 l -4.49792,-2.38125 -5.29166,2.38125 -1.32292,5.02708 -1.05833,1.05833 h -2.64584 l -1.05833,-0.79375 -1.32292,-5.02708 -5.29166,-2.38125 -4.49792,2.64583 -1.85208,-0.26458 -1.587499,-1.5875 v -1.85208 l 2.645829,-4.49792 -2.116669,-5.02708 -4.7625,-1.32292 -1.5875,-1.5875 v -2.38125 l 1.5875,-1.05833 5.02709,-1.32292 1.852079,-4.7625 -2.381249,-4.49792 v -2.11666 l 1.587499,-1.5875 1.85208,0.26458 4.49792,2.38125 z"
       style="fill:none;stroke:#000000;stroke-width:0.26458332px;stroke-linecap:butt;stroke-linejoin:miter;stroke-opacity:1" />
    <path
       style="fill:none;stroke:#000000;stroke-width:0.26458332px;stroke-linecap:butt;stroke-linejoin:miter;stroke-opacity:1"
       d="m 116.41667,206.77708 1.85208,-5.02709 0.79375,-1.32291 h 2.64583 l 1.05834,1.32291 1.5875,5.02709 4.23333,1.5875 5.02708,-2.64584 h 1.05833 l 2.38125,2.11667 v 1.5875 l -2.64583,4.49792 2.11667,4.49791 5.02708,1.5875 1.05833,0.79375 0.26459,2.91042 -1.32292,0.79375 -4.7625,1.5875 -1.85208,5.02708 2.64583,4.49792 v 1.5875 l -1.85208,2.11667 h -1.5875 l -4.49792,-2.38125 -5.29166,2.38125 -1.32292,5.02708 -1.05833,1.05833 h -2.64584 l -1.05833,-0.79375 -1.32292,-5.02708 -5.29166,-2.38125 -4.49792,2.64583 -1.85208,-0.26458 -1.5875,-1.5875 v -1.85208 l 2.64583,-4.49792 -2.11667,-5.02708 -4.762493,-1.32292 -1.5875,-1.5875 v -2.38125 l 1.5875,-1.05833 5.027083,-1.32292 1.85208,-4.7625 -2.38125,-4.49792 v -2.11666 l 1.5875,-1.5875 1.85208,0.26458 4.49792,2.38125 z"
       id="path928"
       inkscape:connector-curvature="0" />
    <path
       inkscape:connector-curvature="0"
       id="path930"
       d="m 164.04167,206.77709 1.85208,-5.02709 0.79375,-1.32291 h 2.64583 l 1.05834,1.32291 1.5875,5.02709 4.23333,1.5875 5.02708,-2.64584 h 1.05833 l 2.38125,2.11667 v 1.5875 l -2.64583,4.49792 2.11667,4.49791 5.02708,1.5875 1.05833,0.79375 0.26459,2.91042 -1.32292,0.79375 -4.7625,1.5875 -1.85208,5.02708 2.64583,4.49792 v 1.5875 l -1.85208,2.11667 h -1.5875 l -4.49792,-2.38125 -5.29166,2.38125 -1.32292,5.02708 -1.05833,1.05833 h -2.64584 l -1.05833,-0.79375 -1.32292,-5.02708 -5.29166,-2.38125 -4.49792,2.64583 -1.85208,-0.26458 -1.5875,-1.5875 v -1.85208 l 2.64583,-4.49792 -2.11667,-5.02708 -4.76249,-1.32292 -1.5875,-1.5875 v -2.38125 l 1.5875,-1.05833 5.02708,-1.32292 1.85208,-4.7625 -2.38125,-4.49792 v -2.11666 l 1.5875,-1.5875 1.85208,0.26458 4.49792,2.38125 z"
       style="fill:none;stroke:#000000;stroke-width:0.26458332px;stroke-linecap:butt;stroke-linejoin:miter;stroke-opacity:1" />
    <ellipse
       ry="0.66145831"
       rx="1.3229166"
       cy="76.734375"
       cx="25.135416"
       id="ellipse1065"
       style="opacity:0;fill:#00ff00;stroke:#00ff00;stroke-width:0.26458332;stroke-opacity:1" />
    <path
       style="fill:none;stroke:#000000;stroke-width:0.26458332px;stroke-linecap:butt;stroke-linejoin:miter;stroke-opacity:1"
       d="m 23.8125,28.447918 2.645833,2.645833"
       id="path1073"
       inkscape:connector-curvature="0" />
    <path
       style="fill:none;stroke:#000000;stroke-width:0.26458332px;stroke-linecap:butt;stroke-linejoin:miter;stroke-opacity:1"
       d="M 26.458333,28.447918 23.8125,31.093751"
       id="path1075"
       inkscape:connector-curvature="0" />
    <path
       inkscape:connector-curvature="0"
       id="path1079"
       d="m 23.8125,76.072917 2.645833,2.645833"
       style="fill:none;stroke:#000000;stroke-width:0.26458332px;stroke-linecap:butt;stroke-linejoin:miter;stroke-opacity:1" />
    <path
       inkscape:connector-curvature="0"
       id="path1081"
       d="M 26.458333,76.072917 23.8125,78.71875"
       style="fill:none;stroke:#000000;stroke-width:0.26458332px;stroke-linecap:butt;stroke-linejoin:miter;stroke-opacity:1" />
    <path
       style="fill:none;stroke:#000000;stroke-width:0.26458332px;stroke-linecap:butt;stroke-linejoin:miter;stroke-opacity:1"
       d="m 23.8125,123.69792 2.645833,2.64583"
       id="path1083"
       inkscape:connector-curvature="0" />
    <path
       style="fill:none;stroke:#000000;stroke-width:0.26458332px;stroke-linecap:butt;stroke-linejoin:miter;stroke-opacity:1"
       d="M 26.458333,123.69792 23.8125,126.34375"
       id="path1085"
       inkscape:connector-curvature="0" />
    <path
       inkscape:connector-curvature="0"
       id="path1087"
       d="m 23.8125,171.32292 2.645833,2.64583"
       style="fill:none;stroke:#000000;stroke-width:0.26458332px;stroke-linecap:butt;stroke-linejoin:miter;stroke-opacity:1" />
    <path
       inkscape:connector-curvature="0"
       id="path1089"
       d="M 26.458333,171.32292 23.8125,173.96875"
       style="fill:none;stroke:#000000;stroke-width:0.26458332px;stroke-linecap:butt;stroke-linejoin:miter;stroke-opacity:1" />
    <path
       style="fill:none;stroke:#000000;stroke-width:0.26458332px;stroke-linecap:butt;stroke-linejoin:miter;stroke-opacity:1"
       d="m 23.8125,221.59375 2.645833,2.64583"
       id="path1091"
       inkscape:connector-curvature="0" />
    <path
       style="fill:none;stroke:#000000;stroke-width:0.26458332px;stroke-linecap:butt;stroke-linejoin:miter;stroke-opacity:1"
       d="M 26.458333,221.59375 23.8125,224.23958"
       id="path1093"
       inkscape:connector-curvature="0" />
    <path
       inkscape:connector-curvature="0"
       id="path1095"
       d="m 71.4375,221.59375 2.645833,2.64583"
       style="fill:none;stroke:#000000;stroke-width:0.26458332px;stroke-linecap:butt;stroke-linejoin:miter;stroke-opacity:1" />
    <path
       inkscape:connector-curvature="0"
       id="path1097"
       d="M 74.083333,221.59375 71.4375,224.23958"
       style="fill:none;stroke:#000000;stroke-width:0.26458332px;stroke-linecap:butt;stroke-linejoin:miter;stroke-opacity:1" />
    <path
       style="fill:none;stroke:#000000;stroke-width:0.26458332px;stroke-linecap:butt;stroke-linejoin:miter;stroke-opacity:1"
       d="m 119.0625,221.59375 2.64583,2.64583"
       id="path1099"
       inkscape:connector-curvature="0" />
    <path
       style="fill:none;stroke:#000000;stroke-width:0.26458332px;stroke-linecap:butt;stroke-linejoin:miter;stroke-opacity:1"
       d="m 121.70833,221.59375 -2.64583,2.64583"
       id="path1101"
       inkscape:connector-curvature="0" />
    <path
       inkscape:connector-curvature="0"
       id="path1103"
       d="m 166.6875,221.59375 2.64583,2.64583"
       style="fill:none;stroke:#000000;stroke-width:0.26458332px;stroke-linecap:butt;stroke-linejoin:miter;stroke-opacity:1" />
    <path
       inkscape:connector-curvature="0"
       id="path1105"
       d="m 169.33333,221.59375 -2.64583,2.64583"
       style="fill:none;stroke:#000000;stroke-width:0.26458332px;stroke-linecap:butt;stroke-linejoin:miter;stroke-opacity:1" />
    <path
       style="fill:none;stroke:#000000;stroke-width:0.26458332px;stroke-linecap:butt;stroke-linejoin:miter;stroke-opacity:1"
       d="m 166.6875,171.32292 2.64583,2.64583"
       id="path1107"
       inkscape:connector-curvature="0" />
    <path
       style="fill:none;stroke:#000000;stroke-width:0.26458332px;stroke-linecap:butt;stroke-linejoin:miter;stroke-opacity:1"
       d="m 169.33333,171.32292 -2.64583,2.64583"
       id="path1109"
       inkscape:connector-curvature="0" />
    <path
       inkscape:connector-curvature="0"
       id="path1111"
       d="m 119.0625,171.32292 2.64583,2.64583"
       style="fill:none;stroke:#000000;stroke-width:0.26458332px;stroke-linecap:butt;stroke-linejoin:miter;stroke-opacity:1" />
    <path
       inkscape:connector-curvature="0"
       id="path1113"
       d="m 121.70833,171.32292 -2.64583,2.64583"
       style="fill:none;stroke:#000000;stroke-width:0.26458332px;stroke-linecap:butt;stroke-linejoin:miter;stroke-opacity:1" />
    <path
       style="fill:none;stroke:#000000;stroke-width:0.26458332px;stroke-linecap:butt;stroke-linejoin:miter;stroke-opacity:1"
       d="m 71.4375,171.32292 2.64583,2.64583"
       id="path1115"
       inkscape:connector-curvature="0" />
    <path
       style="fill:none;stroke:#000000;stroke-width:0.26458332px;stroke-linecap:butt;stroke-linejoin:miter;stroke-opacity:1"
       d="m 74.08333,171.32292 -2.64583,2.64583"
       id="path1117"
       inkscape:connector-curvature="0" />
    <path
       inkscape:connector-curvature="0"
       id="path1119"
       d="m 71.437503,123.69792 2.64583,2.64583"
       style="fill:none;stroke:#000000;stroke-width:0.26458332px;stroke-linecap:butt;stroke-linejoin:miter;stroke-opacity:1" />
    <path
       inkscape:connector-curvature="0"
       id="path1121"
       d="m 74.083333,123.69792 -2.64583,2.64583"
       style="fill:none;stroke:#000000;stroke-width:0.26458332px;stroke-linecap:butt;stroke-linejoin:miter;stroke-opacity:1" />
    <path
       style="fill:none;stroke:#000000;stroke-width:0.26458332px;stroke-linecap:butt;stroke-linejoin:miter;stroke-opacity:1"
       d="m 71.4375,76.072917 2.64583,2.64583"
       id="path1125"
       inkscape:connector-curvature="0" />
    <path
       style="fill:none;stroke:#000000;stroke-width:0.26458332px;stroke-linecap:butt;stroke-linejoin:miter;stroke-opacity:1"
       d="m 74.08333,76.072917 -2.64583,2.64583"
       id="path1127"
       inkscape:connector-curvature="0" />
    <path
       inkscape:connector-curvature="0"
       id="path1129"
       d="m 71.437503,28.447917 2.64583,2.64583"
       style="fill:none;stroke:#000000;stroke-width:0.26458332px;stroke-linecap:butt;stroke-linejoin:miter;stroke-opacity:1" />
    <path
       inkscape:connector-curvature="0"
       id="path1131"
       d="m 74.083333,28.447917 -2.64583,2.64583"
       style="fill:none;stroke:#000000;stroke-width:0.26458332px;stroke-linecap:butt;stroke-linejoin:miter;stroke-opacity:1" />
    <path
       style="fill:none;stroke:#000000;stroke-width:0.26458332px;stroke-linecap:butt;stroke-linejoin:miter;stroke-opacity:1"
       d="m 71.437503,28.447917 2.64583,2.64583"
       id="path1133"
       inkscape:connector-curvature="0" />
    <path
       style="fill:none;stroke:#000000;stroke-width:0.26458332px;stroke-linecap:butt;stroke-linejoin:miter;stroke-opacity:1"
       d="m 74.083333,28.447917 -2.64583,2.64583"
       id="path1135"
       inkscape:connector-curvature="0" />
    <path
       style="fill:none;stroke:#000000;stroke-width:0.26458332px;stroke-linecap:butt;stroke-linejoin:miter;stroke-opacity:1"
       d="m 119.0625,27.125 2.64583,2.64583"
       id="path1137"
       inkscape:connector-curvature="0" />
    <path
       style="fill:none;stroke:#000000;stroke-width:0.26458332px;stroke-linecap:butt;stroke-linejoin:miter;stroke-opacity:1"
       d="m 121.70833,27.125 -2.64583,2.64583"
       id="path1139"
       inkscape:connector-curvature="0" />
    <path
       inkscape:connector-curvature="0"
       id="path1141"
       d="m 119.0625,27.125 2.64583,2.64583"
       style="fill:none;stroke:#000000;stroke-width:0.26458332px;stroke-linecap:butt;stroke-linejoin:miter;stroke-opacity:1" />
    <path
       inkscape:connector-curvature="0"
       id="path1143"
       d="m 121.70833,27.125 -2.64583,2.64583"
       style="fill:none;stroke:#000000;stroke-width:0.26458332px;stroke-linecap:butt;stroke-linejoin:miter;stroke-opacity:1" />
    <path
       inkscape:connector-curvature="0"
       id="path1145"
       d="m 119.0625,27.125 2.64583,2.64583"
       style="fill:none;stroke:#000000;stroke-width:0.26458332px;stroke-linecap:butt;stroke-linejoin:miter;stroke-opacity:1" />
    <path
       inkscape:connector-curvature="0"
       id="path1147"
       d="m 121.70833,27.125 -2.64583,2.64583"
       style="fill:none;stroke:#000000;stroke-width:0.26458332px;stroke-linecap:butt;stroke-linejoin:miter;stroke-opacity:1" />
    <path
       style="fill:none;stroke:#000000;stroke-width:0.26458332px;stroke-linecap:butt;stroke-linejoin:miter;stroke-opacity:1"
       d="m 119.0625,27.125 2.64583,2.64583"
       id="path1149"
       inkscape:connector-curvature="0" />
    <path
       style="fill:none;stroke:#000000;stroke-width:0.26458332px;stroke-linecap:butt;stroke-linejoin:miter;stroke-opacity:1"
       d="m 121.70833,27.125 -2.64583,2.64583"
       id="path1151"
       inkscape:connector-curvature="0" />
    <path
       inkscape:connector-curvature="0"
       id="path1153"
       d="m 119.0625,27.125 2.64583,2.64583"
       style="fill:none;stroke:#000000;stroke-width:0.26458332px;stroke-linecap:butt;stroke-linejoin:miter;stroke-opacity:1" />
    <path
       inkscape:connector-curvature="0"
       id="path1155"
       d="m 121.70833,27.125 -2.64583,2.64583"
       style="fill:none;stroke:#000000;stroke-width:0.26458332px;stroke-linecap:butt;stroke-linejoin:miter;stroke-opacity:1" />
    <path
       style="fill:none;stroke:#000000;stroke-width:0.26458332px;stroke-linecap:butt;stroke-linejoin:miter;stroke-opacity:1"
       d="m 119.0625,27.125 2.64583,2.64583"
       id="path1157"
       inkscape:connector-curvature="0" />
    <path
       style="fill:none;stroke:#000000;stroke-width:0.26458332px;stroke-linecap:butt;stroke-linejoin:miter;stroke-opacity:1"
       d="m 121.70833,27.125 -2.64583,2.64583"
       id="path1159"
       inkscape:connector-curvature="0" />
    <path
       style="fill:none;stroke:#000000;stroke-width:0.26458332px;stroke-linecap:butt;stroke-linejoin:miter;stroke-opacity:1"
       d="m 119.0625,27.125 2.64583,2.64583"
       id="path1161"
       inkscape:connector-curvature="0" />
    <path
       style="fill:none;stroke:#000000;stroke-width:0.26458332px;stroke-linecap:butt;stroke-linejoin:miter;stroke-opacity:1"
       d="m 121.70833,27.125 -2.64583,2.64583"
       id="path1163"
       inkscape:connector-curvature="0" />
    <path
       inkscape:connector-curvature="0"
       id="path1165"
       d="m 166.6875,27.125003 2.64583,2.64583"
       style="fill:none;stroke:#000000;stroke-width:0.26458332px;stroke-linecap:butt;stroke-linejoin:miter;stroke-opacity:1" />
    <path
       inkscape:connector-curvature="0"
       id="path1167"
       d="m 169.33333,27.125 -2.64583,2.64583"
       style="fill:none;stroke:#000000;stroke-width:0.26458332px;stroke-linecap:butt;stroke-linejoin:miter;stroke-opacity:1" />
    <path
       inkscape:connector-curvature="0"
       id="path1201"
       d="m 119.0625,76.072917 2.64583,2.64583"
       style="fill:none;stroke:#000000;stroke-width:0.26458332px;stroke-linecap:butt;stroke-linejoin:miter;stroke-opacity:1" />
    <path
       inkscape:connector-curvature="0"
       id="path1203"
       d="m 121.70833,76.072917 -2.64583,2.64583"
       style="fill:none;stroke:#000000;stroke-width:0.26458332px;stroke-linecap:butt;stroke-linejoin:miter;stroke-opacity:1" />
    <path
       style="fill:none;stroke:#000000;stroke-width:0.26458332px;stroke-linecap:butt;stroke-linejoin:miter;stroke-opacity:1"
       d="m 119.0625,76.072917 2.64583,2.64583"
       id="path1205"
       inkscape:connector-curvature="0" />
    <path
       style="fill:none;stroke:#000000;stroke-width:0.26458332px;stroke-linecap:butt;stroke-linejoin:miter;stroke-opacity:1"
       d="m 121.70833,76.072917 -2.64583,2.64583"
       id="path1207"
       inkscape:connector-curvature="0" />
    <path
       style="fill:none;stroke:#000000;stroke-width:0.26458332px;stroke-linecap:butt;stroke-linejoin:miter;stroke-opacity:1"
       d="m 119.0625,76.072917 2.64583,2.64583"
       id="path1209"
       inkscape:connector-curvature="0" />
    <path
       style="fill:none;stroke:#000000;stroke-width:0.26458332px;stroke-linecap:butt;stroke-linejoin:miter;stroke-opacity:1"
       d="m 121.70833,76.072917 -2.64583,2.64583"
       id="path1211"
       inkscape:connector-curvature="0" />
    <path
       inkscape:connector-curvature="0"
       id="path1213"
       d="m 166.6875,76.07292 2.64583,2.64583"
       style="fill:none;stroke:#000000;stroke-width:0.26458332px;stroke-linecap:butt;stroke-linejoin:miter;stroke-opacity:1" />
    <path
       inkscape:connector-curvature="0"
       id="path1215"
       d="m 169.33333,76.072917 -2.64583,2.64583"
       style="fill:none;stroke:#000000;stroke-width:0.26458332px;stroke-linecap:butt;stroke-linejoin:miter;stroke-opacity:1" />
    <path
       style="fill:none;stroke:#000000;stroke-width:0.26458332px;stroke-linecap:butt;stroke-linejoin:miter;stroke-opacity:1"
       d="m 166.6875,76.07292 2.64583,2.64583"
       id="path1217"
       inkscape:connector-curvature="0" />
    <path
       style="fill:none;stroke:#000000;stroke-width:0.26458332px;stroke-linecap:butt;stroke-linejoin:miter;stroke-opacity:1"
       d="m 169.33333,76.072917 -2.64583,2.64583"
       id="path1219"
       inkscape:connector-curvature="0" />
    <path
       inkscape:connector-curvature="0"
       id="path1225"
       d="m 166.6875,123.69792 2.64583,2.64583"
       style="fill:none;stroke:#000000;stroke-width:0.26458332px;stroke-linecap:butt;stroke-linejoin:miter;stroke-opacity:1" />
    <path
       inkscape:connector-curvature="0"
       id="path1227"
       d="m 169.33333,123.69792 -2.64583,2.64583"
       style="fill:none;stroke:#000000;stroke-width:0.26458332px;stroke-linecap:butt;stroke-linejoin:miter;stroke-opacity:1" />
    <path
       style="fill:none;stroke:#000000;stroke-width:0.26458332px;stroke-linecap:butt;stroke-linejoin:miter;stroke-opacity:1"
       d="m 119.0625,122.375 2.64583,2.64583"
       id="path1229"
       inkscape:connector-curvature="0" />
    <path
       style="fill:none;stroke:#000000;stroke-width:0.26458332px;stroke-linecap:butt;stroke-linejoin:miter;stroke-opacity:1"
       d="m 121.70833,122.375 -2.64583,2.64583"
       id="path1231"
       inkscape:connector-curvature="0" />
  </g>
</svg>
