  0
SECTION
  2
HEADER
  9
$ACADVER
  1
AC1014
  9
$HANDSEED
  5
FFFF
  9
$MEASUREMENT
 70
     1
  0
ENDSEC
  0
SECTION
  2
TABLES
  0
TABLE
  2
VPORT
  5
8
330
0
100
AcDbSymbolTable
 70
     4
  0
VPORT
  5
2E
330
8
100
AcDbSymbolTableRecord
100
AcDbViewportTableRecord
  2
*ACTIVE
 70
     0
 10
0.0
 20
0.0
 11
1.0
 21
1.0
 12
210.0
 22
148.5
 13
0.0
 23
0.0
 14
10.0
 24
10.0
 15
10.0
 25
10.0
 16
0.0
 26
0.0
 36
1.0
 17
0.0
 27
0.0
 37
0.0
 40
341.0
 41
1.24
 42
50.0
 43
0.0
 44
0.0
 50
0.0
 51
0.0
 71
     0
 72
   100
 73
     1
 74
     3
 75
     0
 76
     0
 77
     0
 78
     0
  0
ENDTAB
  0
TABLE
  2
LTYPE
  5
5
330
0
100
AcDbSymbolTable
 70
     1
  0
LTYPE
  5
14
330
5
100
AcDbSymbolTableRecord
100
AcDbLinetypeTableRecord
  2
BYBLOCK
 70
     0
  3

 72
    65
 73
     0
 40
0.0
  0
LTYPE
  5
15
330
5
100
AcDbSymbolTableRecord
100
AcDbLinetypeTableRecord
  2
BYLAYER
 70
     0
  3

 72
    65
 73
     0
 40
0.0
  0
LTYPE
  5
16
330
5
100
AcDbSymbolTableRecord
100
AcDbLinetypeTableRecord
  2
CONTINUOUS
 70
     0
  3
Solid line
 72
    65
 73
     0
 40
0.0
  0
ENDTAB
  0
TABLE
  2
LAYER
  5
2
100
AcDbSymbolTable
 70
3
  0
LAYER
  5
50
100
AcDbSymbolTableRecord
100
AcDbLayerTableRecord
  2
0
 70
0
  6
CONTINUOUS
  0
LAYER
  5
51
100
AcDbSymbolTableRecord
100
AcDbLayerTableRecord
  2
Layer_2
 70
0
  6
CONTINUOUS
  0
LAYER
  5
52
100
AcDbSymbolTableRecord
100
AcDbLayerTableRecord
  2
Layer_1
 70
0
  6
CONTINUOUS
  0
ENDTAB
  0
TABLE
  2
STYLE
  5
3
330
0
100
AcDbSymbolTable
 70
     1
  0
STYLE
  5
11
330
3
100
AcDbSymbolTableRecord
100
AcDbTextStyleTableRecord
  2
STANDARD
 70
     0
 40
0.0
 41
1.0
 50
0.0
 71
     0
 42
2.5
  3
txt
  4

  0
ENDTAB
  0
TABLE
  2
VIEW
  5
6
330
0
100
AcDbSymbolTable
 70
     0
  0
ENDTAB
  0
TABLE
  2
UCS
  5
7
330
0
100
AcDbSymbolTable
 70
     0
  0
ENDTAB
  0
TABLE
  2
APPID
  5
9
330
0
100
AcDbSymbolTable
 70
     2
  0
APPID
  5
12
330
9
100
AcDbSymbolTableRecord
100
AcDbRegAppTableRecord
  2
ACAD
 70
     0
  0
ENDTAB
  0
TABLE
  2
DIMSTYLE
  5
A
330
0
100
AcDbSymbolTable
 70
     1
  0
DIMSTYLE
105
27
330
A
100
AcDbSymbolTableRecord
100
AcDbDimStyleTableRecord
  2
ISO-25
 70
     0
  3

  4

  5

  6

  7

 40
1.0
 41
2.5
 42
0.625
 43
3.75
 44
1.25
 45
0.0
 46
0.0
 47
0.0
 48
0.0
140
2.5
141
2.5
142
0.0
143
0.03937007874016
144
1.0
145
0.0
146
1.0
147
0.625
 71
     0
 72
     0
 73
     0
 74
     0
 75
     0
 76
     0
 77
     1
 78
     8
170
     0
171
     3
172
     1
173
     0
174
     0
175
     0
176
     0
177
     0
178
     0
270
     2
271
     2
272
     2
273
     2
274
     3
340
11
275
     0
280
     0
281
     0
282
     0
283
     0
284
     8
285
     0
286
     0
287
     3
288
     0
  0
ENDTAB
  0
TABLE
  2
BLOCK_RECORD
  5
1
330
0
100
AcDbSymbolTable
 70
     1
  0
BLOCK_RECORD
  5
1F
330
1
100
AcDbSymbolTableRecord
100
AcDbBlockTableRecord
  2
*MODEL_SPACE
  0
BLOCK_RECORD
  5
1B
330
1
100
AcDbSymbolTableRecord
100
AcDbBlockTableRecord
  2
*PAPER_SPACE
  0
ENDTAB
  0
ENDSEC
  0
SECTION
  2
BLOCKS
  0
BLOCK
  5
20
330
1F
100
AcDbEntity
  8
0
100
AcDbBlockBegin
  2
*MODEL_SPACE
 70
     0
 10
0.0
 20
0.0
 30
0.0
  3
*MODEL_SPACE
  1

  0
ENDBLK
  5
21
330
1F
100
AcDbEntity
  8
0
100
AcDbBlockEnd
  0
BLOCK
  5
1C
330
1B
100
AcDbEntity
 67
     1
  8
0
100
AcDbBlockBegin
  2
*PAPER_SPACE
  1

  0
ENDBLK
  5
1D
330
1B
100
AcDbEntity
 67
     1
  8
0
100
AcDbBlockEnd
  0
ENDSEC
  0
SECTION
  2
ENTITIES
  0
SPLINE
  5
100
100
AcDbEntity
  8
Layer_1
 62
7
100
AcDbSpline
 70
8
 71
3
 72
8
 73
4
 74
0
 40
0
 40
0
 40
0
 40
0
 40
1
 40
1
 40
1
 40
1
 10
6.205208
 20
198.108472
 30
0.0
 10
6.076590
 20
198.077572
 30
0.0
 10
5.967770
 20
198.046592
 30
0.0
 10
5.857461
 20
198.136252
 30
0.0
  0
SPLINE
  5
101
100
AcDbEntity
  8
Layer_1
 62
7
100
AcDbSpline
 70
8
 71
3
 72
8
 73
4
 74
0
 40
0
 40
0
 40
0
 40
0
 40
1
 40
1
 40
1
 40
1
 10
5.857461
 20
198.136252
 30
0.0
 10
5.833053
 20
198.166072
 30
0.0
 10
5.794877
 20
198.271731
 30
0.0
 10
5.841493
 20
198.301103
 30
0.0
  0
SPLINE
  5
102
100
AcDbEntity
  8
Layer_1
 62
7
100
AcDbSpline
 70
8
 71
3
 72
8
 73
4
 74
0
 40
0
 40
0
 40
0
 40
0
 40
1
 40
1
 40
1
 40
1
 10
5.841493
 20
198.301103
 30
0.0
 10
6.435282
 20
198.675232
 30
0.0
 10
6.232283
 20
198.644058
 30
0.0
 10
6.518004
 20
198.678978
 30
0.0
  0
SPLINE
  5
103
100
AcDbEntity
  8
Layer_1
 62
7
100
AcDbSpline
 70
8
 71
3
 72
8
 73
4
 74
0
 40
0
 40
0
 40
0
 40
0
 40
1
 40
1
 40
1
 40
1
 10
6.518004
 20
198.678978
 30
0.0
 10
6.635768
 20
198.690068
 30
0.0
 10
6.754091
 20
198.691418
 30
0.0
 10
6.872277
 20
198.691888
 30
0.0
  0
SPLINE
  5
104
100
AcDbEntity
  8
Layer_1
 62
7
100
AcDbSpline
 70
8
 71
3
 72
8
 73
4
 74
0
 40
0
 40
0
 40
0
 40
0
 40
1
 40
1
 40
1
 40
1
 10
6.872277
 20
198.691888
 30
0.0
 10
6.945646
 20
198.680488
 30
0.0
 10
6.910436
 20
198.689788
 30
0.0
 10
6.978066
 20
198.664628
 30
0.0
  0
SPLINE
  5
105
100
AcDbEntity
  8
Layer_1
 62
7
100
AcDbSpline
 70
8
 71
3
 72
8
 73
4
 74
0
 40
0
 40
0
 40
0
 40
0
 40
1
 40
1
 40
1
 40
1
 10
6.399280
 20
198.269018
 30
0.0
 10
6.340714
 20
198.281008
 30
0.0
 10
6.371624
 20
198.276918
 30
0.0
 10
6.306392
 20
198.280108
 30
0.0
  0
SPLINE
  5
106
100
AcDbEntity
  8
Layer_1
 62
7
100
AcDbSpline
 70
8
 71
3
 72
8
 73
4
 74
0
 40
0
 40
0
 40
0
 40
0
 40
1
 40
1
 40
1
 40
1
 10
6.306392
 20
198.280108
 30
0.0
 10
6.191399
 20
198.278808
 30
0.0
 10
6.074178
 20
198.279981
 30
0.0
 10
5.962179
 20
198.250808
 30
0.0
  0
SPLINE
  5
107
100
AcDbEntity
  8
Layer_1
 62
7
100
AcDbSpline
 70
8
 71
3
 72
8
 73
4
 74
0
 40
0
 40
0
 40
0
 40
0
 40
1
 40
1
 40
1
 40
1
 10
5.962179
 20
198.250808
 30
0.0
 10
5.721572
 20
198.132629
 30
0.0
 10
5.978702
 20
198.257608
 30
0.0
 10
6.491715
 20
198.570210
 30
0.0
  0
SPLINE
  5
108
100
AcDbEntity
  8
Layer_1
 62
7
100
AcDbSpline
 70
8
 71
3
 72
8
 73
4
 74
0
 40
0
 40
0
 40
0
 40
0
 40
1
 40
1
 40
1
 40
1
 10
6.491715
 20
198.570210
 30
0.0
 10
6.529910
 20
198.593490
 30
0.0
 10
6.436784
 20
198.558830
 30
0.0
 10
6.440160
 20
198.531430
 30
0.0
  0
SPLINE
  5
109
100
AcDbEntity
  8
Layer_1
 62
7
100
AcDbSpline
 70
8
 71
3
 72
8
 73
4
 74
0
 40
0
 40
0
 40
0
 40
0
 40
1
 40
1
 40
1
 40
1
 10
6.440160
 20
198.531430
 30
0.0
 10
6.440981
 20
198.524730
 30
0.0
 10
6.446610
 20
198.519470
 30
0.0
 10
6.449830
 20
198.513490
 30
0.0
  0
SPLINE
  5
10a
100
AcDbEntity
  8
Layer_1
 62
7
100
AcDbSpline
 70
8
 71
3
 72
8
 73
4
 74
0
 40
0
 40
0
 40
0
 40
0
 40
1
 40
1
 40
1
 40
1
 10
6.449830
 20
198.513490
 30
0.0
 10
6.545150
 20
198.461940
 30
0.0
 10
6.661997
 20
198.510590
 30
0.0
 10
6.755848
 20
198.543660
 30
0.0
  0
LWPOLYLINE
  5
10b
100
AcDbEntity
  8
Layer_1
 62
7
100
AcDbPolyline
 90
3
 70
0
 10
6.978066
 20
198.664628
 30
0.0
 10
6.399280
 20
198.269018
 30
0.0
 10
6.399280
 20
198.269018
 30
0.0
  0
LWPOLYLINE
  5
10c
100
AcDbEntity
  8
Layer_1
 62
7
100
AcDbPolyline
 90
3
 70
0
 10
6.755848
 20
198.543660
 30
0.0
 10
6.205207
 20
198.108479
 30
0.0
 10
6.205208
 20
198.108472
 30
0.0
  0
LWPOLYLINE
  5
10d
100
AcDbEntity
  8
Layer_1
 62
3
100
AcDbPolyline
 90
3
 70
0
 10
11.112501
 20
277.283345
 30
0.0
 10
9.524998
 20
284.427095
 30
0.0
 10
16.933334
 20
282.575012
 30
0.0
  0
LWPOLYLINE
  5
10e
100
AcDbEntity
  8
Layer_1
 62
3
100
AcDbPolyline
 90
3
 70
0
 10
9.260415
 20
272.520845
 30
0.0
 10
2.910414
 20
268.552095
 30
0.0
 10
9.260415
 20
264.847927
 30
0.0
  0
LWPOLYLINE
  5
10f
100
AcDbEntity
  8
Layer_1
 62
3
100
AcDbPolyline
 90
3
 70
0
 10
11.112501
 20
259.556261
 30
0.0
 10
9.524998
 20
252.677094
 30
0.0
 10
16.404167
 20
254.529177
 30
0.0
  0
LWPOLYLINE
  5
110
100
AcDbEntity
  8
Layer_1
 62
3
100
AcDbPolyline
 90
3
 70
0
 10
21.695834
 20
252.147928
 30
0.0
 10
25.400001
 20
246.327094
 30
0.0
 10
29.104167
 20
252.147928
 30
0.0
  0
LWPOLYLINE
  5
111
100
AcDbEntity
  8
Layer_1
 62
3
100
AcDbPolyline
 90
3
 70
0
 10
39.687501
 20
260.350011
 30
0.0
 10
41.275000
 20
253.206261
 30
0.0
 10
34.395834
 20
254.793761
 30
0.0
  0
LWPOLYLINE
  5
112
100
AcDbEntity
  8
Layer_1
 62
3
100
AcDbPolyline
 90
3
 70
0
 10
41.275000
 20
273.050012
 30
0.0
 10
47.360417
 20
269.081262
 30
0.0
 10
41.275000
 20
265.377095
 30
0.0
  0
LWPOLYLINE
  5
113
100
AcDbEntity
  8
Layer_1
 62
3
100
AcDbPolyline
 90
3
 70
0
 10
33.337501
 20
282.839595
 30
0.0
 10
40.481250
 20
284.427095
 30
0.0
 10
38.893751
 20
277.812512
 30
0.0
  0
LWPOLYLINE
  5
114
100
AcDbEntity
  8
Layer_1
 62
3
100
AcDbPolyline
 90
3
 70
0
 10
21.166668
 20
284.427094
 30
0.0
 10
25.135418
 20
290.777095
 30
0.0
 10
29.104168
 20
284.427094
 30
0.0
  0
LWPOLYLINE
  5
115
100
AcDbEntity
  8
Layer_1
 62
3
100
AcDbPolyline
 90
2
 70
0
 10
15.875001
 20
275.166678
 30
0.0
 10
15.875001
 20
272.520844
 30
0.0
  0
LWPOLYLINE
  5
116
100
AcDbEntity
  8
Layer_1
 62
3
100
AcDbPolyline
 90
3
 70
0
 10
11.112501
 20
228.335429
 30
0.0
 10
9.524998
 20
235.479179
 30
0.0
 10
16.933334
 20
233.627096
 30
0.0
  0
LWPOLYLINE
  5
117
100
AcDbEntity
  8
Layer_1
 62
3
100
AcDbPolyline
 90
3
 70
0
 10
9.260415
 20
223.572929
 30
0.0
 10
2.910415
 20
219.604179
 30
0.0
 10
9.260415
 20
215.900011
 30
0.0
  0
LWPOLYLINE
  5
118
100
AcDbEntity
  8
Layer_1
 62
3
100
AcDbPolyline
 90
3
 70
0
 10
11.112501
 20
210.608345
 30
0.0
 10
9.524998
 20
203.729178
 30
0.0
 10
16.404167
 20
205.581261
 30
0.0
  0
LWPOLYLINE
  5
119
100
AcDbEntity
  8
Layer_1
 62
3
100
AcDbPolyline
 90
3
 70
0
 10
21.695834
 20
203.200012
 30
0.0
 10
25.400001
 20
197.379174
 30
0.0
 10
29.104167
 20
203.200012
 30
0.0
  0
LWPOLYLINE
  5
11a
100
AcDbEntity
  8
Layer_1
 62
3
100
AcDbPolyline
 90
3
 70
0
 10
39.687501
 20
211.402095
 30
0.0
 10
41.275000
 20
204.258345
 30
0.0
 10
34.395834
 20
205.845845
 30
0.0
  0
LWPOLYLINE
  5
11b
100
AcDbEntity
  8
Layer_1
 62
3
100
AcDbPolyline
 90
3
 70
0
 10
41.275000
 20
224.102096
 30
0.0
 10
47.360417
 20
220.133346
 30
0.0
 10
41.275000
 20
216.429179
 30
0.0
  0
LWPOLYLINE
  5
11c
100
AcDbEntity
  8
Layer_1
 62
3
100
AcDbPolyline
 90
3
 70
0
 10
33.337501
 20
233.891679
 30
0.0
 10
40.481250
 20
235.479179
 30
0.0
 10
38.893751
 20
228.864596
 30
0.0
  0
LWPOLYLINE
  5
11d
100
AcDbEntity
  8
Layer_1
 62
3
100
AcDbPolyline
 90
3
 70
0
 10
21.166668
 20
235.479178
 30
0.0
 10
25.135418
 20
241.829178
 30
0.0
 10
29.104168
 20
235.479178
 30
0.0
  0
LWPOLYLINE
  5
11e
100
AcDbEntity
  8
Layer_1
 62
3
100
AcDbPolyline
 90
2
 70
0
 10
15.875001
 20
226.218762
 30
0.0
 10
15.875001
 20
223.572928
 30
0.0
  0
LWPOLYLINE
  5
11f
100
AcDbEntity
  8
Layer_1
 62
3
100
AcDbPolyline
 90
3
 70
0
 10
11.112501
 20
180.710420
 30
0.0
 10
9.524997
 20
187.854170
 30
0.0
 10
16.933334
 20
186.002090
 30
0.0
  0
LWPOLYLINE
  5
120
100
AcDbEntity
  8
Layer_1
 62
3
100
AcDbPolyline
 90
3
 70
0
 10
9.260414
 20
175.947920
 30
0.0
 10
2.910414
 20
171.979170
 30
0.0
 10
9.260414
 20
168.275000
 30
0.0
  0
LWPOLYLINE
  5
121
100
AcDbEntity
  8
Layer_1
 62
3
100
AcDbPolyline
 90
3
 70
0
 10
11.112501
 20
162.983340
 30
0.0
 10
9.524997
 20
156.104170
 30
0.0
 10
16.404167
 20
157.956250
 30
0.0
  0
LWPOLYLINE
  5
122
100
AcDbEntity
  8
Layer_1
 62
3
100
AcDbPolyline
 90
3
 70
0
 10
21.695834
 20
155.575000
 30
0.0
 10
25.400001
 20
149.754170
 30
0.0
 10
29.104167
 20
155.575000
 30
0.0
  0
LWPOLYLINE
  5
123
100
AcDbEntity
  8
Layer_1
 62
3
100
AcDbPolyline
 90
3
 70
0
 10
39.687501
 20
163.777090
 30
0.0
 10
41.275000
 20
156.633340
 30
0.0
 10
34.395834
 20
158.220840
 30
0.0
  0
LWPOLYLINE
  5
124
100
AcDbEntity
  8
Layer_1
 62
3
100
AcDbPolyline
 90
3
 70
0
 10
41.275000
 20
176.477090
 30
0.0
 10
47.360417
 20
172.508340
 30
0.0
 10
41.275000
 20
168.804170
 30
0.0
  0
LWPOLYLINE
  5
125
100
AcDbEntity
  8
Layer_1
 62
3
100
AcDbPolyline
 90
3
 70
0
 10
33.337501
 20
186.266670
 30
0.0
 10
40.481250
 20
187.854170
 30
0.0
 10
38.893751
 20
181.239590
 30
0.0
  0
LWPOLYLINE
  5
126
100
AcDbEntity
  8
Layer_1
 62
3
100
AcDbPolyline
 90
3
 70
0
 10
21.166668
 20
187.854170
 30
0.0
 10
25.135418
 20
194.204170
 30
0.0
 10
29.104168
 20
187.854170
 30
0.0
  0
LWPOLYLINE
  5
127
100
AcDbEntity
  8
Layer_1
 62
3
100
AcDbPolyline
 90
2
 70
0
 10
15.875001
 20
178.593750
 30
0.0
 10
15.875001
 20
175.947920
 30
0.0
  0
LWPOLYLINE
  5
128
100
AcDbEntity
  8
Layer_1
 62
3
100
AcDbPolyline
 90
3
 70
0
 10
11.112501
 20
133.085420
 30
0.0
 10
9.524997
 20
140.229170
 30
0.0
 10
16.933334
 20
138.377090
 30
0.0
  0
LWPOLYLINE
  5
129
100
AcDbEntity
  8
Layer_1
 62
3
100
AcDbPolyline
 90
3
 70
0
 10
9.260414
 20
128.322920
 30
0.0
 10
2.910414
 20
124.354170
 30
0.0
 10
9.260414
 20
120.650000
 30
0.0
  0
LWPOLYLINE
  5
12a
100
AcDbEntity
  8
Layer_1
 62
3
100
AcDbPolyline
 90
3
 70
0
 10
11.112501
 20
115.358340
 30
0.0
 10
9.524997
 20
108.479170
 30
0.0
 10
16.404167
 20
110.331250
 30
0.0
  0
LWPOLYLINE
  5
12b
100
AcDbEntity
  8
Layer_1
 62
3
100
AcDbPolyline
 90
3
 70
0
 10
21.695834
 20
107.950000
 30
0.0
 10
25.400001
 20
102.129170
 30
0.0
 10
29.104167
 20
107.950000
 30
0.0
  0
LWPOLYLINE
  5
12c
100
AcDbEntity
  8
Layer_1
 62
3
100
AcDbPolyline
 90
3
 70
0
 10
39.687501
 20
116.152090
 30
0.0
 10
41.275000
 20
109.008340
 30
0.0
 10
34.395834
 20
110.595840
 30
0.0
  0
LWPOLYLINE
  5
12d
100
AcDbEntity
  8
Layer_1
 62
3
100
AcDbPolyline
 90
3
 70
0
 10
41.275000
 20
128.852090
 30
0.0
 10
47.360417
 20
124.883340
 30
0.0
 10
41.275000
 20
121.179170
 30
0.0
  0
LWPOLYLINE
  5
12e
100
AcDbEntity
  8
Layer_1
 62
3
100
AcDbPolyline
 90
3
 70
0
 10
33.337501
 20
138.641670
 30
0.0
 10
40.481250
 20
140.229170
 30
0.0
 10
38.893751
 20
133.614590
 30
0.0
  0
LWPOLYLINE
  5
12f
100
AcDbEntity
  8
Layer_1
 62
3
100
AcDbPolyline
 90
3
 70
0
 10
21.166668
 20
140.229170
 30
0.0
 10
25.135418
 20
146.579170
 30
0.0
 10
29.104168
 20
140.229170
 30
0.0
  0
SPLINE
  5
130
100
AcDbEntity
  8
Layer_1
 62
7
100
AcDbSpline
 70
8
 71
3
 72
8
 73
4
 74
0
 40
0
 40
0
 40
0
 40
0
 40
1
 40
1
 40
1
 40
1
 10
53.830207
 20
198.108472
 30
0.0
 10
53.701590
 20
198.077572
 30
0.0
 10
53.592769
 20
198.046592
 30
0.0
 10
53.482460
 20
198.136252
 30
0.0
  0
SPLINE
  5
131
100
AcDbEntity
  8
Layer_1
 62
7
100
AcDbSpline
 70
8
 71
3
 72
8
 73
4
 74
0
 40
0
 40
0
 40
0
 40
0
 40
1
 40
1
 40
1
 40
1
 10
53.482460
 20
198.136252
 30
0.0
 10
53.458050
 20
198.166072
 30
0.0
 10
53.419880
 20
198.271731
 30
0.0
 10
53.466490
 20
198.301103
 30
0.0
  0
SPLINE
  5
132
100
AcDbEntity
  8
Layer_1
 62
7
100
AcDbSpline
 70
8
 71
3
 72
8
 73
4
 74
0
 40
0
 40
0
 40
0
 40
0
 40
1
 40
1
 40
1
 40
1
 10
53.466490
 20
198.301103
 30
0.0
 10
54.060279
 20
198.675232
 30
0.0
 10
53.857281
 20
198.644058
 30
0.0
 10
54.143002
 20
198.678978
 30
0.0
  0
SPLINE
  5
133
100
AcDbEntity
  8
Layer_1
 62
7
100
AcDbSpline
 70
8
 71
3
 72
8
 73
4
 74
0
 40
0
 40
0
 40
0
 40
0
 40
1
 40
1
 40
1
 40
1
 10
54.143002
 20
198.678978
 30
0.0
 10
54.260766
 20
198.690068
 30
0.0
 10
54.379089
 20
198.691418
 30
0.0
 10
54.497274
 20
198.691888
 30
0.0
  0
SPLINE
  5
134
100
AcDbEntity
  8
Layer_1
 62
7
100
AcDbSpline
 70
8
 71
3
 72
8
 73
4
 74
0
 40
0
 40
0
 40
0
 40
0
 40
1
 40
1
 40
1
 40
1
 10
54.497274
 20
198.691888
 30
0.0
 10
54.570644
 20
198.680488
 30
0.0
 10
54.535434
 20
198.689788
 30
0.0
 10
54.603064
 20
198.664628
 30
0.0
  0
LWPOLYLINE
  5
135
100
AcDbEntity
  8
Layer_1
 62
3
100
AcDbPolyline
 90
2
 70
0
 10
15.875001
 20
130.968750
 30
0.0
 10
15.875001
 20
128.322920
 30
0.0
  0
SPLINE
  5
136
100
AcDbEntity
  8
Layer_1
 62
7
100
AcDbSpline
 70
8
 71
3
 72
8
 73
4
 74
0
 40
0
 40
0
 40
0
 40
0
 40
1
 40
1
 40
1
 40
1
 10
54.024278
 20
198.269018
 30
0.0
 10
53.965708
 20
198.281008
 30
0.0
 10
53.996618
 20
198.276918
 30
0.0
 10
53.931388
 20
198.280108
 30
0.0
  0
SPLINE
  5
137
100
AcDbEntity
  8
Layer_1
 62
7
100
AcDbSpline
 70
8
 71
3
 72
8
 73
4
 74
0
 40
0
 40
0
 40
0
 40
0
 40
1
 40
1
 40
1
 40
1
 10
53.931388
 20
198.280108
 30
0.0
 10
53.816394
 20
198.278808
 30
0.0
 10
53.699173
 20
198.279981
 30
0.0
 10
53.587174
 20
198.250808
 30
0.0
  0
SPLINE
  5
138
100
AcDbEntity
  8
Layer_1
 62
7
100
AcDbSpline
 70
8
 71
3
 72
8
 73
4
 74
0
 40
0
 40
0
 40
0
 40
0
 40
1
 40
1
 40
1
 40
1
 10
53.587174
 20
198.250808
 30
0.0
 10
53.346567
 20
198.132629
 30
0.0
 10
53.603694
 20
198.257608
 30
0.0
 10
54.116711
 20
198.570210
 30
0.0
  0
SPLINE
  5
139
100
AcDbEntity
  8
Layer_1
 62
7
100
AcDbSpline
 70
8
 71
3
 72
8
 73
4
 74
0
 40
0
 40
0
 40
0
 40
0
 40
1
 40
1
 40
1
 40
1
 10
54.116711
 20
198.570210
 30
0.0
 10
54.154911
 20
198.593490
 30
0.0
 10
54.061781
 20
198.558830
 30
0.0
 10
54.065151
 20
198.531430
 30
0.0
  0
SPLINE
  5
13a
100
AcDbEntity
  8
Layer_1
 62
7
100
AcDbSpline
 70
8
 71
3
 72
8
 73
4
 74
0
 40
0
 40
0
 40
0
 40
0
 40
1
 40
1
 40
1
 40
1
 10
54.065151
 20
198.531430
 30
0.0
 10
54.065971
 20
198.524730
 30
0.0
 10
54.071651
 20
198.519470
 30
0.0
 10
54.074851
 20
198.513490
 30
0.0
  0
SPLINE
  5
13b
100
AcDbEntity
  8
Layer_1
 62
7
100
AcDbSpline
 70
8
 71
3
 72
8
 73
4
 74
0
 40
0
 40
0
 40
0
 40
0
 40
1
 40
1
 40
1
 40
1
 10
54.074851
 20
198.513490
 30
0.0
 10
54.170171
 20
198.461940
 30
0.0
 10
54.287018
 20
198.510590
 30
0.0
 10
54.380869
 20
198.543660
 30
0.0
  0
LWPOLYLINE
  5
13c
100
AcDbEntity
  8
Layer_1
 62
7
100
AcDbPolyline
 90
3
 70
0
 10
54.603064
 20
198.664628
 30
0.0
 10
54.024278
 20
198.269018
 30
0.0
 10
54.024278
 20
198.269018
 30
0.0
  0
LWPOLYLINE
  5
13d
100
AcDbEntity
  8
Layer_1
 62
7
100
AcDbPolyline
 90
3
 70
0
 10
54.380869
 20
198.543660
 30
0.0
 10
53.830227
 20
198.108479
 30
0.0
 10
53.830207
 20
198.108472
 30
0.0
  0
LWPOLYLINE
  5
13e
100
AcDbEntity
  8
Layer_1
 62
3
100
AcDbPolyline
 90
3
 70
0
 10
58.737500
 20
277.283345
 30
0.0
 10
57.149997
 20
284.427095
 30
0.0
 10
64.558333
 20
282.575012
 30
0.0
  0
LWPOLYLINE
  5
13f
100
AcDbEntity
  8
Layer_1
 62
3
100
AcDbPolyline
 90
3
 70
0
 10
56.885414
 20
272.520845
 30
0.0
 10
50.535414
 20
268.552095
 30
0.0
 10
56.885414
 20
264.847927
 30
0.0
  0
LWPOLYLINE
  5
140
100
AcDbEntity
  8
Layer_1
 62
3
100
AcDbPolyline
 90
3
 70
0
 10
58.737500
 20
259.556261
 30
0.0
 10
57.149997
 20
252.677094
 30
0.0
 10
64.029166
 20
254.529177
 30
0.0
  0
LWPOLYLINE
  5
141
100
AcDbEntity
  8
Layer_1
 62
3
100
AcDbPolyline
 90
3
 70
0
 10
69.320833
 20
252.147928
 30
0.0
 10
73.025000
 20
246.327094
 30
0.0
 10
76.729166
 20
252.147928
 30
0.0
  0
LWPOLYLINE
  5
142
100
AcDbEntity
  8
Layer_1
 62
3
100
AcDbPolyline
 90
3
 70
0
 10
87.312500
 20
260.350011
 30
0.0
 10
88.899999
 20
253.206261
 30
0.0
 10
82.020833
 20
254.793761
 30
0.0
  0
LWPOLYLINE
  5
143
100
AcDbEntity
  8
Layer_1
 62
3
100
AcDbPolyline
 90
3
 70
0
 10
88.899999
 20
273.050012
 30
0.0
 10
94.985416
 20
269.081262
 30
0.0
 10
88.899999
 20
265.377095
 30
0.0
  0
LWPOLYLINE
  5
144
100
AcDbEntity
  8
Layer_1
 62
3
100
AcDbPolyline
 90
3
 70
0
 10
80.962500
 20
282.839595
 30
0.0
 10
88.106249
 20
284.427095
 30
0.0
 10
86.518750
 20
277.812512
 30
0.0
  0
LWPOLYLINE
  5
145
100
AcDbEntity
  8
Layer_1
 62
3
100
AcDbPolyline
 90
3
 70
0
 10
68.791667
 20
284.427094
 30
0.0
 10
72.760417
 20
290.777095
 30
0.0
 10
76.729167
 20
284.427094
 30
0.0
  0
LWPOLYLINE
  5
146
100
AcDbEntity
  8
Layer_1
 62
3
100
AcDbPolyline
 90
2
 70
0
 10
63.500000
 20
275.166678
 30
0.0
 10
63.500000
 20
272.520844
 30
0.0
  0
LWPOLYLINE
  5
147
100
AcDbEntity
  8
Layer_1
 62
3
100
AcDbPolyline
 90
3
 70
0
 10
58.737500
 20
228.335429
 30
0.0
 10
57.149997
 20
235.479179
 30
0.0
 10
64.558333
 20
233.627096
 30
0.0
  0
LWPOLYLINE
  5
148
100
AcDbEntity
  8
Layer_1
 62
3
100
AcDbPolyline
 90
3
 70
0
 10
56.885414
 20
223.572929
 30
0.0
 10
50.535414
 20
219.604179
 30
0.0
 10
56.885414
 20
215.900011
 30
0.0
  0
LWPOLYLINE
  5
149
100
AcDbEntity
  8
Layer_1
 62
3
100
AcDbPolyline
 90
3
 70
0
 10
58.737500
 20
210.608345
 30
0.0
 10
57.149997
 20
203.729178
 30
0.0
 10
64.029166
 20
205.581261
 30
0.0
  0
LWPOLYLINE
  5
14a
100
AcDbEntity
  8
Layer_1
 62
3
100
AcDbPolyline
 90
3
 70
0
 10
69.320833
 20
203.200012
 30
0.0
 10
73.025000
 20
197.379174
 30
0.0
 10
76.729166
 20
203.200012
 30
0.0
  0
LWPOLYLINE
  5
14b
100
AcDbEntity
  8
Layer_1
 62
3
100
AcDbPolyline
 90
3
 70
0
 10
87.312500
 20
211.402095
 30
0.0
 10
88.899999
 20
204.258345
 30
0.0
 10
82.020833
 20
205.845845
 30
0.0
  0
LWPOLYLINE
  5
14c
100
AcDbEntity
  8
Layer_1
 62
3
100
AcDbPolyline
 90
3
 70
0
 10
88.899999
 20
224.102096
 30
0.0
 10
94.985416
 20
220.133346
 30
0.0
 10
88.899999
 20
216.429179
 30
0.0
  0
LWPOLYLINE
  5
14d
100
AcDbEntity
  8
Layer_1
 62
3
100
AcDbPolyline
 90
3
 70
0
 10
80.962500
 20
233.891679
 30
0.0
 10
88.106249
 20
235.479179
 30
0.0
 10
86.518750
 20
228.864596
 30
0.0
  0
LWPOLYLINE
  5
14e
100
AcDbEntity
  8
Layer_1
 62
3
100
AcDbPolyline
 90
3
 70
0
 10
68.791667
 20
235.479178
 30
0.0
 10
72.760417
 20
241.829178
 30
0.0
 10
76.729167
 20
235.479178
 30
0.0
  0
LWPOLYLINE
  5
14f
100
AcDbEntity
  8
Layer_1
 62
3
100
AcDbPolyline
 90
2
 70
0
 10
63.500000
 20
226.218762
 30
0.0
 10
63.500000
 20
223.572928
 30
0.0
  0
LWPOLYLINE
  5
150
100
AcDbEntity
  8
Layer_1
 62
3
100
AcDbPolyline
 90
3
 70
0
 10
58.737500
 20
180.710420
 30
0.0
 10
57.149996
 20
187.854170
 30
0.0
 10
64.558333
 20
186.002090
 30
0.0
  0
LWPOLYLINE
  5
151
100
AcDbEntity
  8
Layer_1
 62
3
100
AcDbPolyline
 90
3
 70
0
 10
56.885413
 20
175.947920
 30
0.0
 10
50.535413
 20
171.979170
 30
0.0
 10
56.885413
 20
168.275000
 30
0.0
  0
LWPOLYLINE
  5
152
100
AcDbEntity
  8
Layer_1
 62
3
100
AcDbPolyline
 90
3
 70
0
 10
58.737500
 20
162.983340
 30
0.0
 10
57.149996
 20
156.104170
 30
0.0
 10
64.029166
 20
157.956250
 30
0.0
  0
LWPOLYLINE
  5
153
100
AcDbEntity
  8
Layer_1
 62
3
100
AcDbPolyline
 90
3
 70
0
 10
69.320833
 20
155.575000
 30
0.0
 10
73.025000
 20
149.754170
 30
0.0
 10
76.729166
 20
155.575000
 30
0.0
  0
LWPOLYLINE
  5
154
100
AcDbEntity
  8
Layer_1
 62
3
100
AcDbPolyline
 90
3
 70
0
 10
87.312500
 20
163.777090
 30
0.0
 10
88.899999
 20
156.633340
 30
0.0
 10
82.020833
 20
158.220840
 30
0.0
  0
LWPOLYLINE
  5
155
100
AcDbEntity
  8
Layer_1
 62
3
100
AcDbPolyline
 90
3
 70
0
 10
88.899999
 20
176.477090
 30
0.0
 10
94.985416
 20
172.508340
 30
0.0
 10
88.899999
 20
168.804170
 30
0.0
  0
LWPOLYLINE
  5
156
100
AcDbEntity
  8
Layer_1
 62
3
100
AcDbPolyline
 90
3
 70
0
 10
80.962500
 20
186.266670
 30
0.0
 10
88.106249
 20
187.854170
 30
0.0
 10
86.518750
 20
181.239590
 30
0.0
  0
LWPOLYLINE
  5
157
100
AcDbEntity
  8
Layer_1
 62
3
100
AcDbPolyline
 90
3
 70
0
 10
68.791667
 20
187.854170
 30
0.0
 10
72.760417
 20
194.204170
 30
0.0
 10
76.729167
 20
187.854170
 30
0.0
  0
LWPOLYLINE
  5
158
100
AcDbEntity
  8
Layer_1
 62
3
100
AcDbPolyline
 90
2
 70
0
 10
63.500000
 20
178.593750
 30
0.0
 10
63.500000
 20
175.947920
 30
0.0
  0
LWPOLYLINE
  5
159
100
AcDbEntity
  8
Layer_1
 62
3
100
AcDbPolyline
 90
3
 70
0
 10
58.737500
 20
133.085420
 30
0.0
 10
57.149997
 20
140.229170
 30
0.0
 10
64.558333
 20
138.377090
 30
0.0
  0
LWPOLYLINE
  5
15a
100
AcDbEntity
  8
Layer_1
 62
3
100
AcDbPolyline
 90
3
 70
0
 10
56.885414
 20
128.322920
 30
0.0
 10
50.535414
 20
124.354170
 30
0.0
 10
56.885414
 20
120.650000
 30
0.0
  0
LWPOLYLINE
  5
15b
100
AcDbEntity
  8
Layer_1
 62
3
100
AcDbPolyline
 90
3
 70
0
 10
58.737500
 20
115.358340
 30
0.0
 10
57.149997
 20
108.479170
 30
0.0
 10
64.029166
 20
110.331250
 30
0.0
  0
LWPOLYLINE
  5
15c
100
AcDbEntity
  8
Layer_1
 62
3
100
AcDbPolyline
 90
3
 70
0
 10
69.320833
 20
107.950000
 30
0.0
 10
73.025000
 20
102.129170
 30
0.0
 10
76.729166
 20
107.950000
 30
0.0
  0
LWPOLYLINE
  5
15d
100
AcDbEntity
  8
Layer_1
 62
3
100
AcDbPolyline
 90
3
 70
0
 10
87.312500
 20
116.152090
 30
0.0
 10
88.899999
 20
109.008340
 30
0.0
 10
82.020833
 20
110.595840
 30
0.0
  0
LWPOLYLINE
  5
15e
100
AcDbEntity
  8
Layer_1
 62
3
100
AcDbPolyline
 90
3
 70
0
 10
88.899999
 20
128.852090
 30
0.0
 10
94.985416
 20
124.883340
 30
0.0
 10
88.899999
 20
121.179170
 30
0.0
  0
LWPOLYLINE
  5
15f
100
AcDbEntity
  8
Layer_1
 62
3
100
AcDbPolyline
 90
3
 70
0
 10
80.962500
 20
138.641670
 30
0.0
 10
88.106249
 20
140.229170
 30
0.0
 10
86.518750
 20
133.614590
 30
0.0
  0
LWPOLYLINE
  5
160
100
AcDbEntity
  8
Layer_1
 62
3
100
AcDbPolyline
 90
3
 70
0
 10
68.791667
 20
140.229170
 30
0.0
 10
72.760417
 20
146.579170
 30
0.0
 10
76.729167
 20
140.229170
 30
0.0
  0
SPLINE
  5
161
100
AcDbEntity
  8
Layer_1
 62
7
100
AcDbSpline
 70
8
 71
3
 72
8
 73
4
 74
0
 40
0
 40
0
 40
0
 40
0
 40
1
 40
1
 40
1
 40
1
 10
101.455220
 20
198.108471
 30
0.0
 10
101.326600
 20
198.077571
 30
0.0
 10
101.217780
 20
198.046591
 30
0.0
 10
101.107470
 20
198.136251
 30
0.0
  0
SPLINE
  5
162
100
AcDbEntity
  8
Layer_1
 62
7
100
AcDbSpline
 70
8
 71
3
 72
8
 73
4
 74
0
 40
0
 40
0
 40
0
 40
0
 40
1
 40
1
 40
1
 40
1
 10
101.107470
 20
198.136251
 30
0.0
 10
101.083070
 20
198.166071
 30
0.0
 10
101.044870
 20
198.271730
 30
0.0
 10
101.091470
 20
198.301102
 30
0.0
  0
SPLINE
  5
163
100
AcDbEntity
  8
Layer_1
 62
7
100
AcDbSpline
 70
8
 71
3
 72
8
 73
4
 74
0
 40
0
 40
0
 40
0
 40
0
 40
1
 40
1
 40
1
 40
1
 10
101.091470
 20
198.301102
 30
0.0
 10
101.685260
 20
198.675231
 30
0.0
 10
101.482260
 20
198.644057
 30
0.0
 10
101.767980
 20
198.678977
 30
0.0
  0
SPLINE
  5
164
100
AcDbEntity
  8
Layer_1
 62
7
100
AcDbSpline
 70
8
 71
3
 72
8
 73
4
 74
0
 40
0
 40
0
 40
0
 40
0
 40
1
 40
1
 40
1
 40
1
 10
101.767980
 20
198.678977
 30
0.0
 10
101.885750
 20
198.690067
 30
0.0
 10
102.004070
 20
198.691417
 30
0.0
 10
102.122260
 20
198.691887
 30
0.0
  0
SPLINE
  5
165
100
AcDbEntity
  8
Layer_1
 62
7
100
AcDbSpline
 70
8
 71
3
 72
8
 73
4
 74
0
 40
0
 40
0
 40
0
 40
0
 40
1
 40
1
 40
1
 40
1
 10
102.122260
 20
198.691887
 30
0.0
 10
102.195660
 20
198.680487
 30
0.0
 10
102.160460
 20
198.689787
 30
0.0
 10
102.228050
 20
198.664627
 30
0.0
  0
LWPOLYLINE
  5
166
100
AcDbEntity
  8
Layer_1
 62
3
100
AcDbPolyline
 90
2
 70
0
 10
63.500000
 20
130.968750
 30
0.0
 10
63.500000
 20
128.322920
 30
0.0
  0
SPLINE
  5
167
100
AcDbEntity
  8
Layer_1
 62
7
100
AcDbSpline
 70
8
 71
3
 72
8
 73
4
 74
0
 40
0
 40
0
 40
0
 40
0
 40
1
 40
1
 40
1
 40
1
 10
101.649260
 20
198.269017
 30
0.0
 10
101.590660
 20
198.281007
 30
0.0
 10
101.621560
 20
198.276917
 30
0.0
 10
101.556360
 20
198.280107
 30
0.0
  0
SPLINE
  5
168
100
AcDbEntity
  8
Layer_1
 62
7
100
AcDbSpline
 70
8
 71
3
 72
8
 73
4
 74
0
 40
0
 40
0
 40
0
 40
0
 40
1
 40
1
 40
1
 40
1
 10
101.556360
 20
198.280107
 30
0.0
 10
101.441370
 20
198.278807
 30
0.0
 10
101.324150
 20
198.279980
 30
0.0
 10
101.212150
 20
198.250807
 30
0.0
  0
SPLINE
  5
169
100
AcDbEntity
  8
Layer_1
 62
7
100
AcDbSpline
 70
8
 71
3
 72
8
 73
4
 74
0
 40
0
 40
0
 40
0
 40
0
 40
1
 40
1
 40
1
 40
1
 10
101.212150
 20
198.250807
 30
0.0
 10
100.971540
 20
198.132628
 30
0.0
 10
101.228650
 20
198.257607
 30
0.0
 10
101.741690
 20
198.570209
 30
0.0
  0
SPLINE
  5
16a
100
AcDbEntity
  8
Layer_1
 62
7
100
AcDbSpline
 70
8
 71
3
 72
8
 73
4
 74
0
 40
0
 40
0
 40
0
 40
0
 40
1
 40
1
 40
1
 40
1
 10
101.741690
 20
198.570209
 30
0.0
 10
101.779890
 20
198.593489
 30
0.0
 10
101.686790
 20
198.558829
 30
0.0
 10
101.690090
 20
198.531429
 30
0.0
  0
SPLINE
  5
16b
100
AcDbEntity
  8
Layer_1
 62
7
100
AcDbSpline
 70
8
 71
3
 72
8
 73
4
 74
0
 40
0
 40
0
 40
0
 40
0
 40
1
 40
1
 40
1
 40
1
 10
101.690090
 20
198.531429
 30
0.0
 10
101.690910
 20
198.524729
 30
0.0
 10
101.696090
 20
198.519469
 30
0.0
 10
101.700090
 20
198.513489
 30
0.0
  0
SPLINE
  5
16c
100
AcDbEntity
  8
Layer_1
 62
7
100
AcDbSpline
 70
8
 71
3
 72
8
 73
4
 74
0
 40
0
 40
0
 40
0
 40
0
 40
1
 40
1
 40
1
 40
1
 10
101.700090
 20
198.513489
 30
0.0
 10
101.795390
 20
198.461939
 30
0.0
 10
101.912260
 20
198.510589
 30
0.0
 10
102.006110
 20
198.543659
 30
0.0
  0
LWPOLYLINE
  5
16d
100
AcDbEntity
  8
Layer_1
 62
7
100
AcDbPolyline
 90
3
 70
0
 10
102.228050
 20
198.664627
 30
0.0
 10
101.649260
 20
198.269017
 30
0.0
 10
101.649260
 20
198.269017
 30
0.0
  0
LWPOLYLINE
  5
16e
100
AcDbEntity
  8
Layer_1
 62
7
100
AcDbPolyline
 90
3
 70
0
 10
102.006110
 20
198.543659
 30
0.0
 10
101.455470
 20
198.108478
 30
0.0
 10
101.455220
 20
198.108471
 30
0.0
  0
LWPOLYLINE
  5
16f
100
AcDbEntity
  8
Layer_1
 62
3
100
AcDbPolyline
 90
3
 70
0
 10
106.362510
 20
277.283344
 30
0.0
 10
104.775010
 20
284.427094
 30
0.0
 10
112.183340
 20
282.575011
 30
0.0
  0
LWPOLYLINE
  5
170
100
AcDbEntity
  8
Layer_1
 62
3
100
AcDbPolyline
 90
3
 70
0
 10
104.510420
 20
272.520844
 30
0.0
 10
98.160422
 20
268.552094
 30
0.0
 10
104.510420
 20
264.847926
 30
0.0
  0
LWPOLYLINE
  5
171
100
AcDbEntity
  8
Layer_1
 62
3
100
AcDbPolyline
 90
3
 70
0
 10
106.362510
 20
259.556260
 30
0.0
 10
104.775010
 20
252.677093
 30
0.0
 10
111.654180
 20
254.529176
 30
0.0
  0
LWPOLYLINE
  5
172
100
AcDbEntity
  8
Layer_1
 62
3
100
AcDbPolyline
 90
3
 70
0
 10
116.945840
 20
252.147927
 30
0.0
 10
120.650010
 20
246.327093
 30
0.0
 10
124.354180
 20
252.147927
 30
0.0
  0
LWPOLYLINE
  5
173
100
AcDbEntity
  8
Layer_1
 62
3
100
AcDbPolyline
 90
3
 70
0
 10
134.937510
 20
260.350010
 30
0.0
 10
136.525010
 20
253.206260
 30
0.0
 10
129.645840
 20
254.793760
 30
0.0
  0
LWPOLYLINE
  5
174
100
AcDbEntity
  8
Layer_1
 62
3
100
AcDbPolyline
 90
3
 70
0
 10
136.525010
 20
273.050011
 30
0.0
 10
142.610430
 20
269.081261
 30
0.0
 10
136.525010
 20
265.377094
 30
0.0
  0
LWPOLYLINE
  5
175
100
AcDbEntity
  8
Layer_1
 62
3
100
AcDbPolyline
 90
3
 70
0
 10
128.587510
 20
282.839594
 30
0.0
 10
135.731260
 20
284.427094
 30
0.0
 10
134.143760
 20
277.812511
 30
0.0
  0
LWPOLYLINE
  5
176
100
AcDbEntity
  8
Layer_1
 62
3
100
AcDbPolyline
 90
3
 70
0
 10
116.416680
 20
284.427093
 30
0.0
 10
120.385430
 20
290.777093
 30
0.0
 10
124.354180
 20
284.427093
 30
0.0
  0
LWPOLYLINE
  5
177
100
AcDbEntity
  8
Layer_1
 62
3
100
AcDbPolyline
 90
2
 70
0
 10
111.125010
 20
275.166677
 30
0.0
 10
111.125010
 20
272.520843
 30
0.0
  0
LWPOLYLINE
  5
178
100
AcDbEntity
  8
Layer_1
 62
3
100
AcDbPolyline
 90
3
 70
0
 10
106.362510
 20
228.335428
 30
0.0
 10
104.775010
 20
235.479178
 30
0.0
 10
112.183340
 20
233.627095
 30
0.0
  0
LWPOLYLINE
  5
179
100
AcDbEntity
  8
Layer_1
 62
3
100
AcDbPolyline
 90
3
 70
0
 10
104.510420
 20
223.572928
 30
0.0
 10
98.160422
 20
219.604178
 30
0.0
 10
104.510420
 20
215.900010
 30
0.0
  0
LWPOLYLINE
  5
17a
100
AcDbEntity
  8
Layer_1
 62
3
100
AcDbPolyline
 90
3
 70
0
 10
106.362510
 20
210.608344
 30
0.0
 10
104.775010
 20
203.729177
 30
0.0
 10
111.654180
 20
205.581260
 30
0.0
  0
LWPOLYLINE
  5
17b
100
AcDbEntity
  8
Layer_1
 62
3
100
AcDbPolyline
 90
3
 70
0
 10
116.945840
 20
203.200011
 30
0.0
 10
120.650010
 20
197.379174
 30
0.0
 10
124.354180
 20
203.200011
 30
0.0
  0
LWPOLYLINE
  5
17c
100
AcDbEntity
  8
Layer_1
 62
3
100
AcDbPolyline
 90
3
 70
0
 10
134.937510
 20
211.402094
 30
0.0
 10
136.525010
 20
204.258344
 30
0.0
 10
129.645840
 20
205.845844
 30
0.0
  0
LWPOLYLINE
  5
17d
100
AcDbEntity
  8
Layer_1
 62
3
100
AcDbPolyline
 90
3
 70
0
 10
136.525010
 20
224.102095
 30
0.0
 10
142.610430
 20
220.133345
 30
0.0
 10
136.525010
 20
216.429178
 30
0.0
  0
LWPOLYLINE
  5
17e
100
AcDbEntity
  8
Layer_1
 62
3
100
AcDbPolyline
 90
3
 70
0
 10
128.587510
 20
233.891678
 30
0.0
 10
135.731260
 20
235.479178
 30
0.0
 10
134.143760
 20
228.864595
 30
0.0
  0
LWPOLYLINE
  5
17f
100
AcDbEntity
  8
Layer_1
 62
3
100
AcDbPolyline
 90
3
 70
0
 10
116.416680
 20
235.479177
 30
0.0
 10
120.385430
 20
241.829177
 30
0.0
 10
124.354180
 20
235.479177
 30
0.0
  0
LWPOLYLINE
  5
180
100
AcDbEntity
  8
Layer_1
 62
3
100
AcDbPolyline
 90
2
 70
0
 10
111.125010
 20
226.218761
 30
0.0
 10
111.125010
 20
223.572927
 30
0.0
  0
LWPOLYLINE
  5
181
100
AcDbEntity
  8
Layer_1
 62
3
100
AcDbPolyline
 90
3
 70
0
 10
106.362510
 20
180.710410
 30
0.0
 10
104.775010
 20
187.854170
 30
0.0
 10
112.183340
 20
186.002080
 30
0.0
  0
LWPOLYLINE
  5
182
100
AcDbEntity
  8
Layer_1
 62
3
100
AcDbPolyline
 90
3
 70
0
 10
104.510420
 20
175.947910
 30
0.0
 10
98.160421
 20
171.979160
 30
0.0
 10
104.510420
 20
168.274990
 30
0.0
  0
LWPOLYLINE
  5
183
100
AcDbEntity
  8
Layer_1
 62
3
100
AcDbPolyline
 90
3
 70
0
 10
106.362510
 20
162.983330
 30
0.0
 10
104.775010
 20
156.104160
 30
0.0
 10
111.654180
 20
157.956240
 30
0.0
  0
LWPOLYLINE
  5
184
100
AcDbEntity
  8
Layer_1
 62
3
100
AcDbPolyline
 90
3
 70
0
 10
116.945840
 20
155.574990
 30
0.0
 10
120.650010
 20
149.754160
 30
0.0
 10
124.354180
 20
155.574990
 30
0.0
  0
LWPOLYLINE
  5
185
100
AcDbEntity
  8
Layer_1
 62
3
100
AcDbPolyline
 90
3
 70
0
 10
134.937510
 20
163.777080
 30
0.0
 10
136.525010
 20
156.633330
 30
0.0
 10
129.645840
 20
158.220830
 30
0.0
  0
LWPOLYLINE
  5
186
100
AcDbEntity
  8
Layer_1
 62
3
100
AcDbPolyline
 90
3
 70
0
 10
136.525010
 20
176.477080
 30
0.0
 10
142.610430
 20
172.508330
 30
0.0
 10
136.525010
 20
168.804160
 30
0.0
  0
LWPOLYLINE
  5
187
100
AcDbEntity
  8
Layer_1
 62
3
100
AcDbPolyline
 90
3
 70
0
 10
128.587510
 20
186.266660
 30
0.0
 10
135.731260
 20
187.854170
 30
0.0
 10
134.143760
 20
181.239580
 30
0.0
  0
LWPOLYLINE
  5
188
100
AcDbEntity
  8
Layer_1
 62
3
100
AcDbPolyline
 90
3
 70
0
 10
116.416680
 20
187.854170
 30
0.0
 10
120.385430
 20
194.204170
 30
0.0
 10
124.354180
 20
187.854170
 30
0.0
  0
LWPOLYLINE
  5
189
100
AcDbEntity
  8
Layer_1
 62
3
100
AcDbPolyline
 90
2
 70
0
 10
111.125010
 20
178.593740
 30
0.0
 10
111.125010
 20
175.947910
 30
0.0
  0
LWPOLYLINE
  5
18a
100
AcDbEntity
  8
Layer_1
 62
3
100
AcDbPolyline
 90
3
 70
0
 10
106.362510
 20
133.085410
 30
0.0
 10
104.775010
 20
140.229160
 30
0.0
 10
112.183340
 20
138.377080
 30
0.0
  0
LWPOLYLINE
  5
18b
100
AcDbEntity
  8
Layer_1
 62
3
100
AcDbPolyline
 90
3
 70
0
 10
104.510420
 20
128.322910
 30
0.0
 10
98.160422
 20
124.354160
 30
0.0
 10
104.510420
 20
120.649990
 30
0.0
  0
LWPOLYLINE
  5
18c
100
AcDbEntity
  8
Layer_1
 62
3
100
AcDbPolyline
 90
3
 70
0
 10
106.362510
 20
115.358330
 30
0.0
 10
104.775010
 20
108.479160
 30
0.0
 10
111.654180
 20
110.331240
 30
0.0
  0
LWPOLYLINE
  5
18d
100
AcDbEntity
  8
Layer_1
 62
3
100
AcDbPolyline
 90
3
 70
0
 10
116.945840
 20
107.949990
 30
0.0
 10
120.650010
 20
102.129160
 30
0.0
 10
124.354180
 20
107.949990
 30
0.0
  0
LWPOLYLINE
  5
18e
100
AcDbEntity
  8
Layer_1
 62
3
100
AcDbPolyline
 90
3
 70
0
 10
134.937510
 20
116.152080
 30
0.0
 10
136.525010
 20
109.008330
 30
0.0
 10
129.645840
 20
110.595830
 30
0.0
  0
LWPOLYLINE
  5
18f
100
AcDbEntity
  8
Layer_1
 62
3
100
AcDbPolyline
 90
3
 70
0
 10
136.525010
 20
128.852080
 30
0.0
 10
142.610430
 20
124.883330
 30
0.0
 10
136.525010
 20
121.179160
 30
0.0
  0
LWPOLYLINE
  5
190
100
AcDbEntity
  8
Layer_1
 62
3
100
AcDbPolyline
 90
3
 70
0
 10
128.587510
 20
138.641660
 30
0.0
 10
135.731260
 20
140.229160
 30
0.0
 10
134.143760
 20
133.614580
 30
0.0
  0
LWPOLYLINE
  5
191
100
AcDbEntity
  8
Layer_1
 62
3
100
AcDbPolyline
 90
3
 70
0
 10
116.416680
 20
140.229160
 30
0.0
 10
120.385430
 20
146.579160
 30
0.0
 10
124.354180
 20
140.229160
 30
0.0
  0
SPLINE
  5
192
100
AcDbEntity
  8
Layer_1
 62
7
100
AcDbSpline
 70
8
 71
3
 72
8
 73
4
 74
0
 40
0
 40
0
 40
0
 40
0
 40
1
 40
1
 40
1
 40
1
 10
149.080220
 20
198.108471
 30
0.0
 10
148.951600
 20
198.077571
 30
0.0
 10
148.842780
 20
198.046591
 30
0.0
 10
148.732470
 20
198.136251
 30
0.0
  0
SPLINE
  5
193
100
AcDbEntity
  8
Layer_1
 62
7
100
AcDbSpline
 70
8
 71
3
 72
8
 73
4
 74
0
 40
0
 40
0
 40
0
 40
0
 40
1
 40
1
 40
1
 40
1
 10
148.732470
 20
198.136251
 30
0.0
 10
148.708070
 20
198.166071
 30
0.0
 10
148.669870
 20
198.271730
 30
0.0
 10
148.716470
 20
198.301102
 30
0.0
  0
SPLINE
  5
194
100
AcDbEntity
  8
Layer_1
 62
7
100
AcDbSpline
 70
8
 71
3
 72
8
 73
4
 74
0
 40
0
 40
0
 40
0
 40
0
 40
1
 40
1
 40
1
 40
1
 10
148.716470
 20
198.301102
 30
0.0
 10
149.310260
 20
198.675231
 30
0.0
 10
149.107260
 20
198.644057
 30
0.0
 10
149.392980
 20
198.678977
 30
0.0
  0
SPLINE
  5
195
100
AcDbEntity
  8
Layer_1
 62
7
100
AcDbSpline
 70
8
 71
3
 72
8
 73
4
 74
0
 40
0
 40
0
 40
0
 40
0
 40
1
 40
1
 40
1
 40
1
 10
149.392980
 20
198.678977
 30
0.0
 10
149.510740
 20
198.690067
 30
0.0
 10
149.629070
 20
198.691417
 30
0.0
 10
149.747250
 20
198.691887
 30
0.0
  0
SPLINE
  5
196
100
AcDbEntity
  8
Layer_1
 62
7
100
AcDbSpline
 70
8
 71
3
 72
8
 73
4
 74
0
 40
0
 40
0
 40
0
 40
0
 40
1
 40
1
 40
1
 40
1
 10
149.747250
 20
198.691887
 30
0.0
 10
149.820650
 20
198.680487
 30
0.0
 10
149.785450
 20
198.689787
 30
0.0
 10
149.853040
 20
198.664627
 30
0.0
  0
LWPOLYLINE
  5
197
100
AcDbEntity
  8
Layer_1
 62
3
100
AcDbPolyline
 90
2
 70
0
 10
111.125010
 20
130.968740
 30
0.0
 10
111.125010
 20
128.322910
 30
0.0
  0
SPLINE
  5
198
100
AcDbEntity
  8
Layer_1
 62
7
100
AcDbSpline
 70
8
 71
3
 72
8
 73
4
 74
0
 40
0
 40
0
 40
0
 40
0
 40
1
 40
1
 40
1
 40
1
 10
149.274260
 20
198.269017
 30
0.0
 10
149.215660
 20
198.281007
 30
0.0
 10
149.246560
 20
198.276917
 30
0.0
 10
149.181360
 20
198.280107
 30
0.0
  0
SPLINE
  5
199
100
AcDbEntity
  8
Layer_1
 62
7
100
AcDbSpline
 70
8
 71
3
 72
8
 73
4
 74
0
 40
0
 40
0
 40
0
 40
0
 40
1
 40
1
 40
1
 40
1
 10
149.181360
 20
198.280107
 30
0.0
 10
149.066360
 20
198.278807
 30
0.0
 10
148.949140
 20
198.279980
 30
0.0
 10
148.837140
 20
198.250807
 30
0.0
  0
SPLINE
  5
19a
100
AcDbEntity
  8
Layer_1
 62
7
100
AcDbSpline
 70
8
 71
3
 72
8
 73
4
 74
0
 40
0
 40
0
 40
0
 40
0
 40
1
 40
1
 40
1
 40
1
 10
148.837140
 20
198.250807
 30
0.0
 10
148.596540
 20
198.132628
 30
0.0
 10
148.853640
 20
198.257607
 30
0.0
 10
149.366680
 20
198.570209
 30
0.0
  0
SPLINE
  5
19b
100
AcDbEntity
  8
Layer_1
 62
7
100
AcDbSpline
 70
8
 71
3
 72
8
 73
4
 74
0
 40
0
 40
0
 40
0
 40
0
 40
1
 40
1
 40
1
 40
1
 10
149.366680
 20
198.570209
 30
0.0
 10
149.404880
 20
198.593489
 30
0.0
 10
149.311780
 20
198.558829
 30
0.0
 10
149.315080
 20
198.531429
 30
0.0
  0
SPLINE
  5
19c
100
AcDbEntity
  8
Layer_1
 62
7
100
AcDbSpline
 70
8
 71
3
 72
8
 73
4
 74
0
 40
0
 40
0
 40
0
 40
0
 40
1
 40
1
 40
1
 40
1
 10
149.315080
 20
198.531429
 30
0.0
 10
149.315900
 20
198.524729
 30
0.0
 10
149.322080
 20
198.519469
 30
0.0
 10
149.325080
 20
198.513489
 30
0.0
  0
SPLINE
  5
19d
100
AcDbEntity
  8
Layer_1
 62
7
100
AcDbSpline
 70
8
 71
3
 72
8
 73
4
 74
0
 40
0
 40
0
 40
0
 40
0
 40
1
 40
1
 40
1
 40
1
 10
149.325080
 20
198.513489
 30
0.0
 10
149.420380
 20
198.461939
 30
0.0
 10
149.537250
 20
198.510589
 30
0.0
 10
149.631100
 20
198.543659
 30
0.0
  0
LWPOLYLINE
  5
19e
100
AcDbEntity
  8
Layer_1
 62
7
100
AcDbPolyline
 90
3
 70
0
 10
149.853040
 20
198.664627
 30
0.0
 10
149.274260
 20
198.269017
 30
0.0
 10
149.274260
 20
198.269017
 30
0.0
  0
LWPOLYLINE
  5
19f
100
AcDbEntity
  8
Layer_1
 62
7
100
AcDbPolyline
 90
3
 70
0
 10
149.631100
 20
198.543659
 30
0.0
 10
149.080460
 20
198.108478
 30
0.0
 10
149.080220
 20
198.108471
 30
0.0
  0
LWPOLYLINE
  5
1a0
100
AcDbEntity
  8
Layer_1
 62
3
100
AcDbPolyline
 90
3
 70
0
 10
153.987510
 20
277.283344
 30
0.0
 10
152.400010
 20
284.427094
 30
0.0
 10
159.808340
 20
282.575011
 30
0.0
  0
LWPOLYLINE
  5
1a1
100
AcDbEntity
  8
Layer_1
 62
3
100
AcDbPolyline
 90
3
 70
0
 10
152.135420
 20
272.520844
 30
0.0
 10
145.785420
 20
268.552094
 30
0.0
 10
152.135420
 20
264.847926
 30
0.0
  0
LWPOLYLINE
  5
1a2
100
AcDbEntity
  8
Layer_1
 62
3
100
AcDbPolyline
 90
3
 70
0
 10
153.987510
 20
259.556260
 30
0.0
 10
152.400010
 20
252.677093
 30
0.0
 10
159.279170
 20
254.529176
 30
0.0
  0
LWPOLYLINE
  5
1a3
100
AcDbEntity
  8
Layer_1
 62
3
100
AcDbPolyline
 90
3
 70
0
 10
164.570840
 20
252.147927
 30
0.0
 10
168.275010
 20
246.327093
 30
0.0
 10
171.979170
 20
252.147927
 30
0.0
  0
LWPOLYLINE
  5
1a4
100
AcDbEntity
  8
Layer_1
 62
3
100
AcDbPolyline
 90
3
 70
0
 10
182.562510
 20
260.350010
 30
0.0
 10
184.150010
 20
253.206260
 30
0.0
 10
177.270840
 20
254.793760
 30
0.0
  0
LWPOLYLINE
  5
1a5
100
AcDbEntity
  8
Layer_1
 62
3
100
AcDbPolyline
 90
3
 70
0
 10
184.150010
 20
273.050011
 30
0.0
 10
190.235420
 20
269.081261
 30
0.0
 10
184.150010
 20
265.377094
 30
0.0
  0
LWPOLYLINE
  5
1a6
100
AcDbEntity
  8
Layer_1
 62
3
100
AcDbPolyline
 90
3
 70
0
 10
176.212510
 20
282.839594
 30
0.0
 10
183.356260
 20
284.427094
 30
0.0
 10
181.768760
 20
277.812511
 30
0.0
  0
LWPOLYLINE
  5
1a7
100
AcDbEntity
  8
Layer_1
 62
3
100
AcDbPolyline
 90
3
 70
0
 10
164.041680
 20
284.427093
 30
0.0
 10
168.010430
 20
290.777093
 30
0.0
 10
171.979180
 20
284.427093
 30
0.0
  0
LWPOLYLINE
  5
1a8
100
AcDbEntity
  8
Layer_1
 62
3
100
AcDbPolyline
 90
2
 70
0
 10
158.750010
 20
275.166677
 30
0.0
 10
158.750010
 20
272.520843
 30
0.0
  0
LWPOLYLINE
  5
1a9
100
AcDbEntity
  8
Layer_1
 62
3
100
AcDbPolyline
 90
3
 70
0
 10
153.987510
 20
228.335428
 30
0.0
 10
152.400010
 20
235.479178
 30
0.0
 10
159.808340
 20
233.627095
 30
0.0
  0
LWPOLYLINE
  5
1aa
100
AcDbEntity
  8
Layer_1
 62
3
100
AcDbPolyline
 90
3
 70
0
 10
152.135420
 20
223.572928
 30
0.0
 10
145.785420
 20
219.604178
 30
0.0
 10
152.135420
 20
215.900010
 30
0.0
  0
LWPOLYLINE
  5
1ab
100
AcDbEntity
  8
Layer_1
 62
3
100
AcDbPolyline
 90
3
 70
0
 10
153.987510
 20
210.608344
 30
0.0
 10
152.400010
 20
203.729177
 30
0.0
 10
159.279170
 20
205.581260
 30
0.0
  0
LWPOLYLINE
  5
1ac
100
AcDbEntity
  8
Layer_1
 62
3
100
AcDbPolyline
 90
3
 70
0
 10
164.570840
 20
203.200011
 30
0.0
 10
168.275010
 20
197.379174
 30
0.0
 10
171.979170
 20
203.200011
 30
0.0
  0
LWPOLYLINE
  5
1ad
100
AcDbEntity
  8
Layer_1
 62
3
100
AcDbPolyline
 90
3
 70
0
 10
182.562510
 20
211.402094
 30
0.0
 10
184.150010
 20
204.258344
 30
0.0
 10
177.270840
 20
205.845844
 30
0.0
  0
LWPOLYLINE
  5
1ae
100
AcDbEntity
  8
Layer_1
 62
3
100
AcDbPolyline
 90
3
 70
0
 10
184.150010
 20
224.102095
 30
0.0
 10
190.235420
 20
220.133345
 30
0.0
 10
184.150010
 20
216.429178
 30
0.0
  0
LWPOLYLINE
  5
1af
100
AcDbEntity
  8
Layer_1
 62
3
100
AcDbPolyline
 90
3
 70
0
 10
176.212510
 20
233.891678
 30
0.0
 10
183.356260
 20
235.479178
 30
0.0
 10
181.768760
 20
228.864595
 30
0.0
  0
LWPOLYLINE
  5
1b0
100
AcDbEntity
  8
Layer_1
 62
3
100
AcDbPolyline
 90
3
 70
0
 10
164.041680
 20
235.479177
 30
0.0
 10
168.010430
 20
241.829177
 30
0.0
 10
171.979180
 20
235.479177
 30
0.0
  0
LWPOLYLINE
  5
1b1
100
AcDbEntity
  8
Layer_1
 62
3
100
AcDbPolyline
 90
2
 70
0
 10
158.750010
 20
226.218761
 30
0.0
 10
158.750010
 20
223.572927
 30
0.0
  0
LWPOLYLINE
  5
1b2
100
AcDbEntity
  8
Layer_1
 62
3
100
AcDbPolyline
 90
3
 70
0
 10
153.987510
 20
180.710410
 30
0.0
 10
152.400000
 20
187.854170
 30
0.0
 10
159.808340
 20
186.002080
 30
0.0
  0
LWPOLYLINE
  5
1b3
100
AcDbEntity
  8
Layer_1
 62
3
100
AcDbPolyline
 90
3
 70
0
 10
152.135420
 20
175.947910
 30
0.0
 10
145.785420
 20
171.979160
 30
0.0
 10
152.135420
 20
168.274990
 30
0.0
  0
LWPOLYLINE
  5
1b4
100
AcDbEntity
  8
Layer_1
 62
3
100
AcDbPolyline
 90
3
 70
0
 10
153.987510
 20
162.983330
 30
0.0
 10
152.400000
 20
156.104160
 30
0.0
 10
159.279170
 20
157.956240
 30
0.0
  0
LWPOLYLINE
  5
1b5
100
AcDbEntity
  8
Layer_1
 62
3
100
AcDbPolyline
 90
3
 70
0
 10
164.570840
 20
155.574990
 30
0.0
 10
168.275010
 20
149.754160
 30
0.0
 10
171.979170
 20
155.574990
 30
0.0
  0
LWPOLYLINE
  5
1b6
100
AcDbEntity
  8
Layer_1
 62
3
100
AcDbPolyline
 90
3
 70
0
 10
182.562510
 20
163.777080
 30
0.0
 10
184.150010
 20
156.633330
 30
0.0
 10
177.270840
 20
158.220830
 30
0.0
  0
LWPOLYLINE
  5
1b7
100
AcDbEntity
  8
Layer_1
 62
3
100
AcDbPolyline
 90
3
 70
0
 10
184.150010
 20
176.477080
 30
0.0
 10
190.235420
 20
172.508330
 30
0.0
 10
184.150010
 20
168.804160
 30
0.0
  0
LWPOLYLINE
  5
1b8
100
AcDbEntity
  8
Layer_1
 62
3
100
AcDbPolyline
 90
3
 70
0
 10
176.212510
 20
186.266660
 30
0.0
 10
183.356260
 20
187.854170
 30
0.0
 10
181.768760
 20
181.239580
 30
0.0
  0
LWPOLYLINE
  5
1b9
100
AcDbEntity
  8
Layer_1
 62
3
100
AcDbPolyline
 90
3
 70
0
 10
164.041680
 20
187.854170
 30
0.0
 10
168.010430
 20
194.204170
 30
0.0
 10
171.979180
 20
187.854170
 30
0.0
  0
LWPOLYLINE
  5
1ba
100
AcDbEntity
  8
Layer_1
 62
3
100
AcDbPolyline
 90
2
 70
0
 10
158.750010
 20
178.593740
 30
0.0
 10
158.750010
 20
175.947910
 30
0.0
  0
LWPOLYLINE
  5
1bb
100
AcDbEntity
  8
Layer_1
 62
3
100
AcDbPolyline
 90
3
 70
0
 10
153.987510
 20
133.085410
 30
0.0
 10
152.400010
 20
140.229160
 30
0.0
 10
159.808340
 20
138.377080
 30
0.0
  0
LWPOLYLINE
  5
1bc
100
AcDbEntity
  8
Layer_1
 62
3
100
AcDbPolyline
 90
3
 70
0
 10
152.135420
 20
128.322910
 30
0.0
 10
145.785420
 20
124.354160
 30
0.0
 10
152.135420
 20
120.649990
 30
0.0
  0
LWPOLYLINE
  5
1bd
100
AcDbEntity
  8
Layer_1
 62
3
100
AcDbPolyline
 90
3
 70
0
 10
153.987510
 20
115.358330
 30
0.0
 10
152.400010
 20
108.479160
 30
0.0
 10
159.279170
 20
110.331240
 30
0.0
  0
LWPOLYLINE
  5
1be
100
AcDbEntity
  8
Layer_1
 62
3
100
AcDbPolyline
 90
3
 70
0
 10
164.570840
 20
107.949990
 30
0.0
 10
168.275010
 20
102.129160
 30
0.0
 10
171.979170
 20
107.949990
 30
0.0
  0
LWPOLYLINE
  5
1bf
100
AcDbEntity
  8
Layer_1
 62
3
100
AcDbPolyline
 90
3
 70
0
 10
182.562510
 20
116.152080
 30
0.0
 10
184.150010
 20
109.008330
 30
0.0
 10
177.270840
 20
110.595830
 30
0.0
  0
LWPOLYLINE
  5
1c0
100
AcDbEntity
  8
Layer_1
 62
3
100
AcDbPolyline
 90
3
 70
0
 10
184.150010
 20
128.852080
 30
0.0
 10
190.235420
 20
124.883330
 30
0.0
 10
184.150010
 20
121.179160
 30
0.0
  0
LWPOLYLINE
  5
1c1
100
AcDbEntity
  8
Layer_1
 62
3
100
AcDbPolyline
 90
3
 70
0
 10
176.212510
 20
138.641660
 30
0.0
 10
183.356260
 20
140.229160
 30
0.0
 10
181.768760
 20
133.614580
 30
0.0
  0
LWPOLYLINE
  5
1c2
100
AcDbEntity
  8
Layer_1
 62
3
100
AcDbPolyline
 90
3
 70
0
 10
164.041680
 20
140.229160
 30
0.0
 10
168.010430
 20
146.579160
 30
0.0
 10
171.979180
 20
140.229160
 30
0.0
  0
LWPOLYLINE
  5
1c3
100
AcDbEntity
  8
Layer_1
 62
3
100
AcDbPolyline
 90
2
 70
0
 10
158.750010
 20
130.968740
 30
0.0
 10
158.750010
 20
128.322910
 30
0.0
  0
LWPOLYLINE
  5
1c4
100
AcDbEntity
  8
Layer_1
 62
3
100
AcDbPolyline
 90
3
 70
0
 10
11.112502
 20
82.814590
 30
0.0
 10
9.524999
 20
89.958340
 30
0.0
 10
16.933335
 20
88.106260
 30
0.0
  0
LWPOLYLINE
  5
1c5
100
AcDbEntity
  8
Layer_1
 62
3
100
AcDbPolyline
 90
3
 70
0
 10
9.260416
 20
78.052090
 30
0.0
 10
2.910415
 20
74.083340
 30
0.0
 10
9.260416
 20
70.379170
 30
0.0
  0
LWPOLYLINE
  5
1c6
100
AcDbEntity
  8
Layer_1
 62
3
100
AcDbPolyline
 90
3
 70
0
 10
11.112502
 20
65.087510
 30
0.0
 10
9.524999
 20
58.208340
 30
0.0
 10
16.404168
 20
60.060420
 30
0.0
  0
LWPOLYLINE
  5
1c7
100
AcDbEntity
  8
Layer_1
 62
3
100
AcDbPolyline
 90
3
 70
0
 10
21.695835
 20
57.679170
 30
0.0
 10
25.400002
 20
51.858340
 30
0.0
 10
29.104168
 20
57.679170
 30
0.0
  0
LWPOLYLINE
  5
1c8
100
AcDbEntity
  8
Layer_1
 62
3
100
AcDbPolyline
 90
3
 70
0
 10
39.687502
 20
65.881260
 30
0.0
 10
41.275001
 20
58.737510
 30
0.0
 10
34.395835
 20
60.325010
 30
0.0
  0
LWPOLYLINE
  5
1c9
100
AcDbEntity
  8
Layer_1
 62
3
100
AcDbPolyline
 90
3
 70
0
 10
41.275001
 20
78.581260
 30
0.0
 10
47.360418
 20
74.612510
 30
0.0
 10
41.275001
 20
70.908340
 30
0.0
  0
LWPOLYLINE
  5
1ca
100
AcDbEntity
  8
Layer_1
 62
3
100
AcDbPolyline
 90
3
 70
0
 10
33.337502
 20
88.370840
 30
0.0
 10
40.481251
 20
89.958340
 30
0.0
 10
38.893752
 20
83.343760
 30
0.0
  0
LWPOLYLINE
  5
1cb
100
AcDbEntity
  8
Layer_1
 62
3
100
AcDbPolyline
 90
3
 70
0
 10
21.166669
 20
89.958340
 30
0.0
 10
25.135419
 20
96.308340
 30
0.0
 10
29.104169
 20
89.958340
 30
0.0
  0
LWPOLYLINE
  5
1cc
100
AcDbEntity
  8
Layer_1
 62
3
100
AcDbPolyline
 90
2
 70
0
 10
15.875002
 20
80.697920
 30
0.0
 10
15.875002
 20
78.052090
 30
0.0
  0
LWPOLYLINE
  5
1cd
100
AcDbEntity
  8
Layer_1
 62
3
100
AcDbPolyline
 90
3
 70
0
 10
58.737501
 20
82.814590
 30
0.0
 10
57.149998
 20
89.958340
 30
0.0
 10
64.558334
 20
88.106260
 30
0.0
  0
LWPOLYLINE
  5
1ce
100
AcDbEntity
  8
Layer_1
 62
3
100
AcDbPolyline
 90
3
 70
0
 10
56.885415
 20
78.052090
 30
0.0
 10
50.535415
 20
74.083340
 30
0.0
 10
56.885415
 20
70.379170
 30
0.0
  0
LWPOLYLINE
  5
1cf
100
AcDbEntity
  8
Layer_1
 62
3
100
AcDbPolyline
 90
3
 70
0
 10
58.737501
 20
65.087510
 30
0.0
 10
57.149998
 20
58.208340
 30
0.0
 10
64.029167
 20
60.060420
 30
0.0
  0
LWPOLYLINE
  5
1d0
100
AcDbEntity
  8
Layer_1
 62
3
100
AcDbPolyline
 90
3
 70
0
 10
69.320834
 20
57.679170
 30
0.0
 10
73.025001
 20
51.858340
 30
0.0
 10
76.729167
 20
57.679170
 30
0.0
  0
LWPOLYLINE
  5
1d1
100
AcDbEntity
  8
Layer_1
 62
3
100
AcDbPolyline
 90
3
 70
0
 10
87.312501
 20
65.881260
 30
0.0
 10
88.900000
 20
58.737510
 30
0.0
 10
82.020834
 20
60.325010
 30
0.0
  0
LWPOLYLINE
  5
1d2
100
AcDbEntity
  8
Layer_1
 62
3
100
AcDbPolyline
 90
3
 70
0
 10
88.900000
 20
78.581260
 30
0.0
 10
94.985417
 20
74.612510
 30
0.0
 10
88.900000
 20
70.908340
 30
0.0
  0
LWPOLYLINE
  5
1d3
100
AcDbEntity
  8
Layer_1
 62
3
100
AcDbPolyline
 90
3
 70
0
 10
80.962501
 20
88.370840
 30
0.0
 10
88.106250
 20
89.958340
 30
0.0
 10
86.518751
 20
83.343760
 30
0.0
  0
LWPOLYLINE
  5
1d4
100
AcDbEntity
  8
Layer_1
 62
3
100
AcDbPolyline
 90
3
 70
0
 10
68.791668
 20
89.958340
 30
0.0
 10
72.760418
 20
96.308340
 30
0.0
 10
76.729168
 20
89.958340
 30
0.0
  0
LWPOLYLINE
  5
1d5
100
AcDbEntity
  8
Layer_1
 62
3
100
AcDbPolyline
 90
2
 70
0
 10
63.500001
 20
80.697920
 30
0.0
 10
63.500001
 20
78.052090
 30
0.0
  0
LWPOLYLINE
  5
1d6
100
AcDbEntity
  8
Layer_1
 62
3
100
AcDbPolyline
 90
3
 70
0
 10
106.362510
 20
82.814580
 30
0.0
 10
104.775010
 20
89.958330
 30
0.0
 10
112.183340
 20
88.106250
 30
0.0
  0
LWPOLYLINE
  5
1d7
100
AcDbEntity
  8
Layer_1
 62
3
100
AcDbPolyline
 90
3
 70
0
 10
104.510420
 20
78.052080
 30
0.0
 10
98.160423
 20
74.083330
 30
0.0
 10
104.510420
 20
70.379160
 30
0.0
  0
LWPOLYLINE
  5
1d8
100
AcDbEntity
  8
Layer_1
 62
3
100
AcDbPolyline
 90
3
 70
0
 10
106.362510
 20
65.087500
 30
0.0
 10
104.775010
 20
58.208330
 30
0.0
 10
111.654180
 20
60.060410
 30
0.0
  0
LWPOLYLINE
  5
1d9
100
AcDbEntity
  8
Layer_1
 62
3
100
AcDbPolyline
 90
3
 70
0
 10
116.945840
 20
57.679160
 30
0.0
 10
120.650010
 20
51.858330
 30
0.0
 10
124.354180
 20
57.679160
 30
0.0
  0
LWPOLYLINE
  5
1da
100
AcDbEntity
  8
Layer_1
 62
3
100
AcDbPolyline
 90
3
 70
0
 10
134.937510
 20
65.881250
 30
0.0
 10
136.525010
 20
58.737500
 30
0.0
 10
129.645840
 20
60.325000
 30
0.0
  0
LWPOLYLINE
  5
1db
100
AcDbEntity
  8
Layer_1
 62
3
100
AcDbPolyline
 90
3
 70
0
 10
136.525010
 20
78.581250
 30
0.0
 10
142.610430
 20
74.612500
 30
0.0
 10
136.525010
 20
70.908330
 30
0.0
  0
LWPOLYLINE
  5
1dc
100
AcDbEntity
  8
Layer_1
 62
3
100
AcDbPolyline
 90
3
 70
0
 10
128.587510
 20
88.370830
 30
0.0
 10
135.731260
 20
89.958330
 30
0.0
 10
134.143760
 20
83.343750
 30
0.0
  0
LWPOLYLINE
  5
1dd
100
AcDbEntity
  8
Layer_1
 62
3
100
AcDbPolyline
 90
3
 70
0
 10
116.416680
 20
89.958330
 30
0.0
 10
120.385430
 20
96.308330
 30
0.0
 10
124.354180
 20
89.958330
 30
0.0
  0
LWPOLYLINE
  5
1de
100
AcDbEntity
  8
Layer_1
 62
3
100
AcDbPolyline
 90
2
 70
0
 10
111.125010
 20
80.697910
 30
0.0
 10
111.125010
 20
78.052080
 30
0.0
  0
LWPOLYLINE
  5
1df
100
AcDbEntity
  8
Layer_1
 62
3
100
AcDbPolyline
 90
3
 70
0
 10
153.987510
 20
82.814580
 30
0.0
 10
152.400010
 20
89.958330
 30
0.0
 10
159.808340
 20
88.106250
 30
0.0
  0
LWPOLYLINE
  5
1e0
100
AcDbEntity
  8
Layer_1
 62
3
100
AcDbPolyline
 90
3
 70
0
 10
152.135420
 20
78.052080
 30
0.0
 10
145.785420
 20
74.083330
 30
0.0
 10
152.135420
 20
70.379160
 30
0.0
  0
LWPOLYLINE
  5
1e1
100
AcDbEntity
  8
Layer_1
 62
3
100
AcDbPolyline
 90
3
 70
0
 10
153.987510
 20
65.087500
 30
0.0
 10
152.400010
 20
58.208330
 30
0.0
 10
159.279170
 20
60.060410
 30
0.0
  0
LWPOLYLINE
  5
1e2
100
AcDbEntity
  8
Layer_1
 62
3
100
AcDbPolyline
 90
3
 70
0
 10
164.570840
 20
57.679160
 30
0.0
 10
168.275010
 20
51.858330
 30
0.0
 10
171.979170
 20
57.679160
 30
0.0
  0
LWPOLYLINE
  5
1e3
100
AcDbEntity
  8
Layer_1
 62
3
100
AcDbPolyline
 90
3
 70
0
 10
182.562510
 20
65.881250
 30
0.0
 10
184.150010
 20
58.737500
 30
0.0
 10
177.270840
 20
60.325000
 30
0.0
  0
LWPOLYLINE
  5
1e4
100
AcDbEntity
  8
Layer_1
 62
3
100
AcDbPolyline
 90
3
 70
0
 10
184.150010
 20
78.581250
 30
0.0
 10
190.235420
 20
74.612500
 30
0.0
 10
184.150010
 20
70.908330
 30
0.0
  0
LWPOLYLINE
  5
1e5
100
AcDbEntity
  8
Layer_1
 62
3
100
AcDbPolyline
 90
3
 70
0
 10
176.212510
 20
88.370830
 30
0.0
 10
183.356260
 20
89.958330
 30
0.0
 10
181.768760
 20
83.343750
 30
0.0
  0
LWPOLYLINE
  5
1e6
100
AcDbEntity
  8
Layer_1
 62
3
100
AcDbPolyline
 90
3
 70
0
 10
164.041680
 20
89.958330
 30
0.0
 10
168.010430
 20
96.308330
 30
0.0
 10
171.979180
 20
89.958330
 30
0.0
  0
LWPOLYLINE
  5
1e7
100
AcDbEntity
  8
Layer_1
 62
3
100
AcDbPolyline
 90
2
 70
0
 10
158.750010
 20
80.697910
 30
0.0
 10
158.750010
 20
78.052080
 30
0.0
  0
LWPOLYLINE
  5
1e8
100
AcDbEntity
  8
Layer_1
 62
3
100
AcDbPolyline
 90
3
 70
0
 10
15.875001
 20
178.593760
 30
0.0
 10
17.197917
 20
177.270840
 30
0.0
 10
15.875001
 20
175.947920
 30
0.0
  0
LWPOLYLINE
  5
1e9
100
AcDbEntity
  8
Layer_1
 62
3
100
AcDbPolyline
 90
3
 70
0
 10
63.500000
 20
175.947920
 30
0.0
 10
64.822917
 20
177.270840
 30
0.0
 10
63.500000
 20
178.593760
 30
0.0
  0
LWPOLYLINE
  5
1ea
100
AcDbEntity
  8
Layer_1
 62
3
100
AcDbPolyline
 90
2
 70
0
 10
112.447920
 20
177.270840
 30
0.0
 10
109.802080
 20
177.270840
 30
0.0
  0
LWPOLYLINE
  5
1eb
100
AcDbEntity
  8
Layer_1
 62
3
100
AcDbPolyline
 90
2
 70
0
 10
157.427080
 20
177.270840
 30
0.0
 10
160.072910
 20
177.270840
 30
0.0
  0
LWPOLYLINE
  5
1ec
100
AcDbEntity
  8
Layer_1
 62
3
100
AcDbPolyline
 90
2
 70
0
 10
14.552084
 20
129.645840
 30
0.0
 10
17.197917
 20
129.645840
 30
0.0
  0
LWPOLYLINE
  5
1ed
100
AcDbEntity
  8
Layer_1
 62
3
100
AcDbPolyline
 90
2
 70
0
 10
64.822917
 20
129.645840
 30
0.0
 10
62.177084
 20
129.645840
 30
0.0
  0
LWPOLYLINE
  5
1ee
100
AcDbEntity
  8
Layer_1
 62
3
100
AcDbPolyline
 90
2
 70
0
 10
109.802080
 20
130.968760
 30
0.0
 10
112.447920
 20
128.322920
 30
0.0
  0
LWPOLYLINE
  5
1ef
100
AcDbEntity
  8
Layer_1
 62
3
100
AcDbPolyline
 90
2
 70
0
 10
112.447920
 20
130.968760
 30
0.0
 10
109.802080
 20
128.322920
 30
0.0
  0
LWPOLYLINE
  5
1f0
100
AcDbEntity
  8
Layer_1
 62
3
100
AcDbPolyline
 90
2
 70
0
 10
160.072910
 20
130.968760
 30
0.0
 10
157.427080
 20
128.322920
 30
0.0
  0
LWPOLYLINE
  5
1f1
100
AcDbEntity
  8
Layer_1
 62
3
100
AcDbPolyline
 90
2
 70
0
 10
157.427080
 20
130.968760
 30
0.0
 10
160.072910
 20
128.322920
 30
0.0
  0
LWPOLYLINE
  5
1f2
100
AcDbEntity
  8
Layer_1
 62
3
100
AcDbPolyline
 90
2
 70
0
 10
14.552084
 20
80.697920
 30
0.0
 10
17.197917
 20
78.052090
 30
0.0
  0
LWPOLYLINE
  5
1f3
100
AcDbEntity
  8
Layer_1
 62
3
100
AcDbPolyline
 90
2
 70
0
 10
17.197917
 20
80.697920
 30
0.0
 10
14.552084
 20
78.052090
 30
0.0
  0
LWPOLYLINE
  5
1f4
100
AcDbEntity
  8
Layer_1
 62
3
100
AcDbPolyline
 90
2
 70
0
 10
62.177084
 20
80.697920
 30
0.0
 10
64.822917
 20
78.052090
 30
0.0
  0
LWPOLYLINE
  5
1f5
100
AcDbEntity
  8
Layer_1
 62
3
100
AcDbPolyline
 90
2
 70
0
 10
64.822917
 20
80.697920
 30
0.0
 10
62.177084
 20
78.052090
 30
0.0
  0
LWPOLYLINE
  5
1f6
100
AcDbEntity
  8
Layer_1
 62
3
100
AcDbPolyline
 90
4
 70
1
 10
111.125000
 20
80.697920
 30
0.0
 10
109.802080
 20
79.375010
 30
0.0
 10
111.125000
 20
78.052090
 30
0.0
 10
112.447920
 20
79.375010
 30
0.0
  0
LWPOLYLINE
  5
1f7
100
AcDbEntity
  8
Layer_1
 62
3
100
AcDbPolyline
 90
4
 70
1
 10
158.750000
 20
80.697920
 30
0.0
 10
157.427080
 20
79.375010
 30
0.0
 10
158.750000
 20
78.052090
 30
0.0
 10
160.072910
 20
79.375010
 30
0.0
  0
ENDSEC
  0
SECTION
  2
OBJECTS
  0
DICTIONARY
  5
C
330
0
100
AcDbDictionary
  3
ACAD_GROUP
350
D
  3
ACAD_MLINESTYLE
350
17
  0
DICTIONARY
  5
D
330
C
100
AcDbDictionary
  0
DICTIONARY
  5
1A
330
C
100
AcDbDictionary
  0
DICTIONARY
  5
17
330
C
100
AcDbDictionary
  3
STANDARD
350
18
  0
DICTIONARY
  5
19
330
C
100
AcDbDictionary
  0
ENDSEC
  0
EOF
