  0
SECTION
  2
HEADER
  9
$ACADVER
  1
AC1014
  9
$HANDSEED
  5
FFFF
  9
$MEASUREMENT
 70
     1
  0
ENDSEC
  0
SECTION
  2
TABLES
  0
TABLE
  2
VPORT
  5
8
330
0
100
AcDbSymbolTable
 70
     4
  0
VPORT
  5
2E
330
8
100
AcDbSymbolTableRecord
100
AcDbViewportTableRecord
  2
*ACTIVE
 70
     0
 10
0.0
 20
0.0
 11
1.0
 21
1.0
 12
210.0
 22
148.5
 13
0.0
 23
0.0
 14
10.0
 24
10.0
 15
10.0
 25
10.0
 16
0.0
 26
0.0
 36
1.0
 17
0.0
 27
0.0
 37
0.0
 40
341.0
 41
1.24
 42
50.0
 43
0.0
 44
0.0
 50
0.0
 51
0.0
 71
     0
 72
   100
 73
     1
 74
     3
 75
     0
 76
     0
 77
     0
 78
     0
  0
ENDTAB
  0
TABLE
  2
LTYPE
  5
5
330
0
100
AcDbSymbolTable
 70
     1
  0
LTYPE
  5
14
330
5
100
AcDbSymbolTableRecord
100
AcDbLinetypeTableRecord
  2
BYBLOCK
 70
     0
  3

 72
    65
 73
     0
 40
0.0
  0
LTYPE
  5
15
330
5
100
AcDbSymbolTableRecord
100
AcDbLinetypeTableRecord
  2
BYLAYER
 70
     0
  3

 72
    65
 73
     0
 40
0.0
  0
LTYPE
  5
16
330
5
100
AcDbSymbolTableRecord
100
AcDbLinetypeTableRecord
  2
CONTINUOUS
 70
     0
  3
Solid line
 72
    65
 73
     0
 40
0.0
  0
ENDTAB
  0
TABLE
  2
LAYER
  5
2
100
AcDbSymbolTable
 70
3
  0
LAYER
  5
50
100
AcDbSymbolTableRecord
100
AcDbLayerTableRecord
  2
0
 70
0
  6
CONTINUOUS
  0
LAYER
  5
51
100
AcDbSymbolTableRecord
100
AcDbLayerTableRecord
  2
Layer_2
 70
0
  6
CONTINUOUS
  0
LAYER
  5
52
100
AcDbSymbolTableRecord
100
AcDbLayerTableRecord
  2
Layer_1
 70
0
  6
CONTINUOUS
  0
ENDTAB
  0
TABLE
  2
STYLE
  5
3
330
0
100
AcDbSymbolTable
 70
     1
  0
STYLE
  5
11
330
3
100
AcDbSymbolTableRecord
100
AcDbTextStyleTableRecord
  2
STANDARD
 70
     0
 40
0.0
 41
1.0
 50
0.0
 71
     0
 42
2.5
  3
txt
  4

  0
ENDTAB
  0
TABLE
  2
VIEW
  5
6
330
0
100
AcDbSymbolTable
 70
     0
  0
ENDTAB
  0
TABLE
  2
UCS
  5
7
330
0
100
AcDbSymbolTable
 70
     0
  0
ENDTAB
  0
TABLE
  2
APPID
  5
9
330
0
100
AcDbSymbolTable
 70
     2
  0
APPID
  5
12
330
9
100
AcDbSymbolTableRecord
100
AcDbRegAppTableRecord
  2
ACAD
 70
     0
  0
ENDTAB
  0
TABLE
  2
DIMSTYLE
  5
A
330
0
100
AcDbSymbolTable
 70
     1
  0
DIMSTYLE
105
27
330
A
100
AcDbSymbolTableRecord
100
AcDbDimStyleTableRecord
  2
ISO-25
 70
     0
  3

  4

  5

  6

  7

 40
1.0
 41
2.5
 42
0.625
 43
3.75
 44
1.25
 45
0.0
 46
0.0
 47
0.0
 48
0.0
140
2.5
141
2.5
142
0.0
143
0.03937007874016
144
1.0
145
0.0
146
1.0
147
0.625
 71
     0
 72
     0
 73
     0
 74
     0
 75
     0
 76
     0
 77
     1
 78
     8
170
     0
171
     3
172
     1
173
     0
174
     0
175
     0
176
     0
177
     0
178
     0
270
     2
271
     2
272
     2
273
     2
274
     3
340
11
275
     0
280
     0
281
     0
282
     0
283
     0
284
     8
285
     0
286
     0
287
     3
288
     0
  0
ENDTAB
  0
TABLE
  2
BLOCK_RECORD
  5
1
330
0
100
AcDbSymbolTable
 70
     1
  0
BLOCK_RECORD
  5
1F
330
1
100
AcDbSymbolTableRecord
100
AcDbBlockTableRecord
  2
*MODEL_SPACE
  0
BLOCK_RECORD
  5
1B
330
1
100
AcDbSymbolTableRecord
100
AcDbBlockTableRecord
  2
*PAPER_SPACE
  0
ENDTAB
  0
ENDSEC
  0
SECTION
  2
BLOCKS
  0
BLOCK
  5
20
330
1F
100
AcDbEntity
  8
0
100
AcDbBlockBegin
  2
*MODEL_SPACE
 70
     0
 10
0.0
 20
0.0
 30
0.0
  3
*MODEL_SPACE
  1

  0
ENDBLK
  5
21
330
1F
100
AcDbEntity
  8
0
100
AcDbBlockEnd
  0
BLOCK
  5
1C
330
1B
100
AcDbEntity
 67
     1
  8
0
100
AcDbBlockBegin
  2
*PAPER_SPACE
  1

  0
ENDBLK
  5
1D
330
1B
100
AcDbEntity
 67
     1
  8
0
100
AcDbBlockEnd
  0
ENDSEC
  0
SECTION
  2
ENTITIES
  0
SPLINE
  5
100
100
AcDbEntity
  8
Layer_1
 62
7
100
AcDbSpline
 70
8
 71
3
 72
8
 73
4
 74
0
 40
0
 40
0
 40
0
 40
0
 40
1
 40
1
 40
1
 40
1
 10
6.205208
 20
198.108472
 30
0.0
 10
6.076590
 20
198.077572
 30
0.0
 10
5.967770
 20
198.046592
 30
0.0
 10
5.857461
 20
198.136252
 30
0.0
  0
SPLINE
  5
101
100
AcDbEntity
  8
Layer_1
 62
7
100
AcDbSpline
 70
8
 71
3
 72
8
 73
4
 74
0
 40
0
 40
0
 40
0
 40
0
 40
1
 40
1
 40
1
 40
1
 10
5.857461
 20
198.136252
 30
0.0
 10
5.833053
 20
198.166072
 30
0.0
 10
5.794877
 20
198.271731
 30
0.0
 10
5.841493
 20
198.301103
 30
0.0
  0
SPLINE
  5
102
100
AcDbEntity
  8
Layer_1
 62
7
100
AcDbSpline
 70
8
 71
3
 72
8
 73
4
 74
0
 40
0
 40
0
 40
0
 40
0
 40
1
 40
1
 40
1
 40
1
 10
5.841493
 20
198.301103
 30
0.0
 10
6.435282
 20
198.675232
 30
0.0
 10
6.232283
 20
198.644058
 30
0.0
 10
6.518004
 20
198.678978
 30
0.0
  0
SPLINE
  5
103
100
AcDbEntity
  8
Layer_1
 62
7
100
AcDbSpline
 70
8
 71
3
 72
8
 73
4
 74
0
 40
0
 40
0
 40
0
 40
0
 40
1
 40
1
 40
1
 40
1
 10
6.518004
 20
198.678978
 30
0.0
 10
6.635768
 20
198.690068
 30
0.0
 10
6.754091
 20
198.691418
 30
0.0
 10
6.872277
 20
198.691888
 30
0.0
  0
SPLINE
  5
104
100
AcDbEntity
  8
Layer_1
 62
7
100
AcDbSpline
 70
8
 71
3
 72
8
 73
4
 74
0
 40
0
 40
0
 40
0
 40
0
 40
1
 40
1
 40
1
 40
1
 10
6.872277
 20
198.691888
 30
0.0
 10
6.945646
 20
198.680488
 30
0.0
 10
6.910436
 20
198.689788
 30
0.0
 10
6.978066
 20
198.664628
 30
0.0
  0
LWPOLYLINE
  5
105
100
AcDbEntity
  8
Layer_2
 62
7
100
AcDbPolyline
 90
66
 70
1
 10
23.018750
 20
290.247918
 30
0.0
 10
26.987500
 20
290.247918
 30
0.0
 10
27.252083
 20
289.983334
 30
0.0
 10
29.104166
 20
283.633335
 30
0.0
 10
33.072916
 20
282.310418
 30
0.0
 10
38.893750
 20
285.485418
 30
0.0
 10
42.333333
 20
282.310418
 30
0.0
 10
39.158333
 20
276.754168
 30
0.0
 10
41.274999
 20
272.520835
 30
0.0
 10
47.624999
 20
270.404168
 30
0.0
 10
47.624999
 20
266.435417
 30
0.0
 10
41.539583
 20
264.583333
 30
0.0
 10
39.687500
 20
259.556250
 30
0.0
 10
42.862499
 20
254.000000
 30
0.0
 10
39.687500
 20
250.825000
 30
0.0
 10
34.395833
 20
253.735417
 30
0.0
 10
29.104166
 20
251.354167
 30
0.0
 10
27.516666
 20
245.268750
 30
0.0
 10
23.283333
 20
245.268750
 30
0.0
 10
21.695833
 20
251.354167
 30
0.0
 10
16.404166
 20
253.470834
 30
0.0
 10
10.847917
 20
250.295834
 30
0.0
 10
7.672917
 20
253.470834
 30
0.0
 10
11.112500
 20
259.027083
 30
0.0
 10
8.995833
 20
264.054167
 30
0.0
 10
2.645833
 20
265.906250
 30
0.0
 10
2.645833
 20
270.139585
 30
0.0
 10
9.260417
 20
271.727085
 30
0.0
 10
11.112500
 20
276.489585
 30
0.0
 10
7.937500
 20
282.310418
 30
0.0
 10
10.847917
 20
285.220834
 30
0.0
 10
16.933333
 20
282.045835
 30
0.0
 10
21.166666
 20
283.897918
 30
0.0
 10
23.018750
 20
290.247918
 30
0.0
 10
26.987500
 20
290.247918
 30
0.0
 10
27.252083
 20
289.983334
 30
0.0
 10
29.104166
 20
283.633335
 30
0.0
 10
33.072916
 20
282.310418
 30
0.0
 10
38.893750
 20
285.485418
 30
0.0
 10
42.333333
 20
282.310418
 30
0.0
 10
39.158333
 20
276.754168
 30
0.0
 10
41.274999
 20
272.520835
 30
0.0
 10
47.624999
 20
270.404168
 30
0.0
 10
47.624999
 20
266.435417
 30
0.0
 10
41.539583
 20
264.583333
 30
0.0
 10
39.687500
 20
259.556250
 30
0.0
 10
42.862499
 20
254.000000
 30
0.0
 10
39.687500
 20
250.825000
 30
0.0
 10
34.395833
 20
253.735417
 30
0.0
 10
29.104166
 20
251.354167
 30
0.0
 10
27.516666
 20
245.268750
 30
0.0
 10
23.283333
 20
245.268750
 30
0.0
 10
21.695833
 20
251.354167
 30
0.0
 10
16.404166
 20
253.470834
 30
0.0
 10
10.847917
 20
250.295834
 30
0.0
 10
7.672917
 20
253.470834
 30
0.0
 10
11.112500
 20
259.027083
 30
0.0
 10
8.995833
 20
264.054167
 30
0.0
 10
2.645833
 20
265.906250
 30
0.0
 10
2.645833
 20
270.139585
 30
0.0
 10
9.260417
 20
271.727085
 30
0.0
 10
11.112500
 20
276.489585
 30
0.0
 10
7.937500
 20
282.310418
 30
0.0
 10
10.847917
 20
285.220834
 30
0.0
 10
16.933333
 20
282.045835
 30
0.0
 10
21.166666
 20
283.897918
 30
0.0
  0
SPLINE
  5
106
100
AcDbEntity
  8
Layer_1
 62
7
100
AcDbSpline
 70
8
 71
3
 72
8
 73
4
 74
0
 40
0
 40
0
 40
0
 40
0
 40
1
 40
1
 40
1
 40
1
 10
6.399280
 20
198.269018
 30
0.0
 10
6.340714
 20
198.281008
 30
0.0
 10
6.371624
 20
198.276918
 30
0.0
 10
6.306392
 20
198.280108
 30
0.0
  0
SPLINE
  5
107
100
AcDbEntity
  8
Layer_1
 62
7
100
AcDbSpline
 70
8
 71
3
 72
8
 73
4
 74
0
 40
0
 40
0
 40
0
 40
0
 40
1
 40
1
 40
1
 40
1
 10
6.306392
 20
198.280108
 30
0.0
 10
6.191399
 20
198.278808
 30
0.0
 10
6.074178
 20
198.279981
 30
0.0
 10
5.962179
 20
198.250808
 30
0.0
  0
SPLINE
  5
108
100
AcDbEntity
  8
Layer_1
 62
7
100
AcDbSpline
 70
8
 71
3
 72
8
 73
4
 74
0
 40
0
 40
0
 40
0
 40
0
 40
1
 40
1
 40
1
 40
1
 10
5.962179
 20
198.250808
 30
0.0
 10
5.721572
 20
198.132629
 30
0.0
 10
5.978702
 20
198.257608
 30
0.0
 10
6.491715
 20
198.570210
 30
0.0
  0
SPLINE
  5
109
100
AcDbEntity
  8
Layer_1
 62
7
100
AcDbSpline
 70
8
 71
3
 72
8
 73
4
 74
0
 40
0
 40
0
 40
0
 40
0
 40
1
 40
1
 40
1
 40
1
 10
6.491715
 20
198.570210
 30
0.0
 10
6.529910
 20
198.593490
 30
0.0
 10
6.436784
 20
198.558830
 30
0.0
 10
6.440160
 20
198.531430
 30
0.0
  0
SPLINE
  5
10a
100
AcDbEntity
  8
Layer_1
 62
7
100
AcDbSpline
 70
8
 71
3
 72
8
 73
4
 74
0
 40
0
 40
0
 40
0
 40
0
 40
1
 40
1
 40
1
 40
1
 10
6.440160
 20
198.531430
 30
0.0
 10
6.440981
 20
198.524730
 30
0.0
 10
6.446610
 20
198.519470
 30
0.0
 10
6.449830
 20
198.513490
 30
0.0
  0
SPLINE
  5
10b
100
AcDbEntity
  8
Layer_1
 62
7
100
AcDbSpline
 70
8
 71
3
 72
8
 73
4
 74
0
 40
0
 40
0
 40
0
 40
0
 40
1
 40
1
 40
1
 40
1
 10
6.449830
 20
198.513490
 30
0.0
 10
6.545150
 20
198.461940
 30
0.0
 10
6.661997
 20
198.510590
 30
0.0
 10
6.755848
 20
198.543660
 30
0.0
  0
LWPOLYLINE
  5
10c
100
AcDbEntity
  8
Layer_1
 62
7
100
AcDbPolyline
 90
3
 70
0
 10
6.978066
 20
198.664628
 30
0.0
 10
6.399280
 20
198.269018
 30
0.0
 10
6.399280
 20
198.269018
 30
0.0
  0
SPLINE
  5
10d
100
AcDbEntity
  8
Layer_1
 62
7
100
AcDbSpline
 70
8
 71
3
 72
8
 73
4
 74
0
 40
0
 40
0
 40
0
 40
0
 40
1
 40
1
 40
1
 40
1
 10
53.830207
 20
198.108472
 30
0.0
 10
53.701590
 20
198.077572
 30
0.0
 10
53.592769
 20
198.046592
 30
0.0
 10
53.482460
 20
198.136252
 30
0.0
  0
SPLINE
  5
10e
100
AcDbEntity
  8
Layer_1
 62
7
100
AcDbSpline
 70
8
 71
3
 72
8
 73
4
 74
0
 40
0
 40
0
 40
0
 40
0
 40
1
 40
1
 40
1
 40
1
 10
53.482460
 20
198.136252
 30
0.0
 10
53.458050
 20
198.166072
 30
0.0
 10
53.419880
 20
198.271731
 30
0.0
 10
53.466490
 20
198.301103
 30
0.0
  0
SPLINE
  5
10f
100
AcDbEntity
  8
Layer_1
 62
7
100
AcDbSpline
 70
8
 71
3
 72
8
 73
4
 74
0
 40
0
 40
0
 40
0
 40
0
 40
1
 40
1
 40
1
 40
1
 10
53.466490
 20
198.301103
 30
0.0
 10
54.060279
 20
198.675232
 30
0.0
 10
53.857281
 20
198.644058
 30
0.0
 10
54.143002
 20
198.678978
 30
0.0
  0
SPLINE
  5
110
100
AcDbEntity
  8
Layer_1
 62
7
100
AcDbSpline
 70
8
 71
3
 72
8
 73
4
 74
0
 40
0
 40
0
 40
0
 40
0
 40
1
 40
1
 40
1
 40
1
 10
54.143002
 20
198.678978
 30
0.0
 10
54.260766
 20
198.690068
 30
0.0
 10
54.379089
 20
198.691418
 30
0.0
 10
54.497274
 20
198.691888
 30
0.0
  0
SPLINE
  5
111
100
AcDbEntity
  8
Layer_1
 62
7
100
AcDbSpline
 70
8
 71
3
 72
8
 73
4
 74
0
 40
0
 40
0
 40
0
 40
0
 40
1
 40
1
 40
1
 40
1
 10
54.497274
 20
198.691888
 30
0.0
 10
54.570644
 20
198.680488
 30
0.0
 10
54.535434
 20
198.689788
 30
0.0
 10
54.603064
 20
198.664628
 30
0.0
  0
LWPOLYLINE
  5
112
100
AcDbEntity
  8
Layer_1
 62
7
100
AcDbPolyline
 90
3
 70
0
 10
6.755848
 20
198.543660
 30
0.0
 10
6.205207
 20
198.108479
 30
0.0
 10
6.205208
 20
198.108472
 30
0.0
  0
SPLINE
  5
113
100
AcDbEntity
  8
Layer_1
 62
7
100
AcDbSpline
 70
8
 71
3
 72
8
 73
4
 74
0
 40
0
 40
0
 40
0
 40
0
 40
1
 40
1
 40
1
 40
1
 10
54.024278
 20
198.269018
 30
0.0
 10
53.965708
 20
198.281008
 30
0.0
 10
53.996618
 20
198.276918
 30
0.0
 10
53.931388
 20
198.280108
 30
0.0
  0
SPLINE
  5
114
100
AcDbEntity
  8
Layer_1
 62
7
100
AcDbSpline
 70
8
 71
3
 72
8
 73
4
 74
0
 40
0
 40
0
 40
0
 40
0
 40
1
 40
1
 40
1
 40
1
 10
53.931388
 20
198.280108
 30
0.0
 10
53.816394
 20
198.278808
 30
0.0
 10
53.699173
 20
198.279981
 30
0.0
 10
53.587174
 20
198.250808
 30
0.0
  0
SPLINE
  5
115
100
AcDbEntity
  8
Layer_1
 62
7
100
AcDbSpline
 70
8
 71
3
 72
8
 73
4
 74
0
 40
0
 40
0
 40
0
 40
0
 40
1
 40
1
 40
1
 40
1
 10
53.587174
 20
198.250808
 30
0.0
 10
53.346567
 20
198.132629
 30
0.0
 10
53.603694
 20
198.257608
 30
0.0
 10
54.116711
 20
198.570210
 30
0.0
  0
SPLINE
  5
116
100
AcDbEntity
  8
Layer_1
 62
7
100
AcDbSpline
 70
8
 71
3
 72
8
 73
4
 74
0
 40
0
 40
0
 40
0
 40
0
 40
1
 40
1
 40
1
 40
1
 10
54.116711
 20
198.570210
 30
0.0
 10
54.154911
 20
198.593490
 30
0.0
 10
54.061781
 20
198.558830
 30
0.0
 10
54.065151
 20
198.531430
 30
0.0
  0
SPLINE
  5
117
100
AcDbEntity
  8
Layer_1
 62
7
100
AcDbSpline
 70
8
 71
3
 72
8
 73
4
 74
0
 40
0
 40
0
 40
0
 40
0
 40
1
 40
1
 40
1
 40
1
 10
54.065151
 20
198.531430
 30
0.0
 10
54.065971
 20
198.524730
 30
0.0
 10
54.071651
 20
198.519470
 30
0.0
 10
54.074851
 20
198.513490
 30
0.0
  0
SPLINE
  5
118
100
AcDbEntity
  8
Layer_1
 62
7
100
AcDbSpline
 70
8
 71
3
 72
8
 73
4
 74
0
 40
0
 40
0
 40
0
 40
0
 40
1
 40
1
 40
1
 40
1
 10
54.074851
 20
198.513490
 30
0.0
 10
54.170171
 20
198.461940
 30
0.0
 10
54.287018
 20
198.510590
 30
0.0
 10
54.380869
 20
198.543660
 30
0.0
  0
LWPOLYLINE
  5
119
100
AcDbEntity
  8
Layer_1
 62
7
100
AcDbPolyline
 90
3
 70
0
 10
54.603064
 20
198.664628
 30
0.0
 10
54.024278
 20
198.269018
 30
0.0
 10
54.024278
 20
198.269018
 30
0.0
  0
SPLINE
  5
11a
100
AcDbEntity
  8
Layer_1
 62
7
100
AcDbSpline
 70
8
 71
3
 72
8
 73
4
 74
0
 40
0
 40
0
 40
0
 40
0
 40
1
 40
1
 40
1
 40
1
 10
101.455220
 20
198.108471
 30
0.0
 10
101.326600
 20
198.077571
 30
0.0
 10
101.217780
 20
198.046591
 30
0.0
 10
101.107470
 20
198.136251
 30
0.0
  0
SPLINE
  5
11b
100
AcDbEntity
  8
Layer_1
 62
7
100
AcDbSpline
 70
8
 71
3
 72
8
 73
4
 74
0
 40
0
 40
0
 40
0
 40
0
 40
1
 40
1
 40
1
 40
1
 10
101.107470
 20
198.136251
 30
0.0
 10
101.083070
 20
198.166071
 30
0.0
 10
101.044870
 20
198.271730
 30
0.0
 10
101.091470
 20
198.301102
 30
0.0
  0
SPLINE
  5
11c
100
AcDbEntity
  8
Layer_1
 62
7
100
AcDbSpline
 70
8
 71
3
 72
8
 73
4
 74
0
 40
0
 40
0
 40
0
 40
0
 40
1
 40
1
 40
1
 40
1
 10
101.091470
 20
198.301102
 30
0.0
 10
101.685260
 20
198.675231
 30
0.0
 10
101.482260
 20
198.644057
 30
0.0
 10
101.767980
 20
198.678977
 30
0.0
  0
SPLINE
  5
11d
100
AcDbEntity
  8
Layer_1
 62
7
100
AcDbSpline
 70
8
 71
3
 72
8
 73
4
 74
0
 40
0
 40
0
 40
0
 40
0
 40
1
 40
1
 40
1
 40
1
 10
101.767980
 20
198.678977
 30
0.0
 10
101.885750
 20
198.690067
 30
0.0
 10
102.004070
 20
198.691417
 30
0.0
 10
102.122260
 20
198.691887
 30
0.0
  0
SPLINE
  5
11e
100
AcDbEntity
  8
Layer_1
 62
7
100
AcDbSpline
 70
8
 71
3
 72
8
 73
4
 74
0
 40
0
 40
0
 40
0
 40
0
 40
1
 40
1
 40
1
 40
1
 10
102.122260
 20
198.691887
 30
0.0
 10
102.195660
 20
198.680487
 30
0.0
 10
102.160460
 20
198.689787
 30
0.0
 10
102.228050
 20
198.664627
 30
0.0
  0
LWPOLYLINE
  5
11f
100
AcDbEntity
  8
Layer_1
 62
7
100
AcDbPolyline
 90
3
 70
0
 10
54.380869
 20
198.543660
 30
0.0
 10
53.830227
 20
198.108479
 30
0.0
 10
53.830207
 20
198.108472
 30
0.0
  0
SPLINE
  5
120
100
AcDbEntity
  8
Layer_1
 62
7
100
AcDbSpline
 70
8
 71
3
 72
8
 73
4
 74
0
 40
0
 40
0
 40
0
 40
0
 40
1
 40
1
 40
1
 40
1
 10
101.649260
 20
198.269017
 30
0.0
 10
101.590660
 20
198.281007
 30
0.0
 10
101.621560
 20
198.276917
 30
0.0
 10
101.556360
 20
198.280107
 30
0.0
  0
SPLINE
  5
121
100
AcDbEntity
  8
Layer_1
 62
7
100
AcDbSpline
 70
8
 71
3
 72
8
 73
4
 74
0
 40
0
 40
0
 40
0
 40
0
 40
1
 40
1
 40
1
 40
1
 10
101.556360
 20
198.280107
 30
0.0
 10
101.441370
 20
198.278807
 30
0.0
 10
101.324150
 20
198.279980
 30
0.0
 10
101.212150
 20
198.250807
 30
0.0
  0
SPLINE
  5
122
100
AcDbEntity
  8
Layer_1
 62
7
100
AcDbSpline
 70
8
 71
3
 72
8
 73
4
 74
0
 40
0
 40
0
 40
0
 40
0
 40
1
 40
1
 40
1
 40
1
 10
101.212150
 20
198.250807
 30
0.0
 10
100.971540
 20
198.132628
 30
0.0
 10
101.228650
 20
198.257607
 30
0.0
 10
101.741690
 20
198.570209
 30
0.0
  0
SPLINE
  5
123
100
AcDbEntity
  8
Layer_1
 62
7
100
AcDbSpline
 70
8
 71
3
 72
8
 73
4
 74
0
 40
0
 40
0
 40
0
 40
0
 40
1
 40
1
 40
1
 40
1
 10
101.741690
 20
198.570209
 30
0.0
 10
101.779890
 20
198.593489
 30
0.0
 10
101.686790
 20
198.558829
 30
0.0
 10
101.690090
 20
198.531429
 30
0.0
  0
SPLINE
  5
124
100
AcDbEntity
  8
Layer_1
 62
7
100
AcDbSpline
 70
8
 71
3
 72
8
 73
4
 74
0
 40
0
 40
0
 40
0
 40
0
 40
1
 40
1
 40
1
 40
1
 10
101.690090
 20
198.531429
 30
0.0
 10
101.690910
 20
198.524729
 30
0.0
 10
101.696090
 20
198.519469
 30
0.0
 10
101.700090
 20
198.513489
 30
0.0
  0
SPLINE
  5
125
100
AcDbEntity
  8
Layer_1
 62
7
100
AcDbSpline
 70
8
 71
3
 72
8
 73
4
 74
0
 40
0
 40
0
 40
0
 40
0
 40
1
 40
1
 40
1
 40
1
 10
101.700090
 20
198.513489
 30
0.0
 10
101.795390
 20
198.461939
 30
0.0
 10
101.912260
 20
198.510589
 30
0.0
 10
102.006110
 20
198.543659
 30
0.0
  0
LWPOLYLINE
  5
126
100
AcDbEntity
  8
Layer_1
 62
7
100
AcDbPolyline
 90
3
 70
0
 10
102.228050
 20
198.664627
 30
0.0
 10
101.649260
 20
198.269017
 30
0.0
 10
101.649260
 20
198.269017
 30
0.0
  0
SPLINE
  5
127
100
AcDbEntity
  8
Layer_1
 62
7
100
AcDbSpline
 70
8
 71
3
 72
8
 73
4
 74
0
 40
0
 40
0
 40
0
 40
0
 40
1
 40
1
 40
1
 40
1
 10
149.080220
 20
198.108471
 30
0.0
 10
148.951600
 20
198.077571
 30
0.0
 10
148.842780
 20
198.046591
 30
0.0
 10
148.732470
 20
198.136251
 30
0.0
  0
SPLINE
  5
128
100
AcDbEntity
  8
Layer_1
 62
7
100
AcDbSpline
 70
8
 71
3
 72
8
 73
4
 74
0
 40
0
 40
0
 40
0
 40
0
 40
1
 40
1
 40
1
 40
1
 10
148.732470
 20
198.136251
 30
0.0
 10
148.708070
 20
198.166071
 30
0.0
 10
148.669870
 20
198.271730
 30
0.0
 10
148.716470
 20
198.301102
 30
0.0
  0
SPLINE
  5
129
100
AcDbEntity
  8
Layer_1
 62
7
100
AcDbSpline
 70
8
 71
3
 72
8
 73
4
 74
0
 40
0
 40
0
 40
0
 40
0
 40
1
 40
1
 40
1
 40
1
 10
148.716470
 20
198.301102
 30
0.0
 10
149.310260
 20
198.675231
 30
0.0
 10
149.107260
 20
198.644057
 30
0.0
 10
149.392980
 20
198.678977
 30
0.0
  0
SPLINE
  5
12a
100
AcDbEntity
  8
Layer_1
 62
7
100
AcDbSpline
 70
8
 71
3
 72
8
 73
4
 74
0
 40
0
 40
0
 40
0
 40
0
 40
1
 40
1
 40
1
 40
1
 10
149.392980
 20
198.678977
 30
0.0
 10
149.510740
 20
198.690067
 30
0.0
 10
149.629070
 20
198.691417
 30
0.0
 10
149.747250
 20
198.691887
 30
0.0
  0
SPLINE
  5
12b
100
AcDbEntity
  8
Layer_1
 62
7
100
AcDbSpline
 70
8
 71
3
 72
8
 73
4
 74
0
 40
0
 40
0
 40
0
 40
0
 40
1
 40
1
 40
1
 40
1
 10
149.747250
 20
198.691887
 30
0.0
 10
149.820650
 20
198.680487
 30
0.0
 10
149.785450
 20
198.689787
 30
0.0
 10
149.853040
 20
198.664627
 30
0.0
  0
LWPOLYLINE
  5
12c
100
AcDbEntity
  8
Layer_1
 62
7
100
AcDbPolyline
 90
3
 70
0
 10
102.006110
 20
198.543659
 30
0.0
 10
101.455470
 20
198.108478
 30
0.0
 10
101.455220
 20
198.108471
 30
0.0
  0
SPLINE
  5
12d
100
AcDbEntity
  8
Layer_1
 62
7
100
AcDbSpline
 70
8
 71
3
 72
8
 73
4
 74
0
 40
0
 40
0
 40
0
 40
0
 40
1
 40
1
 40
1
 40
1
 10
149.274260
 20
198.269017
 30
0.0
 10
149.215660
 20
198.281007
 30
0.0
 10
149.246560
 20
198.276917
 30
0.0
 10
149.181360
 20
198.280107
 30
0.0
  0
SPLINE
  5
12e
100
AcDbEntity
  8
Layer_1
 62
7
100
AcDbSpline
 70
8
 71
3
 72
8
 73
4
 74
0
 40
0
 40
0
 40
0
 40
0
 40
1
 40
1
 40
1
 40
1
 10
149.181360
 20
198.280107
 30
0.0
 10
149.066360
 20
198.278807
 30
0.0
 10
148.949140
 20
198.279980
 30
0.0
 10
148.837140
 20
198.250807
 30
0.0
  0
SPLINE
  5
12f
100
AcDbEntity
  8
Layer_1
 62
7
100
AcDbSpline
 70
8
 71
3
 72
8
 73
4
 74
0
 40
0
 40
0
 40
0
 40
0
 40
1
 40
1
 40
1
 40
1
 10
148.837140
 20
198.250807
 30
0.0
 10
148.596540
 20
198.132628
 30
0.0
 10
148.853640
 20
198.257607
 30
0.0
 10
149.366680
 20
198.570209
 30
0.0
  0
SPLINE
  5
130
100
AcDbEntity
  8
Layer_1
 62
7
100
AcDbSpline
 70
8
 71
3
 72
8
 73
4
 74
0
 40
0
 40
0
 40
0
 40
0
 40
1
 40
1
 40
1
 40
1
 10
149.366680
 20
198.570209
 30
0.0
 10
149.404880
 20
198.593489
 30
0.0
 10
149.311780
 20
198.558829
 30
0.0
 10
149.315080
 20
198.531429
 30
0.0
  0
SPLINE
  5
131
100
AcDbEntity
  8
Layer_1
 62
7
100
AcDbSpline
 70
8
 71
3
 72
8
 73
4
 74
0
 40
0
 40
0
 40
0
 40
0
 40
1
 40
1
 40
1
 40
1
 10
149.315080
 20
198.531429
 30
0.0
 10
149.315900
 20
198.524729
 30
0.0
 10
149.322080
 20
198.519469
 30
0.0
 10
149.325080
 20
198.513489
 30
0.0
  0
SPLINE
  5
132
100
AcDbEntity
  8
Layer_1
 62
7
100
AcDbSpline
 70
8
 71
3
 72
8
 73
4
 74
0
 40
0
 40
0
 40
0
 40
0
 40
1
 40
1
 40
1
 40
1
 10
149.325080
 20
198.513489
 30
0.0
 10
149.420380
 20
198.461939
 30
0.0
 10
149.537250
 20
198.510589
 30
0.0
 10
149.631100
 20
198.543659
 30
0.0
  0
LWPOLYLINE
  5
133
100
AcDbEntity
  8
Layer_1
 62
7
100
AcDbPolyline
 90
3
 70
0
 10
149.853040
 20
198.664627
 30
0.0
 10
149.274260
 20
198.269017
 30
0.0
 10
149.274260
 20
198.269017
 30
0.0
  0
LWPOLYLINE
  5
134
100
AcDbEntity
  8
Layer_1
 62
7
100
AcDbPolyline
 90
3
 70
0
 10
149.631100
 20
198.543659
 30
0.0
 10
149.080460
 20
198.108478
 30
0.0
 10
149.080220
 20
198.108471
 30
0.0
  0
LWPOLYLINE
  5
135
100
AcDbEntity
  8
Layer_1
 62
3
100
AcDbPolyline
 90
3
 70
0
 10
15.875001
 20
178.593760
 30
0.0
 10
17.197917
 20
177.270840
 30
0.0
 10
15.875001
 20
175.947920
 30
0.0
  0
LWPOLYLINE
  5
136
100
AcDbEntity
  8
Layer_1
 62
3
100
AcDbPolyline
 90
3
 70
0
 10
63.500000
 20
175.947920
 30
0.0
 10
64.822917
 20
177.270840
 30
0.0
 10
63.500000
 20
178.593760
 30
0.0
  0
LWPOLYLINE
  5
137
100
AcDbEntity
  8
Layer_1
 62
3
100
AcDbPolyline
 90
2
 70
0
 10
112.447920
 20
177.270840
 30
0.0
 10
109.802080
 20
177.270840
 30
0.0
  0
LWPOLYLINE
  5
138
100
AcDbEntity
  8
Layer_1
 62
3
100
AcDbPolyline
 90
2
 70
0
 10
157.427080
 20
177.270840
 30
0.0
 10
160.072910
 20
177.270840
 30
0.0
  0
LWPOLYLINE
  5
139
100
AcDbEntity
  8
Layer_1
 62
3
100
AcDbPolyline
 90
2
 70
0
 10
14.552084
 20
129.645840
 30
0.0
 10
17.197917
 20
129.645840
 30
0.0
  0
LWPOLYLINE
  5
13a
100
AcDbEntity
  8
Layer_1
 62
3
100
AcDbPolyline
 90
2
 70
0
 10
64.822917
 20
129.645840
 30
0.0
 10
62.177084
 20
129.645840
 30
0.0
  0
LWPOLYLINE
  5
13b
100
AcDbEntity
  8
Layer_1
 62
3
100
AcDbPolyline
 90
2
 70
0
 10
109.802080
 20
130.968760
 30
0.0
 10
112.447920
 20
128.322920
 30
0.0
  0
LWPOLYLINE
  5
13c
100
AcDbEntity
  8
Layer_1
 62
3
100
AcDbPolyline
 90
2
 70
0
 10
112.447920
 20
130.968760
 30
0.0
 10
109.802080
 20
128.322920
 30
0.0
  0
LWPOLYLINE
  5
13d
100
AcDbEntity
  8
Layer_1
 62
3
100
AcDbPolyline
 90
2
 70
0
 10
160.072910
 20
130.968760
 30
0.0
 10
157.427080
 20
128.322920
 30
0.0
  0
LWPOLYLINE
  5
13e
100
AcDbEntity
  8
Layer_1
 62
3
100
AcDbPolyline
 90
2
 70
0
 10
157.427080
 20
130.968760
 30
0.0
 10
160.072910
 20
128.322920
 30
0.0
  0
LWPOLYLINE
  5
13f
100
AcDbEntity
  8
Layer_1
 62
3
100
AcDbPolyline
 90
2
 70
0
 10
14.552084
 20
80.697920
 30
0.0
 10
17.197917
 20
78.052090
 30
0.0
  0
LWPOLYLINE
  5
140
100
AcDbEntity
  8
Layer_1
 62
3
100
AcDbPolyline
 90
2
 70
0
 10
17.197917
 20
80.697920
 30
0.0
 10
14.552084
 20
78.052090
 30
0.0
  0
LWPOLYLINE
  5
141
100
AcDbEntity
  8
Layer_1
 62
3
100
AcDbPolyline
 90
2
 70
0
 10
62.177084
 20
80.697920
 30
0.0
 10
64.822917
 20
78.052090
 30
0.0
  0
LWPOLYLINE
  5
142
100
AcDbEntity
  8
Layer_1
 62
3
100
AcDbPolyline
 90
2
 70
0
 10
64.822917
 20
80.697920
 30
0.0
 10
62.177084
 20
78.052090
 30
0.0
  0
LWPOLYLINE
  5
143
100
AcDbEntity
  8
Layer_1
 62
3
100
AcDbPolyline
 90
4
 70
1
 10
111.125000
 20
80.697920
 30
0.0
 10
109.802080
 20
79.375010
 30
0.0
 10
111.125000
 20
78.052090
 30
0.0
 10
112.447920
 20
79.375010
 30
0.0
  0
LWPOLYLINE
  5
144
100
AcDbEntity
  8
Layer_1
 62
3
100
AcDbPolyline
 90
4
 70
1
 10
158.750000
 20
80.697920
 30
0.0
 10
157.427080
 20
79.375010
 30
0.0
 10
158.750000
 20
78.052090
 30
0.0
 10
160.072910
 20
79.375010
 30
0.0
  0
LWPOLYLINE
  5
145
100
AcDbEntity
  8
Layer_1
 62
7
100
AcDbPolyline
 90
66
 70
1
 10
27.252083
 20
289.983334
 30
0.0
 10
29.104166
 20
283.633335
 30
0.0
 10
33.072916
 20
282.310418
 30
0.0
 10
38.893750
 20
285.485418
 30
0.0
 10
42.333333
 20
282.310418
 30
0.0
 10
39.158333
 20
276.754168
 30
0.0
 10
41.274999
 20
272.520835
 30
0.0
 10
47.624999
 20
270.404168
 30
0.0
 10
47.624999
 20
266.435417
 30
0.0
 10
41.539583
 20
264.583333
 30
0.0
 10
39.687500
 20
259.556250
 30
0.0
 10
42.862499
 20
254.000000
 30
0.0
 10
39.687500
 20
250.825000
 30
0.0
 10
34.395833
 20
253.735417
 30
0.0
 10
29.104166
 20
251.354167
 30
0.0
 10
27.516666
 20
245.268750
 30
0.0
 10
23.283333
 20
245.268750
 30
0.0
 10
21.695833
 20
251.354167
 30
0.0
 10
16.404166
 20
253.470834
 30
0.0
 10
10.847917
 20
250.295834
 30
0.0
 10
7.672917
 20
253.470834
 30
0.0
 10
11.112500
 20
259.027083
 30
0.0
 10
8.995833
 20
264.054167
 30
0.0
 10
2.645833
 20
265.906250
 30
0.0
 10
2.645833
 20
270.139585
 30
0.0
 10
9.260417
 20
271.727085
 30
0.0
 10
11.112500
 20
276.489585
 30
0.0
 10
7.937500
 20
282.310418
 30
0.0
 10
10.847917
 20
285.220834
 30
0.0
 10
16.933333
 20
282.045835
 30
0.0
 10
21.166666
 20
283.897918
 30
0.0
 10
23.018750
 20
290.247918
 30
0.0
 10
26.987500
 20
290.247918
 30
0.0
 10
27.252083
 20
289.983334
 30
0.0
 10
29.104166
 20
283.633335
 30
0.0
 10
33.072916
 20
282.310418
 30
0.0
 10
38.893750
 20
285.485418
 30
0.0
 10
42.333333
 20
282.310418
 30
0.0
 10
39.158333
 20
276.754168
 30
0.0
 10
41.274999
 20
272.520835
 30
0.0
 10
47.624999
 20
270.404168
 30
0.0
 10
47.624999
 20
266.435417
 30
0.0
 10
41.539583
 20
264.583333
 30
0.0
 10
39.687500
 20
259.556250
 30
0.0
 10
42.862499
 20
254.000000
 30
0.0
 10
39.687500
 20
250.825000
 30
0.0
 10
34.395833
 20
253.735417
 30
0.0
 10
29.104166
 20
251.354167
 30
0.0
 10
27.516666
 20
245.268750
 30
0.0
 10
23.283333
 20
245.268750
 30
0.0
 10
21.695833
 20
251.354167
 30
0.0
 10
16.404166
 20
253.470834
 30
0.0
 10
10.847917
 20
250.295834
 30
0.0
 10
7.672917
 20
253.470834
 30
0.0
 10
11.112500
 20
259.027083
 30
0.0
 10
8.995833
 20
264.054167
 30
0.0
 10
2.645833
 20
265.906250
 30
0.0
 10
2.645833
 20
270.139585
 30
0.0
 10
9.260417
 20
271.727085
 30
0.0
 10
11.112500
 20
276.489585
 30
0.0
 10
7.937500
 20
282.310418
 30
0.0
 10
10.847917
 20
285.220834
 30
0.0
 10
16.933333
 20
282.045835
 30
0.0
 10
21.166666
 20
283.897918
 30
0.0
 10
23.018750
 20
290.247918
 30
0.0
 10
26.987500
 20
290.247918
 30
0.0
  0
LWPOLYLINE
  5
146
100
AcDbEntity
  8
Layer_1
 62
7
100
AcDbPolyline
 90
33
 70
1
 10
74.877082
 20
289.718749
 30
0.0
 10
76.729165
 20
283.368750
 30
0.0
 10
80.697915
 20
282.045833
 30
0.0
 10
86.518749
 20
285.220833
 30
0.0
 10
89.958332
 20
282.045833
 30
0.0
 10
86.783332
 20
276.489583
 30
0.0
 10
88.899998
 20
272.256250
 30
0.0
 10
95.249998
 20
270.139583
 30
0.0
 10
95.249998
 20
266.170832
 30
0.0
 10
89.164582
 20
264.318748
 30
0.0
 10
87.312499
 20
259.291665
 30
0.0
 10
90.487498
 20
253.735415
 30
0.0
 10
87.312499
 20
250.560415
 30
0.0
 10
82.020832
 20
253.470832
 30
0.0
 10
76.729165
 20
251.089582
 30
0.0
 10
75.141665
 20
245.004165
 30
0.0
 10
70.908332
 20
245.004165
 30
0.0
 10
69.320832
 20
251.089582
 30
0.0
 10
64.029165
 20
253.206249
 30
0.0
 10
58.472916
 20
250.031249
 30
0.0
 10
55.297916
 20
253.206249
 30
0.0
 10
58.737499
 20
258.762498
 30
0.0
 10
56.620833
 20
263.789582
 30
0.0
 10
50.270833
 20
265.641665
 30
0.0
 10
50.270833
 20
269.875000
 30
0.0
 10
56.885416
 20
271.462500
 30
0.0
 10
58.737499
 20
276.225000
 30
0.0
 10
55.562499
 20
282.045833
 30
0.0
 10
58.472916
 20
284.956249
 30
0.0
 10
64.558332
 20
281.781250
 30
0.0
 10
68.791665
 20
283.633333
 30
0.0
 10
70.643749
 20
289.983332
 30
0.0
 10
74.612499
 20
289.983332
 30
0.0
  0
LWPOLYLINE
  5
147
100
AcDbEntity
  8
Layer_1
 62
7
100
AcDbPolyline
 90
33
 70
1
 10
170.127080
 20
290.777082
 30
0.0
 10
171.979170
 20
284.427084
 30
0.0
 10
175.947920
 20
283.104167
 30
0.0
 10
181.768750
 20
286.279167
 30
0.0
 10
185.208330
 20
283.104167
 30
0.0
 10
182.033330
 20
277.547917
 30
0.0
 10
184.150000
 20
273.314584
 30
0.0
 10
190.500000
 20
271.197917
 30
0.0
 10
190.500000
 20
267.229166
 30
0.0
 10
184.414580
 20
265.377082
 30
0.0
 10
182.562500
 20
260.349999
 30
0.0
 10
185.737500
 20
254.793749
 30
0.0
 10
182.562500
 20
251.618749
 30
0.0
 10
177.270830
 20
254.529166
 30
0.0
 10
171.979170
 20
252.147916
 30
0.0
 10
170.391670
 20
246.062499
 30
0.0
 10
166.158330
 20
246.062499
 30
0.0
 10
164.570830
 20
252.147916
 30
0.0
 10
159.279170
 20
254.264583
 30
0.0
 10
153.722920
 20
251.089583
 30
0.0
 10
150.547920
 20
254.264583
 30
0.0
 10
153.987500
 20
259.820832
 30
0.0
 10
151.870830
 20
264.847916
 30
0.0
 10
145.520830
 20
266.699999
 30
0.0
 10
145.520830
 20
270.933334
 30
0.0
 10
152.135420
 20
272.520834
 30
0.0
 10
153.987500
 20
277.283334
 30
0.0
 10
150.812500
 20
283.104167
 30
0.0
 10
153.722920
 20
286.014583
 30
0.0
 10
159.808330
 20
282.839584
 30
0.0
 10
164.041670
 20
284.691667
 30
0.0
 10
165.893750
 20
291.041666
 30
0.0
 10
169.862500
 20
291.041666
 30
0.0
  0
LWPOLYLINE
  5
148
100
AcDbEntity
  8
Layer_1
 62
7
100
AcDbPolyline
 90
48
 70
1
 10
163.777090
 20
235.743750
 30
0.0
 10
165.629170
 20
240.770833
 30
0.0
 10
166.422920
 20
242.093750
 30
0.0
 10
169.068750
 20
242.093750
 30
0.0
 10
170.127090
 20
240.770833
 30
0.0
 10
171.714590
 20
235.743750
 30
0.0
 10
175.947920
 20
234.156250
 30
0.0
 10
180.975000
 20
236.802083
 30
0.0
 10
182.033330
 20
236.802083
 30
0.0
 10
184.414580
 20
234.685417
 30
0.0
 10
184.414580
 20
233.097917
 30
0.0
 10
181.768750
 20
228.600000
 30
0.0
 10
183.885420
 20
224.102083
 30
0.0
 10
188.912500
 20
222.514583
 30
0.0
 10
189.970830
 20
221.720833
 30
0.0
 10
190.235420
 20
218.810415
 30
0.0
 10
188.912500
 20
218.016665
 30
0.0
 10
184.150000
 20
216.429165
 30
0.0
 10
182.297920
 20
211.402082
 30
0.0
 10
184.943750
 20
206.904166
 30
0.0
 10
184.943750
 20
205.316666
 30
0.0
 10
183.091670
 20
203.199999
 30
0.0
 10
181.504170
 20
203.199999
 30
0.0
 10
177.006250
 20
205.581249
 30
0.0
 10
171.714590
 20
203.199999
 30
0.0
 10
170.391670
 20
198.172916
 30
0.0
 10
169.333340
 20
197.114582
 30
0.0
 10
166.687500
 20
197.114582
 30
0.0
 10
165.629170
 20
197.908332
 30
0.0
 10
164.306250
 20
202.935416
 30
0.0
 10
159.014590
 20
205.316666
 30
0.0
 10
154.516670
 20
202.670832
 30
0.0
 10
152.664590
 20
202.935416
 30
0.0
 10
151.077090
 20
204.522916
 30
0.0
 10
151.077090
 20
206.374999
 30
0.0
 10
153.722920
 20
210.872915
 30
0.0
 10
151.606250
 20
215.899999
 30
0.0
 10
146.843750
 20
217.222915
 30
0.0
 10
145.256250
 20
218.810415
 30
0.0
 10
145.256250
 20
221.191665
 30
0.0
 10
146.843750
 20
222.250000
 30
0.0
 10
151.870840
 20
223.572917
 30
0.0
 10
153.722920
 20
228.335417
 30
0.0
 10
151.341670
 20
232.833333
 30
0.0
 10
151.341670
 20
234.950000
 30
0.0
 10
152.929170
 20
236.537500
 30
0.0
 10
154.781250
 20
236.272916
 30
0.0
 10
159.279170
 20
233.891667
 30
0.0
  0
LWPOLYLINE
  5
149
100
AcDbEntity
  8
Layer_1
 62
7
100
AcDbPolyline
 90
33
 70
1
 10
122.502080
 20
290.777082
 30
0.0
 10
124.354170
 20
284.427083
 30
0.0
 10
128.322920
 20
283.104166
 30
0.0
 10
134.143750
 20
286.279166
 30
0.0
 10
137.583330
 20
283.104166
 30
0.0
 10
134.408330
 20
277.547916
 30
0.0
 10
136.525000
 20
273.314583
 30
0.0
 10
142.875000
 20
271.197916
 30
0.0
 10
142.875000
 20
267.229165
 30
0.0
 10
136.789580
 20
265.377081
 30
0.0
 10
134.937500
 20
260.349998
 30
0.0
 10
138.112500
 20
254.793748
 30
0.0
 10
134.937500
 20
251.618748
 30
0.0
 10
129.645830
 20
254.529165
 30
0.0
 10
124.354170
 20
252.147915
 30
0.0
 10
122.766670
 20
246.062498
 30
0.0
 10
118.533330
 20
246.062498
 30
0.0
 10
116.945830
 20
252.147915
 30
0.0
 10
111.654170
 20
254.264582
 30
0.0
 10
106.097920
 20
251.089582
 30
0.0
 10
102.922920
 20
254.264582
 30
0.0
 10
106.362500
 20
259.820831
 30
0.0
 10
104.245830
 20
264.847915
 30
0.0
 10
97.895827
 20
266.699998
 30
0.0
 10
97.895827
 20
270.933333
 30
0.0
 10
104.510420
 20
272.520833
 30
0.0
 10
106.362500
 20
277.283333
 30
0.0
 10
103.187500
 20
283.104166
 30
0.0
 10
106.097920
 20
286.014582
 30
0.0
 10
112.183330
 20
282.839583
 30
0.0
 10
116.416670
 20
284.691666
 30
0.0
 10
118.268750
 20
291.041665
 30
0.0
 10
122.237500
 20
291.041665
 30
0.0
  0
LWPOLYLINE
  5
14a
100
AcDbEntity
  8
Layer_1
 62
7
100
AcDbPolyline
 90
48
 70
1
 10
116.681250
 20
235.743750
 30
0.0
 10
118.533330
 20
240.770833
 30
0.0
 10
119.327080
 20
242.093750
 30
0.0
 10
121.972910
 20
242.093750
 30
0.0
 10
123.031250
 20
240.770833
 30
0.0
 10
124.618750
 20
235.743750
 30
0.0
 10
128.852080
 20
234.156250
 30
0.0
 10
133.879160
 20
236.802083
 30
0.0
 10
134.937490
 20
236.802083
 30
0.0
 10
137.318740
 20
234.685417
 30
0.0
 10
137.318740
 20
233.097917
 30
0.0
 10
134.672910
 20
228.600000
 30
0.0
 10
136.789580
 20
224.102083
 30
0.0
 10
141.816660
 20
222.514583
 30
0.0
 10
142.874990
 20
221.720833
 30
0.0
 10
143.139580
 20
218.810415
 30
0.0
 10
141.816660
 20
218.016665
 30
0.0
 10
137.054160
 20
216.429165
 30
0.0
 10
135.202080
 20
211.402082
 30
0.0
 10
137.847910
 20
206.904166
 30
0.0
 10
137.847910
 20
205.316666
 30
0.0
 10
135.995830
 20
203.199999
 30
0.0
 10
134.408330
 20
203.199999
 30
0.0
 10
129.910410
 20
205.581249
 30
0.0
 10
124.618750
 20
203.199999
 30
0.0
 10
123.295830
 20
198.172916
 30
0.0
 10
122.237500
 20
197.114579
 30
0.0
 10
119.591660
 20
197.114579
 30
0.0
 10
118.533330
 20
197.908332
 30
0.0
 10
117.210410
 20
202.935416
 30
0.0
 10
111.918750
 20
205.316666
 30
0.0
 10
107.420830
 20
202.670832
 30
0.0
 10
105.568750
 20
202.935416
 30
0.0
 10
103.981250
 20
204.522916
 30
0.0
 10
103.981250
 20
206.374999
 30
0.0
 10
106.627080
 20
210.872915
 30
0.0
 10
104.510410
 20
215.899999
 30
0.0
 10
99.747910
 20
217.222915
 30
0.0
 10
98.160410
 20
218.810415
 30
0.0
 10
98.160410
 20
221.191665
 30
0.0
 10
99.747910
 20
222.250000
 30
0.0
 10
104.775000
 20
223.572917
 30
0.0
 10
106.627080
 20
228.335417
 30
0.0
 10
104.245830
 20
232.833333
 30
0.0
 10
104.245830
 20
234.950000
 30
0.0
 10
105.833330
 20
236.537500
 30
0.0
 10
107.685410
 20
236.272916
 30
0.0
 10
112.183330
 20
233.891667
 30
0.0
  0
LWPOLYLINE
  5
14b
100
AcDbEntity
  8
Layer_1
 62
7
100
AcDbPolyline
 90
48
 70
1
 10
68.791673
 20
235.743750
 30
0.0
 10
70.643753
 20
240.770833
 30
0.0
 10
71.437503
 20
242.093750
 30
0.0
 10
74.083333
 20
242.093750
 30
0.0
 10
75.141673
 20
240.770833
 30
0.0
 10
76.729173
 20
235.743750
 30
0.0
 10
80.962503
 20
234.156250
 30
0.0
 10
85.989583
 20
236.802083
 30
0.0
 10
87.047913
 20
236.802083
 30
0.0
 10
89.429163
 20
234.685417
 30
0.0
 10
89.429163
 20
233.097917
 30
0.0
 10
86.783333
 20
228.600000
 30
0.0
 10
88.900003
 20
224.102083
 30
0.0
 10
93.927083
 20
222.514583
 30
0.0
 10
94.985413
 20
221.720833
 30
0.0
 10
95.250003
 20
218.810415
 30
0.0
 10
93.927083
 20
218.016665
 30
0.0
 10
89.164583
 20
216.429165
 30
0.0
 10
87.312503
 20
211.402082
 30
0.0
 10
89.958333
 20
206.904166
 30
0.0
 10
89.958333
 20
205.316666
 30
0.0
 10
88.106253
 20
203.199999
 30
0.0
 10
86.518753
 20
203.199999
 30
0.0
 10
82.020833
 20
205.581249
 30
0.0
 10
76.729173
 20
203.199999
 30
0.0
 10
75.406253
 20
198.172916
 30
0.0
 10
74.347923
 20
197.114582
 30
0.0
 10
71.702083
 20
197.114582
 30
0.0
 10
70.643753
 20
197.908332
 30
0.0
 10
69.320833
 20
202.935416
 30
0.0
 10
64.029173
 20
205.316666
 30
0.0
 10
59.531253
 20
202.670832
 30
0.0
 10
57.679173
 20
202.935416
 30
0.0
 10
56.091673
 20
204.522916
 30
0.0
 10
56.091673
 20
206.374999
 30
0.0
 10
58.737503
 20
210.872915
 30
0.0
 10
56.620833
 20
215.899999
 30
0.0
 10
51.858333
 20
217.222915
 30
0.0
 10
50.270833
 20
218.810415
 30
0.0
 10
50.270833
 20
221.191665
 30
0.0
 10
51.858333
 20
222.250000
 30
0.0
 10
56.885423
 20
223.572917
 30
0.0
 10
58.737503
 20
228.335417
 30
0.0
 10
56.356253
 20
232.833333
 30
0.0
 10
56.356253
 20
234.950000
 30
0.0
 10
57.943753
 20
236.537500
 30
0.0
 10
59.795833
 20
236.272916
 30
0.0
 10
64.293753
 20
233.891667
 30
0.0
  0
LWPOLYLINE
  5
14c
100
AcDbEntity
  8
Layer_1
 62
7
100
AcDbPolyline
 90
48
 70
1
 10
21.166670
 20
235.743750
 30
0.0
 10
23.018750
 20
240.770833
 30
0.0
 10
23.812500
 20
242.093750
 30
0.0
 10
26.458330
 20
242.093750
 30
0.0
 10
27.516670
 20
240.770833
 30
0.0
 10
29.104170
 20
235.743750
 30
0.0
 10
33.337500
 20
234.156250
 30
0.0
 10
38.364580
 20
236.802083
 30
0.0
 10
39.422910
 20
236.802083
 30
0.0
 10
41.804160
 20
234.685417
 30
0.0
 10
41.804160
 20
233.097917
 30
0.0
 10
39.158330
 20
228.600000
 30
0.0
 10
41.275000
 20
224.102083
 30
0.0
 10
46.302080
 20
222.514583
 30
0.0
 10
47.360410
 20
221.720833
 30
0.0
 10
47.625000
 20
218.810415
 30
0.0
 10
46.302080
 20
218.016665
 30
0.0
 10
41.539580
 20
216.429165
 30
0.0
 10
39.687500
 20
211.402082
 30
0.0
 10
42.333330
 20
206.904166
 30
0.0
 10
42.333330
 20
205.316666
 30
0.0
 10
40.481250
 20
203.199999
 30
0.0
 10
38.893750
 20
203.199999
 30
0.0
 10
34.395830
 20
205.581249
 30
0.0
 10
29.104170
 20
203.199999
 30
0.0
 10
27.781250
 20
198.172916
 30
0.0
 10
26.722920
 20
197.114582
 30
0.0
 10
24.077080
 20
197.114582
 30
0.0
 10
23.018750
 20
197.908332
 30
0.0
 10
21.695830
 20
202.935416
 30
0.0
 10
16.404170
 20
205.316666
 30
0.0
 10
11.906250
 20
202.670832
 30
0.0
 10
10.054170
 20
202.935416
 30
0.0
 10
8.466670
 20
204.522916
 30
0.0
 10
8.466670
 20
206.374999
 30
0.0
 10
11.112500
 20
210.872915
 30
0.0
 10
8.995830
 20
215.899999
 30
0.0
 10
4.233330
 20
217.222915
 30
0.0
 10
2.645830
 20
218.810415
 30
0.0
 10
2.645830
 20
221.191665
 30
0.0
 10
4.233330
 20
222.250000
 30
0.0
 10
9.260420
 20
223.572917
 30
0.0
 10
11.112500
 20
228.335417
 30
0.0
 10
8.731250
 20
232.833333
 30
0.0
 10
8.731250
 20
234.950000
 30
0.0
 10
10.318750
 20
236.537500
 30
0.0
 10
12.170830
 20
236.272916
 30
0.0
 10
16.668750
 20
233.891667
 30
0.0
  0
LWPOLYLINE
  5
14d
100
AcDbEntity
  8
Layer_1
 62
7
100
AcDbPolyline
 90
48
 70
1
 10
21.166670
 20
188.118750
 30
0.0
 10
23.018750
 20
193.145840
 30
0.0
 10
23.812500
 20
194.468750
 30
0.0
 10
26.458330
 20
194.468750
 30
0.0
 10
27.516670
 20
193.145840
 30
0.0
 10
29.104170
 20
188.118750
 30
0.0
 10
33.337500
 20
186.531250
 30
0.0
 10
38.364580
 20
189.177090
 30
0.0
 10
39.422910
 20
189.177090
 30
0.0
 10
41.804160
 20
187.060420
 30
0.0
 10
41.804160
 20
185.472920
 30
0.0
 10
39.158330
 20
180.975000
 30
0.0
 10
41.275000
 20
176.477090
 30
0.0
 10
46.302080
 20
174.889590
 30
0.0
 10
47.360410
 20
174.095840
 30
0.0
 10
47.625000
 20
171.185420
 30
0.0
 10
46.302080
 20
170.391670
 30
0.0
 10
41.539580
 20
168.804170
 30
0.0
 10
39.687500
 20
163.777090
 30
0.0
 10
42.333330
 20
159.279170
 30
0.0
 10
42.333330
 20
157.691670
 30
0.0
 10
40.481250
 20
155.575000
 30
0.0
 10
38.893750
 20
155.575000
 30
0.0
 10
34.395830
 20
157.956250
 30
0.0
 10
29.104170
 20
155.575000
 30
0.0
 10
27.781250
 20
150.547920
 30
0.0
 10
26.722920
 20
149.489590
 30
0.0
 10
24.077080
 20
149.489590
 30
0.0
 10
23.018750
 20
150.283340
 30
0.0
 10
21.695830
 20
155.310420
 30
0.0
 10
16.404170
 20
157.691670
 30
0.0
 10
11.906250
 20
155.045840
 30
0.0
 10
10.054170
 20
155.310420
 30
0.0
 10
8.466671
 20
156.897920
 30
0.0
 10
8.466671
 20
158.750000
 30
0.0
 10
11.112500
 20
163.247920
 30
0.0
 10
8.995831
 20
168.275000
 30
0.0
 10
4.233331
 20
169.597920
 30
0.0
 10
2.645831
 20
171.185420
 30
0.0
 10
2.645831
 20
173.566670
 30
0.0
 10
4.233331
 20
174.625000
 30
0.0
 10
9.260421
 20
175.947920
 30
0.0
 10
11.112500
 20
180.710420
 30
0.0
 10
8.731251
 20
185.208340
 30
0.0
 10
8.731251
 20
187.325000
 30
0.0
 10
10.318750
 20
188.912500
 30
0.0
 10
12.170830
 20
188.647920
 30
0.0
 10
16.668750
 20
186.266670
 30
0.0
  0
LWPOLYLINE
  5
14e
100
AcDbEntity
  8
Layer_1
 62
7
100
AcDbPolyline
 90
48
 70
1
 10
68.791670
 20
188.118750
 30
0.0
 10
70.643750
 20
193.145840
 30
0.0
 10
71.437500
 20
194.468750
 30
0.0
 10
74.083330
 20
194.468750
 30
0.0
 10
75.141670
 20
193.145840
 30
0.0
 10
76.729170
 20
188.118750
 30
0.0
 10
80.962500
 20
186.531250
 30
0.0
 10
85.989580
 20
189.177090
 30
0.0
 10
87.047910
 20
189.177090
 30
0.0
 10
89.429160
 20
187.060420
 30
0.0
 10
89.429160
 20
185.472920
 30
0.0
 10
86.783330
 20
180.975000
 30
0.0
 10
88.900000
 20
176.477090
 30
0.0
 10
93.927080
 20
174.889590
 30
0.0
 10
94.985410
 20
174.095840
 30
0.0
 10
95.250000
 20
171.185420
 30
0.0
 10
93.927080
 20
170.391670
 30
0.0
 10
89.164580
 20
168.804170
 30
0.0
 10
87.312500
 20
163.777090
 30
0.0
 10
89.958330
 20
159.279170
 30
0.0
 10
89.958330
 20
157.691670
 30
0.0
 10
88.106250
 20
155.575000
 30
0.0
 10
86.518750
 20
155.575000
 30
0.0
 10
82.020830
 20
157.956250
 30
0.0
 10
76.729170
 20
155.575000
 30
0.0
 10
75.406250
 20
150.547920
 30
0.0
 10
74.347920
 20
149.489590
 30
0.0
 10
71.702080
 20
149.489590
 30
0.0
 10
70.643750
 20
150.283340
 30
0.0
 10
69.320830
 20
155.310420
 30
0.0
 10
64.029170
 20
157.691670
 30
0.0
 10
59.531250
 20
155.045840
 30
0.0
 10
57.679170
 20
155.310420
 30
0.0
 10
56.091671
 20
156.897920
 30
0.0
 10
56.091671
 20
158.750000
 30
0.0
 10
58.737500
 20
163.247920
 30
0.0
 10
56.620831
 20
168.275000
 30
0.0
 10
51.858331
 20
169.597920
 30
0.0
 10
50.270831
 20
171.185420
 30
0.0
 10
50.270831
 20
173.566670
 30
0.0
 10
51.858331
 20
174.625000
 30
0.0
 10
56.885421
 20
175.947920
 30
0.0
 10
58.737500
 20
180.710420
 30
0.0
 10
56.356251
 20
185.208340
 30
0.0
 10
56.356251
 20
187.325000
 30
0.0
 10
57.943750
 20
188.912500
 30
0.0
 10
59.795830
 20
188.647920
 30
0.0
 10
64.293750
 20
186.266670
 30
0.0
  0
LWPOLYLINE
  5
14f
100
AcDbEntity
  8
Layer_1
 62
7
100
AcDbPolyline
 90
48
 70
1
 10
116.416670
 20
188.118750
 30
0.0
 10
118.268750
 20
193.145840
 30
0.0
 10
119.062500
 20
194.468750
 30
0.0
 10
121.708330
 20
194.468750
 30
0.0
 10
122.766670
 20
193.145840
 30
0.0
 10
124.354170
 20
188.118750
 30
0.0
 10
128.587500
 20
186.531250
 30
0.0
 10
133.614580
 20
189.177090
 30
0.0
 10
134.672910
 20
189.177090
 30
0.0
 10
137.054160
 20
187.060420
 30
0.0
 10
137.054160
 20
185.472920
 30
0.0
 10
134.408330
 20
180.975000
 30
0.0
 10
136.525000
 20
176.477090
 30
0.0
 10
141.552080
 20
174.889590
 30
0.0
 10
142.610410
 20
174.095840
 30
0.0
 10
142.875000
 20
171.185420
 30
0.0
 10
141.552080
 20
170.391670
 30
0.0
 10
136.789580
 20
168.804170
 30
0.0
 10
134.937500
 20
163.777090
 30
0.0
 10
137.583330
 20
159.279170
 30
0.0
 10
137.583330
 20
157.691670
 30
0.0
 10
135.731250
 20
155.575000
 30
0.0
 10
134.143750
 20
155.575000
 30
0.0
 10
129.645830
 20
157.956250
 30
0.0
 10
124.354170
 20
155.575000
 30
0.0
 10
123.031250
 20
150.547920
 30
0.0
 10
121.972920
 20
149.489590
 30
0.0
 10
119.327080
 20
149.489590
 30
0.0
 10
118.268750
 20
150.283340
 30
0.0
 10
116.945830
 20
155.310420
 30
0.0
 10
111.654170
 20
157.691670
 30
0.0
 10
107.156250
 20
155.045840
 30
0.0
 10
105.304170
 20
155.310420
 30
0.0
 10
103.716670
 20
156.897920
 30
0.0
 10
103.716670
 20
158.750000
 30
0.0
 10
106.362500
 20
163.247920
 30
0.0
 10
104.245830
 20
168.275000
 30
0.0
 10
99.483331
 20
169.597920
 30
0.0
 10
97.895831
 20
171.185420
 30
0.0
 10
97.895831
 20
173.566670
 30
0.0
 10
99.483331
 20
174.625000
 30
0.0
 10
104.510420
 20
175.947920
 30
0.0
 10
106.362500
 20
180.710420
 30
0.0
 10
103.981250
 20
185.208340
 30
0.0
 10
103.981250
 20
187.325000
 30
0.0
 10
105.568750
 20
188.912500
 30
0.0
 10
107.420830
 20
188.647920
 30
0.0
 10
111.918750
 20
186.266670
 30
0.0
  0
LWPOLYLINE
  5
150
100
AcDbEntity
  8
Layer_1
 62
7
100
AcDbPolyline
 90
48
 70
1
 10
164.041670
 20
188.118750
 30
0.0
 10
165.893750
 20
193.145840
 30
0.0
 10
166.687500
 20
194.468750
 30
0.0
 10
169.333330
 20
194.468750
 30
0.0
 10
170.391670
 20
193.145840
 30
0.0
 10
171.979170
 20
188.118750
 30
0.0
 10
176.212500
 20
186.531250
 30
0.0
 10
181.239580
 20
189.177090
 30
0.0
 10
182.297910
 20
189.177090
 30
0.0
 10
184.679160
 20
187.060420
 30
0.0
 10
184.679160
 20
185.472920
 30
0.0
 10
182.033330
 20
180.975000
 30
0.0
 10
184.150000
 20
176.477090
 30
0.0
 10
189.177080
 20
174.889590
 30
0.0
 10
190.235410
 20
174.095840
 30
0.0
 10
190.500000
 20
171.185420
 30
0.0
 10
189.177080
 20
170.391670
 30
0.0
 10
184.414580
 20
168.804170
 30
0.0
 10
182.562500
 20
163.777090
 30
0.0
 10
185.208330
 20
159.279170
 30
0.0
 10
185.208330
 20
157.691670
 30
0.0
 10
183.356250
 20
155.575000
 30
0.0
 10
181.768750
 20
155.575000
 30
0.0
 10
177.270830
 20
157.956250
 30
0.0
 10
171.979170
 20
155.575000
 30
0.0
 10
170.656250
 20
150.547920
 30
0.0
 10
169.597920
 20
149.489590
 30
0.0
 10
166.952080
 20
149.489590
 30
0.0
 10
165.893750
 20
150.283340
 30
0.0
 10
164.570830
 20
155.310420
 30
0.0
 10
159.279170
 20
157.691670
 30
0.0
 10
154.781250
 20
155.045840
 30
0.0
 10
152.929170
 20
155.310420
 30
0.0
 10
151.341670
 20
156.897920
 30
0.0
 10
151.341670
 20
158.750000
 30
0.0
 10
153.987500
 20
163.247920
 30
0.0
 10
151.870830
 20
168.275000
 30
0.0
 10
147.108330
 20
169.597920
 30
0.0
 10
145.520830
 20
171.185420
 30
0.0
 10
145.520830
 20
173.566670
 30
0.0
 10
147.108330
 20
174.625000
 30
0.0
 10
152.135420
 20
175.947920
 30
0.0
 10
153.987500
 20
180.710420
 30
0.0
 10
151.606250
 20
185.208340
 30
0.0
 10
151.606250
 20
187.325000
 30
0.0
 10
153.193750
 20
188.912500
 30
0.0
 10
155.045830
 20
188.647920
 30
0.0
 10
159.543750
 20
186.266670
 30
0.0
  0
LWPOLYLINE
  5
151
100
AcDbEntity
  8
Layer_1
 62
7
100
AcDbPolyline
 90
48
 70
1
 10
164.041670
 20
140.493750
 30
0.0
 10
165.893750
 20
145.520840
 30
0.0
 10
166.687500
 20
146.843750
 30
0.0
 10
169.333330
 20
146.843750
 30
0.0
 10
170.391670
 20
145.520840
 30
0.0
 10
171.979170
 20
140.493750
 30
0.0
 10
176.212500
 20
138.906250
 30
0.0
 10
181.239580
 20
141.552090
 30
0.0
 10
182.297910
 20
141.552090
 30
0.0
 10
184.679160
 20
139.435420
 30
0.0
 10
184.679160
 20
137.847920
 30
0.0
 10
182.033330
 20
133.350000
 30
0.0
 10
184.150000
 20
128.852090
 30
0.0
 10
189.177080
 20
127.264590
 30
0.0
 10
190.235410
 20
126.470840
 30
0.0
 10
190.500000
 20
123.560420
 30
0.0
 10
189.177080
 20
122.766670
 30
0.0
 10
184.414580
 20
121.179170
 30
0.0
 10
182.562500
 20
116.152090
 30
0.0
 10
185.208330
 20
111.654170
 30
0.0
 10
185.208330
 20
110.066670
 30
0.0
 10
183.356250
 20
107.950000
 30
0.0
 10
181.768750
 20
107.950000
 30
0.0
 10
177.270830
 20
110.331250
 30
0.0
 10
171.979170
 20
107.950000
 30
0.0
 10
170.656250
 20
102.922920
 30
0.0
 10
169.597920
 20
101.864590
 30
0.0
 10
166.952080
 20
101.864590
 30
0.0
 10
165.893750
 20
102.658340
 30
0.0
 10
164.570830
 20
107.685420
 30
0.0
 10
159.279170
 20
110.066670
 30
0.0
 10
154.781250
 20
107.420840
 30
0.0
 10
152.929170
 20
107.685420
 30
0.0
 10
151.341670
 20
109.272920
 30
0.0
 10
151.341670
 20
111.125000
 30
0.0
 10
153.987500
 20
115.622920
 30
0.0
 10
151.870830
 20
120.650000
 30
0.0
 10
147.108330
 20
121.972920
 30
0.0
 10
145.520830
 20
123.560420
 30
0.0
 10
145.520830
 20
125.941670
 30
0.0
 10
147.108330
 20
127.000000
 30
0.0
 10
152.135420
 20
128.322920
 30
0.0
 10
153.987500
 20
133.085420
 30
0.0
 10
151.606250
 20
137.583340
 30
0.0
 10
151.606250
 20
139.700000
 30
0.0
 10
153.193750
 20
141.287500
 30
0.0
 10
155.045830
 20
141.022920
 30
0.0
 10
159.543750
 20
138.641670
 30
0.0
  0
LWPOLYLINE
  5
152
100
AcDbEntity
  8
Layer_1
 62
7
100
AcDbPolyline
 90
48
 70
1
 10
116.416670
 20
140.493750
 30
0.0
 10
118.268750
 20
145.520840
 30
0.0
 10
119.062500
 20
146.843750
 30
0.0
 10
121.708330
 20
146.843750
 30
0.0
 10
122.766670
 20
145.520840
 30
0.0
 10
124.354170
 20
140.493750
 30
0.0
 10
128.587500
 20
138.906250
 30
0.0
 10
133.614580
 20
141.552090
 30
0.0
 10
134.672910
 20
141.552090
 30
0.0
 10
137.054160
 20
139.435420
 30
0.0
 10
137.054160
 20
137.847920
 30
0.0
 10
134.408330
 20
133.350000
 30
0.0
 10
136.525000
 20
128.852090
 30
0.0
 10
141.552080
 20
127.264590
 30
0.0
 10
142.610410
 20
126.470840
 30
0.0
 10
142.875000
 20
123.560420
 30
0.0
 10
141.552080
 20
122.766670
 30
0.0
 10
136.789580
 20
121.179170
 30
0.0
 10
134.937500
 20
116.152090
 30
0.0
 10
137.583330
 20
111.654170
 30
0.0
 10
137.583330
 20
110.066670
 30
0.0
 10
135.731250
 20
107.950000
 30
0.0
 10
134.143750
 20
107.950000
 30
0.0
 10
129.645830
 20
110.331250
 30
0.0
 10
124.354170
 20
107.950000
 30
0.0
 10
123.031250
 20
102.922920
 30
0.0
 10
121.972920
 20
101.864590
 30
0.0
 10
119.327080
 20
101.864590
 30
0.0
 10
118.268750
 20
102.658340
 30
0.0
 10
116.945830
 20
107.685420
 30
0.0
 10
111.654170
 20
110.066670
 30
0.0
 10
107.156250
 20
107.420840
 30
0.0
 10
105.304170
 20
107.685420
 30
0.0
 10
103.716670
 20
109.272920
 30
0.0
 10
103.716670
 20
111.125000
 30
0.0
 10
106.362500
 20
115.622920
 30
0.0
 10
104.245830
 20
120.650000
 30
0.0
 10
99.483330
 20
121.972920
 30
0.0
 10
97.895830
 20
123.560420
 30
0.0
 10
97.895830
 20
125.941670
 30
0.0
 10
99.483330
 20
127.000000
 30
0.0
 10
104.510420
 20
128.322920
 30
0.0
 10
106.362500
 20
133.085420
 30
0.0
 10
103.981250
 20
137.583340
 30
0.0
 10
103.981250
 20
139.700000
 30
0.0
 10
105.568750
 20
141.287500
 30
0.0
 10
107.420830
 20
141.022920
 30
0.0
 10
111.918750
 20
138.641670
 30
0.0
  0
LWPOLYLINE
  5
153
100
AcDbEntity
  8
Layer_1
 62
7
100
AcDbPolyline
 90
48
 70
1
 10
68.791667
 20
140.493740
 30
0.0
 10
70.643747
 20
145.520830
 30
0.0
 10
71.437497
 20
146.843740
 30
0.0
 10
74.083327
 20
146.843740
 30
0.0
 10
75.141667
 20
145.520830
 30
0.0
 10
76.729167
 20
140.493740
 30
0.0
 10
80.962497
 20
138.906240
 30
0.0
 10
85.989577
 20
141.552080
 30
0.0
 10
87.047907
 20
141.552080
 30
0.0
 10
89.429157
 20
139.435410
 30
0.0
 10
89.429157
 20
137.847910
 30
0.0
 10
86.783327
 20
133.349990
 30
0.0
 10
88.899997
 20
128.852080
 30
0.0
 10
93.927077
 20
127.264580
 30
0.0
 10
94.985407
 20
126.470830
 30
0.0
 10
95.249997
 20
123.560410
 30
0.0
 10
93.927077
 20
122.766660
 30
0.0
 10
89.164577
 20
121.179160
 30
0.0
 10
87.312497
 20
116.152080
 30
0.0
 10
89.958327
 20
111.654160
 30
0.0
 10
89.958327
 20
110.066660
 30
0.0
 10
88.106247
 20
107.949990
 30
0.0
 10
86.518747
 20
107.949990
 30
0.0
 10
82.020827
 20
110.331240
 30
0.0
 10
76.729167
 20
107.949990
 30
0.0
 10
75.406247
 20
102.922910
 30
0.0
 10
74.347917
 20
101.864580
 30
0.0
 10
71.702077
 20
101.864580
 30
0.0
 10
70.643747
 20
102.658330
 30
0.0
 10
69.320827
 20
107.685410
 30
0.0
 10
64.029167
 20
110.066660
 30
0.0
 10
59.531247
 20
107.420830
 30
0.0
 10
57.679167
 20
107.685410
 30
0.0
 10
56.091667
 20
109.272910
 30
0.0
 10
56.091667
 20
111.124990
 30
0.0
 10
58.737497
 20
115.622910
 30
0.0
 10
56.620827
 20
120.649990
 30
0.0
 10
51.858327
 20
121.972910
 30
0.0
 10
50.270827
 20
123.560410
 30
0.0
 10
50.270827
 20
125.941660
 30
0.0
 10
51.858327
 20
126.999990
 30
0.0
 10
56.885417
 20
128.322910
 30
0.0
 10
58.737497
 20
133.085410
 30
0.0
 10
56.356247
 20
137.583330
 30
0.0
 10
56.356247
 20
139.699990
 30
0.0
 10
57.943747
 20
141.287490
 30
0.0
 10
59.795827
 20
141.022910
 30
0.0
 10
64.293747
 20
138.641660
 30
0.0
  0
LWPOLYLINE
  5
154
100
AcDbEntity
  8
Layer_1
 62
7
100
AcDbPolyline
 90
48
 70
1
 10
21.166673
 20
140.493750
 30
0.0
 10
23.018753
 20
145.520840
 30
0.0
 10
23.812503
 20
146.843750
 30
0.0
 10
26.458333
 20
146.843750
 30
0.0
 10
27.516673
 20
145.520840
 30
0.0
 10
29.104173
 20
140.493750
 30
0.0
 10
33.337503
 20
138.906250
 30
0.0
 10
38.364583
 20
141.552090
 30
0.0
 10
39.422913
 20
141.552090
 30
0.0
 10
41.804163
 20
139.435420
 30
0.0
 10
41.804163
 20
137.847920
 30
0.0
 10
39.158333
 20
133.350000
 30
0.0
 10
41.275003
 20
128.852090
 30
0.0
 10
46.302083
 20
127.264590
 30
0.0
 10
47.360413
 20
126.470840
 30
0.0
 10
47.625003
 20
123.560420
 30
0.0
 10
46.302083
 20
122.766670
 30
0.0
 10
41.539583
 20
121.179170
 30
0.0
 10
39.687503
 20
116.152090
 30
0.0
 10
42.333333
 20
111.654170
 30
0.0
 10
42.333333
 20
110.066670
 30
0.0
 10
40.481253
 20
107.950000
 30
0.0
 10
38.893753
 20
107.950000
 30
0.0
 10
34.395833
 20
110.331250
 30
0.0
 10
29.104173
 20
107.950000
 30
0.0
 10
27.781253
 20
102.922920
 30
0.0
 10
26.722923
 20
101.864590
 30
0.0
 10
24.077083
 20
101.864590
 30
0.0
 10
23.018753
 20
102.658340
 30
0.0
 10
21.695833
 20
107.685420
 30
0.0
 10
16.404173
 20
110.066670
 30
0.0
 10
11.906253
 20
107.420840
 30
0.0
 10
10.054173
 20
107.685420
 30
0.0
 10
8.466674
 20
109.272920
 30
0.0
 10
8.466674
 20
111.125000
 30
0.0
 10
11.112503
 20
115.622920
 30
0.0
 10
8.995834
 20
120.650000
 30
0.0
 10
4.233334
 20
121.972920
 30
0.0
 10
2.645834
 20
123.560420
 30
0.0
 10
2.645834
 20
125.941670
 30
0.0
 10
4.233334
 20
127.000000
 30
0.0
 10
9.260424
 20
128.322920
 30
0.0
 10
11.112503
 20
133.085420
 30
0.0
 10
8.731254
 20
137.583340
 30
0.0
 10
8.731254
 20
139.700000
 30
0.0
 10
10.318753
 20
141.287500
 30
0.0
 10
12.170833
 20
141.022920
 30
0.0
 10
16.668753
 20
138.641670
 30
0.0
  0
LWPOLYLINE
  5
155
100
AcDbEntity
  8
Layer_1
 62
7
100
AcDbPolyline
 90
48
 70
1
 10
21.166670
 20
90.222920
 30
0.0
 10
23.018750
 20
95.250010
 30
0.0
 10
23.812500
 20
96.572920
 30
0.0
 10
26.458330
 20
96.572920
 30
0.0
 10
27.516670
 20
95.250010
 30
0.0
 10
29.104170
 20
90.222920
 30
0.0
 10
33.337500
 20
88.635420
 30
0.0
 10
38.364580
 20
91.281260
 30
0.0
 10
39.422910
 20
91.281260
 30
0.0
 10
41.804160
 20
89.164590
 30
0.0
 10
41.804160
 20
87.577090
 30
0.0
 10
39.158330
 20
83.079170
 30
0.0
 10
41.275000
 20
78.581260
 30
0.0
 10
46.302080
 20
76.993760
 30
0.0
 10
47.360410
 20
76.200010
 30
0.0
 10
47.625000
 20
73.289590
 30
0.0
 10
46.302080
 20
72.495840
 30
0.0
 10
41.539580
 20
70.908340
 30
0.0
 10
39.687500
 20
65.881260
 30
0.0
 10
42.333330
 20
61.383340
 30
0.0
 10
42.333330
 20
59.795840
 30
0.0
 10
40.481250
 20
57.679170
 30
0.0
 10
38.893750
 20
57.679170
 30
0.0
 10
34.395830
 20
60.060420
 30
0.0
 10
29.104170
 20
57.679170
 30
0.0
 10
27.781250
 20
52.652090
 30
0.0
 10
26.722920
 20
51.593760
 30
0.0
 10
24.077080
 20
51.593760
 30
0.0
 10
23.018750
 20
52.387510
 30
0.0
 10
21.695830
 20
57.414590
 30
0.0
 10
16.404170
 20
59.795840
 30
0.0
 10
11.906250
 20
57.150010
 30
0.0
 10
10.054170
 20
57.414590
 30
0.0
 10
8.466671
 20
59.002090
 30
0.0
 10
8.466671
 20
60.854170
 30
0.0
 10
11.112500
 20
65.352090
 30
0.0
 10
8.995831
 20
70.379170
 30
0.0
 10
4.233331
 20
71.702090
 30
0.0
 10
2.645831
 20
73.289590
 30
0.0
 10
2.645831
 20
75.670840
 30
0.0
 10
4.233331
 20
76.729170
 30
0.0
 10
9.260421
 20
78.052090
 30
0.0
 10
11.112500
 20
82.814590
 30
0.0
 10
8.731251
 20
87.312510
 30
0.0
 10
8.731251
 20
89.429170
 30
0.0
 10
10.318750
 20
91.016670
 30
0.0
 10
12.170830
 20
90.752090
 30
0.0
 10
16.668750
 20
88.370840
 30
0.0
  0
LWPOLYLINE
  5
156
100
AcDbEntity
  8
Layer_1
 62
7
100
AcDbPolyline
 90
48
 70
1
 10
68.791670
 20
90.222910
 30
0.0
 10
70.643750
 20
95.250000
 30
0.0
 10
71.437500
 20
96.572910
 30
0.0
 10
74.083330
 20
96.572910
 30
0.0
 10
75.141670
 20
95.250000
 30
0.0
 10
76.729170
 20
90.222910
 30
0.0
 10
80.962500
 20
88.635410
 30
0.0
 10
85.989580
 20
91.281250
 30
0.0
 10
87.047910
 20
91.281250
 30
0.0
 10
89.429160
 20
89.164580
 30
0.0
 10
89.429160
 20
87.577080
 30
0.0
 10
86.783330
 20
83.079160
 30
0.0
 10
88.900000
 20
78.581250
 30
0.0
 10
93.927080
 20
76.993750
 30
0.0
 10
94.985410
 20
76.200000
 30
0.0
 10
95.250000
 20
73.289580
 30
0.0
 10
93.927080
 20
72.495830
 30
0.0
 10
89.164580
 20
70.908330
 30
0.0
 10
87.312500
 20
65.881250
 30
0.0
 10
89.958330
 20
61.383330
 30
0.0
 10
89.958330
 20
59.795830
 30
0.0
 10
88.106250
 20
57.679160
 30
0.0
 10
86.518750
 20
57.679160
 30
0.0
 10
82.020830
 20
60.060410
 30
0.0
 10
76.729170
 20
57.679160
 30
0.0
 10
75.406250
 20
52.652080
 30
0.0
 10
74.347920
 20
51.593750
 30
0.0
 10
71.702080
 20
51.593750
 30
0.0
 10
70.643750
 20
52.387500
 30
0.0
 10
69.320830
 20
57.414580
 30
0.0
 10
64.029170
 20
59.795830
 30
0.0
 10
59.531250
 20
57.150000
 30
0.0
 10
57.679170
 20
57.414580
 30
0.0
 10
56.091671
 20
59.002080
 30
0.0
 10
56.091671
 20
60.854160
 30
0.0
 10
58.737500
 20
65.352080
 30
0.0
 10
56.620831
 20
70.379160
 30
0.0
 10
51.858331
 20
71.702080
 30
0.0
 10
50.270831
 20
73.289580
 30
0.0
 10
50.270831
 20
75.670830
 30
0.0
 10
51.858331
 20
76.729160
 30
0.0
 10
56.885421
 20
78.052080
 30
0.0
 10
58.737500
 20
82.814580
 30
0.0
 10
56.356251
 20
87.312500
 30
0.0
 10
56.356251
 20
89.429160
 30
0.0
 10
57.943750
 20
91.016660
 30
0.0
 10
59.795830
 20
90.752080
 30
0.0
 10
64.293750
 20
88.370830
 30
0.0
  0
LWPOLYLINE
  5
157
100
AcDbEntity
  8
Layer_1
 62
7
100
AcDbPolyline
 90
48
 70
1
 10
116.416670
 20
90.222920
 30
0.0
 10
118.268750
 20
95.250010
 30
0.0
 10
119.062500
 20
96.572920
 30
0.0
 10
121.708330
 20
96.572920
 30
0.0
 10
122.766670
 20
95.250010
 30
0.0
 10
124.354170
 20
90.222920
 30
0.0
 10
128.587500
 20
88.635420
 30
0.0
 10
133.614580
 20
91.281260
 30
0.0
 10
134.672910
 20
91.281260
 30
0.0
 10
137.054160
 20
89.164590
 30
0.0
 10
137.054160
 20
87.577090
 30
0.0
 10
134.408330
 20
83.079170
 30
0.0
 10
136.525000
 20
78.581260
 30
0.0
 10
141.552080
 20
76.993760
 30
0.0
 10
142.610410
 20
76.200010
 30
0.0
 10
142.875000
 20
73.289590
 30
0.0
 10
141.552080
 20
72.495840
 30
0.0
 10
136.789580
 20
70.908340
 30
0.0
 10
134.937500
 20
65.881260
 30
0.0
 10
137.583330
 20
61.383340
 30
0.0
 10
137.583330
 20
59.795840
 30
0.0
 10
135.731250
 20
57.679170
 30
0.0
 10
134.143750
 20
57.679170
 30
0.0
 10
129.645830
 20
60.060420
 30
0.0
 10
124.354170
 20
57.679170
 30
0.0
 10
123.031250
 20
52.652090
 30
0.0
 10
121.972920
 20
51.593760
 30
0.0
 10
119.327080
 20
51.593760
 30
0.0
 10
118.268750
 20
52.387510
 30
0.0
 10
116.945830
 20
57.414590
 30
0.0
 10
111.654170
 20
59.795840
 30
0.0
 10
107.156250
 20
57.150010
 30
0.0
 10
105.304170
 20
57.414590
 30
0.0
 10
103.716670
 20
59.002090
 30
0.0
 10
103.716670
 20
60.854170
 30
0.0
 10
106.362500
 20
65.352090
 30
0.0
 10
104.245830
 20
70.379170
 30
0.0
 10
99.483337
 20
71.702090
 30
0.0
 10
97.895837
 20
73.289590
 30
0.0
 10
97.895837
 20
75.670840
 30
0.0
 10
99.483337
 20
76.729170
 30
0.0
 10
104.510420
 20
78.052090
 30
0.0
 10
106.362500
 20
82.814590
 30
0.0
 10
103.981250
 20
87.312510
 30
0.0
 10
103.981250
 20
89.429170
 30
0.0
 10
105.568750
 20
91.016670
 30
0.0
 10
107.420830
 20
90.752090
 30
0.0
 10
111.918750
 20
88.370840
 30
0.0
  0
SPLINE
  5
158
100
AcDbEntity
  8
Layer_1
 62
3
100
AcDbSpline
 70
8
 71
3
 72
8
 73
4
 74
0
 40
0
 40
0
 40
0
 40
0
 40
1
 40
1
 40
1
 40
1
 10
26.458333
 20
220.265625
 30
0.0
 10
26.458333
 20
220.029309
 30
0.0
 10
26.206186
 20
219.810943
 30
0.0
 10
25.796874
 20
219.692785
 30
0.0
  0
SPLINE
  5
159
100
AcDbEntity
  8
Layer_1
 62
3
100
AcDbSpline
 70
8
 71
3
 72
8
 73
4
 74
0
 40
0
 40
0
 40
0
 40
0
 40
1
 40
1
 40
1
 40
1
 10
25.796874
 20
219.692785
 30
0.0
 10
25.387562
 20
219.574627
 30
0.0
 10
24.883270
 20
219.574627
 30
0.0
 10
24.473958
 20
219.692785
 30
0.0
  0
SPLINE
  5
15a
100
AcDbEntity
  8
Layer_1
 62
3
100
AcDbSpline
 70
8
 71
3
 72
8
 73
4
 74
0
 40
0
 40
0
 40
0
 40
0
 40
1
 40
1
 40
1
 40
1
 10
24.473958
 20
219.692785
 30
0.0
 10
24.064646
 20
219.810943
 30
0.0
 10
23.812499
 20
220.029309
 30
0.0
 10
23.812499
 20
220.265625
 30
0.0
  0
SPLINE
  5
15b
100
AcDbEntity
  8
Layer_1
 62
3
100
AcDbSpline
 70
8
 71
3
 72
8
 73
4
 74
0
 40
0
 40
0
 40
0
 40
0
 40
1
 40
1
 40
1
 40
1
 10
23.812499
 20
220.265625
 30
0.0
 10
23.812499
 20
220.501941
 30
0.0
 10
24.064646
 20
220.720307
 30
0.0
 10
24.473958
 20
220.838465
 30
0.0
  0
SPLINE
  5
15c
100
AcDbEntity
  8
Layer_1
 62
3
100
AcDbSpline
 70
8
 71
3
 72
8
 73
4
 74
0
 40
0
 40
0
 40
0
 40
0
 40
1
 40
1
 40
1
 40
1
 10
24.473958
 20
220.838465
 30
0.0
 10
24.883270
 20
220.956623
 30
0.0
 10
25.387562
 20
220.956623
 30
0.0
 10
25.796874
 20
220.838465
 30
0.0
  0
SPLINE
  5
15d
100
AcDbEntity
  8
Layer_1
 62
3
100
AcDbSpline
 70
8
 71
3
 72
8
 73
4
 74
0
 40
0
 40
0
 40
0
 40
0
 40
1
 40
1
 40
1
 40
1
 10
25.796874
 20
220.838465
 30
0.0
 10
26.206186
 20
220.720307
 30
0.0
 10
26.458333
 20
220.501941
 30
0.0
 10
26.458333
 20
220.265625
 30
0.0
  0
LWPOLYLINE
  5
15e
100
AcDbEntity
  8
Layer_1
 62
7
100
AcDbPolyline
 90
48
 70
1
 10
164.041670
 20
90.222910
 30
0.0
 10
165.893750
 20
95.250000
 30
0.0
 10
166.687500
 20
96.572910
 30
0.0
 10
169.333330
 20
96.572910
 30
0.0
 10
170.391670
 20
95.250000
 30
0.0
 10
171.979170
 20
90.222910
 30
0.0
 10
176.212500
 20
88.635410
 30
0.0
 10
181.239580
 20
91.281250
 30
0.0
 10
182.297910
 20
91.281250
 30
0.0
 10
184.679160
 20
89.164580
 30
0.0
 10
184.679160
 20
87.577080
 30
0.0
 10
182.033330
 20
83.079160
 30
0.0
 10
184.150000
 20
78.581250
 30
0.0
 10
189.177080
 20
76.993750
 30
0.0
 10
190.235410
 20
76.200000
 30
0.0
 10
190.500000
 20
73.289580
 30
0.0
 10
189.177080
 20
72.495830
 30
0.0
 10
184.414580
 20
70.908330
 30
0.0
 10
182.562500
 20
65.881250
 30
0.0
 10
185.208330
 20
61.383330
 30
0.0
 10
185.208330
 20
59.795830
 30
0.0
 10
183.356250
 20
57.679160
 30
0.0
 10
181.768750
 20
57.679160
 30
0.0
 10
177.270830
 20
60.060410
 30
0.0
 10
171.979170
 20
57.679160
 30
0.0
 10
170.656250
 20
52.652080
 30
0.0
 10
169.597920
 20
51.593750
 30
0.0
 10
166.952080
 20
51.593750
 30
0.0
 10
165.893750
 20
52.387500
 30
0.0
 10
164.570830
 20
57.414580
 30
0.0
 10
159.279170
 20
59.795830
 30
0.0
 10
154.781250
 20
57.150000
 30
0.0
 10
152.929170
 20
57.414580
 30
0.0
 10
151.341670
 20
59.002080
 30
0.0
 10
151.341670
 20
60.854160
 30
0.0
 10
153.987500
 20
65.352080
 30
0.0
 10
151.870830
 20
70.379160
 30
0.0
 10
147.108340
 20
71.702080
 30
0.0
 10
145.520840
 20
73.289580
 30
0.0
 10
145.520840
 20
75.670830
 30
0.0
 10
147.108340
 20
76.729160
 30
0.0
 10
152.135420
 20
78.052080
 30
0.0
 10
153.987500
 20
82.814580
 30
0.0
 10
151.606250
 20
87.312500
 30
0.0
 10
151.606250
 20
89.429160
 30
0.0
 10
153.193750
 20
91.016660
 30
0.0
 10
155.045830
 20
90.752080
 30
0.0
 10
159.543750
 20
88.370830
 30
0.0
  0
LWPOLYLINE
  5
15f
100
AcDbEntity
  8
Layer_1
 62
3
100
AcDbPolyline
 90
1
 70
1
 10
26.458333
 20
220.265625
 30
0.0
  0
LWPOLYLINE
  5
160
100
AcDbEntity
  8
Layer_1
 62
7
100
AcDbPolyline
 90
2
 70
0
 10
23.812500
 20
268.552082
 30
0.0
 10
26.458333
 20
265.906249
 30
0.0
  0
LWPOLYLINE
  5
161
100
AcDbEntity
  8
Layer_1
 62
7
100
AcDbPolyline
 90
2
 70
0
 10
26.458333
 20
268.552082
 30
0.0
 10
23.812500
 20
265.906249
 30
0.0
  0
LWPOLYLINE
  5
162
100
AcDbEntity
  8
Layer_1
 62
7
100
AcDbPolyline
 90
2
 70
0
 10
23.812500
 20
220.927083
 30
0.0
 10
26.458333
 20
218.281250
 30
0.0
  0
LWPOLYLINE
  5
163
100
AcDbEntity
  8
Layer_1
 62
7
100
AcDbPolyline
 90
2
 70
0
 10
26.458333
 20
220.927083
 30
0.0
 10
23.812500
 20
218.281250
 30
0.0
  0
LWPOLYLINE
  5
164
100
AcDbEntity
  8
Layer_1
 62
7
100
AcDbPolyline
 90
2
 70
0
 10
23.812500
 20
173.302080
 30
0.0
 10
26.458333
 20
170.656250
 30
0.0
  0
LWPOLYLINE
  5
165
100
AcDbEntity
  8
Layer_1
 62
7
100
AcDbPolyline
 90
2
 70
0
 10
26.458333
 20
173.302080
 30
0.0
 10
23.812500
 20
170.656250
 30
0.0
  0
LWPOLYLINE
  5
166
100
AcDbEntity
  8
Layer_1
 62
7
100
AcDbPolyline
 90
2
 70
0
 10
23.812500
 20
125.677080
 30
0.0
 10
26.458333
 20
123.031250
 30
0.0
  0
LWPOLYLINE
  5
167
100
AcDbEntity
  8
Layer_1
 62
7
100
AcDbPolyline
 90
2
 70
0
 10
26.458333
 20
125.677080
 30
0.0
 10
23.812500
 20
123.031250
 30
0.0
  0
LWPOLYLINE
  5
168
100
AcDbEntity
  8
Layer_1
 62
7
100
AcDbPolyline
 90
2
 70
0
 10
23.812500
 20
75.406250
 30
0.0
 10
26.458333
 20
72.760420
 30
0.0
  0
LWPOLYLINE
  5
169
100
AcDbEntity
  8
Layer_1
 62
7
100
AcDbPolyline
 90
2
 70
0
 10
26.458333
 20
75.406250
 30
0.0
 10
23.812500
 20
72.760420
 30
0.0
  0
LWPOLYLINE
  5
16a
100
AcDbEntity
  8
Layer_1
 62
7
100
AcDbPolyline
 90
2
 70
0
 10
71.437500
 20
75.406250
 30
0.0
 10
74.083333
 20
72.760420
 30
0.0
  0
LWPOLYLINE
  5
16b
100
AcDbEntity
  8
Layer_1
 62
7
100
AcDbPolyline
 90
2
 70
0
 10
74.083333
 20
75.406250
 30
0.0
 10
71.437500
 20
72.760420
 30
0.0
  0
LWPOLYLINE
  5
16c
100
AcDbEntity
  8
Layer_1
 62
7
100
AcDbPolyline
 90
2
 70
0
 10
119.062500
 20
75.406250
 30
0.0
 10
121.708330
 20
72.760420
 30
0.0
  0
LWPOLYLINE
  5
16d
100
AcDbEntity
  8
Layer_1
 62
7
100
AcDbPolyline
 90
2
 70
0
 10
121.708330
 20
75.406250
 30
0.0
 10
119.062500
 20
72.760420
 30
0.0
  0
LWPOLYLINE
  5
16e
100
AcDbEntity
  8
Layer_1
 62
7
100
AcDbPolyline
 90
2
 70
0
 10
166.687500
 20
75.406250
 30
0.0
 10
169.333330
 20
72.760420
 30
0.0
  0
LWPOLYLINE
  5
16f
100
AcDbEntity
  8
Layer_1
 62
7
100
AcDbPolyline
 90
2
 70
0
 10
169.333330
 20
75.406250
 30
0.0
 10
166.687500
 20
72.760420
 30
0.0
  0
LWPOLYLINE
  5
170
100
AcDbEntity
  8
Layer_1
 62
7
100
AcDbPolyline
 90
2
 70
0
 10
166.687500
 20
125.677080
 30
0.0
 10
169.333330
 20
123.031250
 30
0.0
  0
LWPOLYLINE
  5
171
100
AcDbEntity
  8
Layer_1
 62
7
100
AcDbPolyline
 90
2
 70
0
 10
169.333330
 20
125.677080
 30
0.0
 10
166.687500
 20
123.031250
 30
0.0
  0
LWPOLYLINE
  5
172
100
AcDbEntity
  8
Layer_1
 62
7
100
AcDbPolyline
 90
2
 70
0
 10
119.062500
 20
125.677080
 30
0.0
 10
121.708330
 20
123.031250
 30
0.0
  0
LWPOLYLINE
  5
173
100
AcDbEntity
  8
Layer_1
 62
7
100
AcDbPolyline
 90
2
 70
0
 10
121.708330
 20
125.677080
 30
0.0
 10
119.062500
 20
123.031250
 30
0.0
  0
LWPOLYLINE
  5
174
100
AcDbEntity
  8
Layer_1
 62
7
100
AcDbPolyline
 90
2
 70
0
 10
71.437500
 20
125.677080
 30
0.0
 10
74.083330
 20
123.031250
 30
0.0
  0
LWPOLYLINE
  5
175
100
AcDbEntity
  8
Layer_1
 62
7
100
AcDbPolyline
 90
2
 70
0
 10
74.083330
 20
125.677080
 30
0.0
 10
71.437500
 20
123.031250
 30
0.0
  0
LWPOLYLINE
  5
176
100
AcDbEntity
  8
Layer_1
 62
7
100
AcDbPolyline
 90
2
 70
0
 10
71.437503
 20
173.302080
 30
0.0
 10
74.083333
 20
170.656250
 30
0.0
  0
LWPOLYLINE
  5
177
100
AcDbEntity
  8
Layer_1
 62
7
100
AcDbPolyline
 90
2
 70
0
 10
74.083333
 20
173.302080
 30
0.0
 10
71.437503
 20
170.656250
 30
0.0
  0
LWPOLYLINE
  5
178
100
AcDbEntity
  8
Layer_1
 62
7
100
AcDbPolyline
 90
2
 70
0
 10
71.437500
 20
220.927083
 30
0.0
 10
74.083330
 20
218.281253
 30
0.0
  0
LWPOLYLINE
  5
179
100
AcDbEntity
  8
Layer_1
 62
7
100
AcDbPolyline
 90
2
 70
0
 10
74.083330
 20
220.927083
 30
0.0
 10
71.437500
 20
218.281253
 30
0.0
  0
LWPOLYLINE
  5
17a
100
AcDbEntity
  8
Layer_1
 62
7
100
AcDbPolyline
 90
2
 70
0
 10
71.437503
 20
268.552083
 30
0.0
 10
74.083333
 20
265.906253
 30
0.0
  0
LWPOLYLINE
  5
17b
100
AcDbEntity
  8
Layer_1
 62
7
100
AcDbPolyline
 90
2
 70
0
 10
74.083333
 20
268.552083
 30
0.0
 10
71.437503
 20
265.906253
 30
0.0
  0
LWPOLYLINE
  5
17c
100
AcDbEntity
  8
Layer_1
 62
7
100
AcDbPolyline
 90
2
 70
0
 10
71.437503
 20
268.552083
 30
0.0
 10
74.083333
 20
265.906253
 30
0.0
  0
LWPOLYLINE
  5
17d
100
AcDbEntity
  8
Layer_1
 62
7
100
AcDbPolyline
 90
2
 70
0
 10
74.083333
 20
268.552083
 30
0.0
 10
71.437503
 20
265.906253
 30
0.0
  0
LWPOLYLINE
  5
17e
100
AcDbEntity
  8
Layer_1
 62
7
100
AcDbPolyline
 90
2
 70
0
 10
119.062500
 20
269.875000
 30
0.0
 10
121.708330
 20
267.229170
 30
0.0
  0
LWPOLYLINE
  5
17f
100
AcDbEntity
  8
Layer_1
 62
7
100
AcDbPolyline
 90
2
 70
0
 10
121.708330
 20
269.875000
 30
0.0
 10
119.062500
 20
267.229170
 30
0.0
  0
LWPOLYLINE
  5
180
100
AcDbEntity
  8
Layer_1
 62
7
100
AcDbPolyline
 90
2
 70
0
 10
119.062500
 20
269.875000
 30
0.0
 10
121.708330
 20
267.229170
 30
0.0
  0
LWPOLYLINE
  5
181
100
AcDbEntity
  8
Layer_1
 62
7
100
AcDbPolyline
 90
2
 70
0
 10
121.708330
 20
269.875000
 30
0.0
 10
119.062500
 20
267.229170
 30
0.0
  0
LWPOLYLINE
  5
182
100
AcDbEntity
  8
Layer_1
 62
7
100
AcDbPolyline
 90
2
 70
0
 10
119.062500
 20
269.875000
 30
0.0
 10
121.708330
 20
267.229170
 30
0.0
  0
LWPOLYLINE
  5
183
100
AcDbEntity
  8
Layer_1
 62
7
100
AcDbPolyline
 90
2
 70
0
 10
121.708330
 20
269.875000
 30
0.0
 10
119.062500
 20
267.229170
 30
0.0
  0
LWPOLYLINE
  5
184
100
AcDbEntity
  8
Layer_1
 62
7
100
AcDbPolyline
 90
2
 70
0
 10
119.062500
 20
269.875000
 30
0.0
 10
121.708330
 20
267.229170
 30
0.0
  0
LWPOLYLINE
  5
185
100
AcDbEntity
  8
Layer_1
 62
7
100
AcDbPolyline
 90
2
 70
0
 10
121.708330
 20
269.875000
 30
0.0
 10
119.062500
 20
267.229170
 30
0.0
  0
LWPOLYLINE
  5
186
100
AcDbEntity
  8
Layer_1
 62
7
100
AcDbPolyline
 90
2
 70
0
 10
119.062500
 20
269.875000
 30
0.0
 10
121.708330
 20
267.229170
 30
0.0
  0
LWPOLYLINE
  5
187
100
AcDbEntity
  8
Layer_1
 62
7
100
AcDbPolyline
 90
2
 70
0
 10
121.708330
 20
269.875000
 30
0.0
 10
119.062500
 20
267.229170
 30
0.0
  0
LWPOLYLINE
  5
188
100
AcDbEntity
  8
Layer_1
 62
7
100
AcDbPolyline
 90
2
 70
0
 10
119.062500
 20
269.875000
 30
0.0
 10
121.708330
 20
267.229170
 30
0.0
  0
LWPOLYLINE
  5
189
100
AcDbEntity
  8
Layer_1
 62
7
100
AcDbPolyline
 90
2
 70
0
 10
121.708330
 20
269.875000
 30
0.0
 10
119.062500
 20
267.229170
 30
0.0
  0
LWPOLYLINE
  5
18a
100
AcDbEntity
  8
Layer_1
 62
7
100
AcDbPolyline
 90
2
 70
0
 10
119.062500
 20
269.875000
 30
0.0
 10
121.708330
 20
267.229170
 30
0.0
  0
LWPOLYLINE
  5
18b
100
AcDbEntity
  8
Layer_1
 62
7
100
AcDbPolyline
 90
2
 70
0
 10
121.708330
 20
269.875000
 30
0.0
 10
119.062500
 20
267.229170
 30
0.0
  0
LWPOLYLINE
  5
18c
100
AcDbEntity
  8
Layer_1
 62
7
100
AcDbPolyline
 90
2
 70
0
 10
166.687500
 20
269.874997
 30
0.0
 10
169.333330
 20
267.229167
 30
0.0
  0
LWPOLYLINE
  5
18d
100
AcDbEntity
  8
Layer_1
 62
7
100
AcDbPolyline
 90
2
 70
0
 10
169.333330
 20
269.875000
 30
0.0
 10
166.687500
 20
267.229170
 30
0.0
  0
LWPOLYLINE
  5
18e
100
AcDbEntity
  8
Layer_1
 62
7
100
AcDbPolyline
 90
2
 70
0
 10
119.062500
 20
220.927083
 30
0.0
 10
121.708330
 20
218.281253
 30
0.0
  0
LWPOLYLINE
  5
18f
100
AcDbEntity
  8
Layer_1
 62
7
100
AcDbPolyline
 90
2
 70
0
 10
121.708330
 20
220.927083
 30
0.0
 10
119.062500
 20
218.281253
 30
0.0
  0
LWPOLYLINE
  5
190
100
AcDbEntity
  8
Layer_1
 62
7
100
AcDbPolyline
 90
2
 70
0
 10
119.062500
 20
220.927083
 30
0.0
 10
121.708330
 20
218.281253
 30
0.0
  0
LWPOLYLINE
  5
191
100
AcDbEntity
  8
Layer_1
 62
7
100
AcDbPolyline
 90
2
 70
0
 10
121.708330
 20
220.927083
 30
0.0
 10
119.062500
 20
218.281253
 30
0.0
  0
LWPOLYLINE
  5
192
100
AcDbEntity
  8
Layer_1
 62
7
100
AcDbPolyline
 90
2
 70
0
 10
119.062500
 20
220.927083
 30
0.0
 10
121.708330
 20
218.281253
 30
0.0
  0
LWPOLYLINE
  5
193
100
AcDbEntity
  8
Layer_1
 62
7
100
AcDbPolyline
 90
2
 70
0
 10
121.708330
 20
220.927083
 30
0.0
 10
119.062500
 20
218.281253
 30
0.0
  0
LWPOLYLINE
  5
194
100
AcDbEntity
  8
Layer_1
 62
7
100
AcDbPolyline
 90
2
 70
0
 10
166.687500
 20
220.927080
 30
0.0
 10
169.333330
 20
218.281250
 30
0.0
  0
LWPOLYLINE
  5
195
100
AcDbEntity
  8
Layer_1
 62
7
100
AcDbPolyline
 90
2
 70
0
 10
169.333330
 20
220.927083
 30
0.0
 10
166.687500
 20
218.281253
 30
0.0
  0
LWPOLYLINE
  5
196
100
AcDbEntity
  8
Layer_1
 62
7
100
AcDbPolyline
 90
2
 70
0
 10
166.687500
 20
220.927080
 30
0.0
 10
169.333330
 20
218.281250
 30
0.0
  0
LWPOLYLINE
  5
197
100
AcDbEntity
  8
Layer_1
 62
7
100
AcDbPolyline
 90
2
 70
0
 10
169.333330
 20
220.927083
 30
0.0
 10
166.687500
 20
218.281253
 30
0.0
  0
LWPOLYLINE
  5
198
100
AcDbEntity
  8
Layer_1
 62
7
100
AcDbPolyline
 90
2
 70
0
 10
166.687500
 20
173.302080
 30
0.0
 10
169.333330
 20
170.656250
 30
0.0
  0
LWPOLYLINE
  5
199
100
AcDbEntity
  8
Layer_1
 62
7
100
AcDbPolyline
 90
2
 70
0
 10
169.333330
 20
173.302080
 30
0.0
 10
166.687500
 20
170.656250
 30
0.0
  0
LWPOLYLINE
  5
19a
100
AcDbEntity
  8
Layer_1
 62
7
100
AcDbPolyline
 90
2
 70
0
 10
119.062500
 20
174.625000
 30
0.0
 10
121.708330
 20
171.979170
 30
0.0
  0
LWPOLYLINE
  5
19b
100
AcDbEntity
  8
Layer_1
 62
7
100
AcDbPolyline
 90
2
 70
0
 10
121.708330
 20
174.625000
 30
0.0
 10
119.062500
 20
171.979170
 30
0.0
  0
ENDSEC
  0
SECTION
  2
OBJECTS
  0
DICTIONARY
  5
C
330
0
100
AcDbDictionary
  3
ACAD_GROUP
350
D
  3
ACAD_MLINESTYLE
350
17
  0
DICTIONARY
  5
D
330
C
100
AcDbDictionary
  0
DICTIONARY
  5
1A
330
C
100
AcDbDictionary
  0
DICTIONARY
  5
17
330
C
100
AcDbDictionary
  3
STANDARD
350
18
  0
DICTIONARY
  5
19
330
C
100
AcDbDictionary
  0
ENDSEC
  0
EOF
